<svg width="52" height="52" viewBox="0 0 52 52" fill="none" xmlns="http://www.w3.org/2000/svg">
<rect width="52" height="52" rx="7" fill="#FBF3E8"/>
<path d="M28.1908 33.856C28.1908 33.984 27.4548 34.048 25.9828 34.048C24.5268 34.048 23.7988 33.992 23.7988 33.88V22.096C23.7988 21.984 24.5268 21.928 25.9828 21.928C27.4548 21.928 28.1908 21.976 28.1908 22.072V33.856ZM28.1908 20.656C28.1908 20.768 27.4548 20.824 25.9828 20.824C24.5268 20.824 23.7988 20.776 23.7988 20.68V17.224C23.7988 17.064 24.5268 16.984 25.9828 16.984C27.4548 16.984 28.1908 17.032 28.1908 17.128V20.656Z" fill="#09276A"/>
</svg>
