<svg width="852" height="393" viewBox="0 0 852 393" fill="none" xmlns="http://www.w3.org/2000/svg">
<path d="M391.829 285.411C396.158 290.825 399.307 296.631 401.426 303.411C404.391 302.807 407.864 303.016 410.664 304.135C413.467 305.254 415.466 308.821 413.841 311.364C413.326 312.171 412.534 312.757 411.737 313.293C408.313 315.592 404.468 317.272 400.451 318.219C397.577 318.897 394.34 319.144 391.88 317.535C390.08 316.359 388.952 314.232 388.986 312.087C389.021 309.941 390.214 307.841 392.05 306.7C390.204 300.998 387.699 295.513 384.605 290.379C383.387 288.36 384.037 285.721 386.059 284.475C386.087 284.458 386.114 284.442 386.142 284.425C388.019 283.277 390.463 283.699 391.83 285.406L391.829 285.411Z" fill="#009039"/>
<path d="M350.908 292.699C354.885 298.376 357.659 304.37 359.345 311.272C362.341 310.856 365.795 311.285 368.519 312.58C371.244 313.874 373.014 317.56 371.231 319.995C370.666 320.768 369.838 321.302 369.009 321.787C365.445 323.864 361.502 325.297 357.433 325.987C354.522 326.482 351.276 326.523 348.922 324.761C347.201 323.474 346.21 321.28 346.38 319.141C346.55 317.002 347.874 314.981 349.779 313.959C348.298 308.152 346.146 302.519 343.383 297.199C342.296 295.107 343.111 292.515 345.209 291.4C345.238 291.384 345.265 291.37 345.295 291.354C347.241 290.328 349.653 290.904 350.909 292.695L350.908 292.699Z" fill="#009039"/>
<path d="M428.568 242.929C427.97 237.941 427.125 232.308 424.314 228.274C423.43 227.006 421.686 226.692 420.419 227.562C420.405 227.573 420.391 227.58 420.377 227.591C419.246 228.365 418.853 229.85 419.454 231.089C421.227 234.751 422.313 238.402 422.325 242.601C418.624 243.211 415.129 246.987 415.348 250.753C415.568 254.518 417.316 257.563 420.666 259.339C421.82 259.951 423.785 260.74 426.626 260.61C430.777 260.419 433.56 257.28 434.657 252.968C435.787 248.531 433.66 244.341 428.57 242.93L428.568 242.929Z" fill="#009039"/>
<path d="M348.538 144.347C333.879 142.342 319.561 149.336 307.043 157.167C302.116 160.25 297.24 163.538 293.328 167.821C288.698 172.886 285.613 179.122 282.586 185.269C279.066 192.42 275.528 199.614 273.249 207.246C268.066 224.601 269.942 244.212 279.607 259.564C283.773 266.185 289.245 271.902 294.992 277.228C299.141 281.071 303.486 284.758 308.392 287.587C322.189 295.543 338.94 296.003 354.895 296.255C362.543 296.376 370.38 296.467 377.6 293.96C381.238 292.695 384.624 290.798 387.847 288.702C413.556 271.987 429.273 241.18 427.631 210.718C427.32 204.934 426.415 199.132 424.308 193.732C420.328 183.534 412.383 175.448 404.639 167.669C397.432 160.427 389.878 152.959 380.211 149.554C377.25 148.511 374.161 147.879 371.084 147.25C364.198 145.844 357.104 145.521 348.538 144.349V144.347Z" fill="#E27100"/>
<path d="M349.692 154.569C326.03 155.797 303.602 170.774 293.543 192.067C289.255 201.143 287.117 211.151 286.759 221.171C286.507 228.246 287.135 235.386 289.064 242.202C292.206 253.308 298.856 263.407 307.844 270.722C321.351 281.716 339.418 286.027 356.885 285.779C363.753 285.682 374.748 283.084 380.762 280.054C384.984 277.926 388.762 274.881 392.729 272.315C396.032 270.179 398.792 267.326 401.512 264.492C405.363 260.48 409.253 256.374 411.743 251.414C413.916 247.082 414.926 242.283 415.855 237.534C417.365 229.806 418.72 221.972 418.391 214.107C417.462 192.001 402.688 171.789 383.187 161.073C374.732 156.427 365.141 153.77 349.696 154.571L349.692 154.569Z" fill="#00CB39"/>
<path d="M360.664 170.273C359.319 170.723 358.343 171.97 357.975 173.332C357.608 174.693 357.782 176.15 358.191 177.499C358.628 178.946 359.384 180.37 360.646 181.211C361.908 182.053 363.758 182.147 364.876 181.121C365.433 180.608 365.752 179.892 366 179.18C366.654 177.29 366.898 175.192 366.252 173.299C365.605 171.407 363.796 169.226 360.664 170.271V170.273Z" fill="#E27100"/>
<path d="M330.135 187.859C328.745 188.73 328.35 190.713 328.991 192.218C329.631 193.723 331.088 194.762 332.645 195.294C333.301 195.518 334.019 195.666 334.683 195.468C335.685 195.169 336.326 194.122 336.395 193.087C336.464 192.053 336.059 191.04 335.531 190.142C334.336 188.109 332.179 186.577 330.135 187.861V187.859Z" fill="#E27100"/>
<path d="M334.623 252.142C332.043 252.095 329.566 254.024 328.997 256.521C328.735 257.673 328.938 259.061 329.922 259.727C331.023 260.471 332.523 259.989 333.704 259.378C335.159 258.625 336.58 257.643 337.34 256.201C338.1 254.758 338.055 252.204 334.621 252.142H334.623Z" fill="#E27100"/>
<path d="M353.165 262.678C350.945 263.541 349.809 266.545 350.878 268.717C351.061 269.091 351.307 269.446 351.642 269.682C352.272 270.122 353.144 270.071 353.815 269.7C354.486 269.329 354.976 268.685 355.337 267.995C355.917 266.886 356.203 265.617 356.156 264.358C356.136 263.805 356.041 263.226 355.709 262.791C355.376 262.355 354.728 262.066 353.163 262.676L353.165 262.678Z" fill="#E27100"/>
<path d="M378.345 260.149C377.3 262.884 378.963 266.322 381.768 267.221C382.213 267.365 382.713 267.445 383.138 267.254C383.664 267.018 383.93 266.433 384.075 265.878C384.879 262.741 382.67 259.162 378.345 260.149Z" fill="#E27100"/>
<path d="M386.363 180.741C385.048 181.506 383.662 182.345 383.003 183.707C382.345 185.068 382.845 187.082 384.325 187.439C384.869 187.57 385.449 187.459 385.971 187.257C387.627 186.62 388.873 185.03 389.087 183.279C389.172 182.579 389.087 181.816 388.644 181.264C388.2 180.711 387.229 180.237 386.363 180.741Z" fill="#E27100"/>
<path d="M399.824 245.532C399.051 245.625 398.259 245.47 397.495 245.625C396.73 245.78 395.964 246.43 396.096 247.19C396.137 247.429 396.263 247.644 396.397 247.846C397.871 250.071 400.789 251.245 403.407 250.67C403.748 250.596 404.098 250.485 404.352 250.247C404.868 249.759 404.811 248.915 404.541 248.26C403.921 246.763 402.334 245.714 399.822 245.534L399.824 245.532Z" fill="#E27100"/>
<path d="M401.324 197.692C399.32 197.727 397.462 199.349 397.176 201.32C397.096 201.866 397.137 202.463 397.47 202.907C397.757 203.289 398.218 203.504 398.682 203.625C400.173 204.017 401.789 203.575 403.102 202.768C404.228 202.076 405.255 200.961 405.232 199.645C405.21 198.33 403.669 197.654 401.324 197.692Z" fill="#E27100"/>
<path d="M404.438 225.934C403.257 225.885 402.062 226.255 401.117 226.957C401.2 227.852 401.877 228.609 402.675 229.037C403.474 229.464 404.387 229.616 405.283 229.757C406.32 229.92 407.606 229.971 408.175 229.095C408.612 228.421 408.35 227.471 407.767 226.916C407.183 226.362 406.373 226.011 404.44 225.932L404.438 225.934Z" fill="#E27100"/>
<path d="M319.068 208.933C318.005 208.715 316.92 208.608 315.837 208.615C315.347 209.315 314.833 210.136 315.052 210.959C315.375 212.171 316.955 212.452 318.219 212.496C318.79 212.516 319.359 212.536 319.93 212.556C320.219 212.566 320.515 212.575 320.782 212.464C321.438 212.191 321.605 211.275 321.294 210.64C320.983 210.004 320.481 209.224 319.068 208.933Z" fill="#E27100"/>
<path d="M321.804 233.489C320.735 233.465 319.605 233.576 318.729 234.183C317.853 234.79 317.347 236.029 317.861 236.961C318.42 237.97 319.8 238.149 320.956 238.048C321.853 237.972 322.767 237.788 323.519 237.296C324.271 236.804 324.83 235.948 324.761 235.057C324.692 234.165 323.853 233.342 321.804 233.489Z" fill="#E27100"/>
<path opacity="0.5" d="M362.64 254.116C368.975 254.984 375.164 251.96 380.575 248.577C382.705 247.245 384.81 245.823 386.501 243.973C388.501 241.784 389.837 239.089 391.143 236.432C392.666 233.342 394.194 230.233 395.18 226.935C397.42 219.434 396.609 210.959 392.432 204.324C390.631 201.463 388.267 198.992 385.782 196.69C383.989 195.03 382.111 193.436 379.991 192.214C374.028 188.774 366.788 188.577 359.894 188.468C356.59 188.415 353.201 188.377 350.082 189.46C348.509 190.007 347.047 190.826 345.653 191.732C334.542 198.956 327.749 212.27 328.458 225.436C328.593 227.935 328.985 230.443 329.895 232.777C331.615 237.185 335.05 240.679 338.395 244.042C341.511 247.173 344.775 250.398 348.952 251.871C350.232 252.321 351.567 252.595 352.897 252.868C355.872 253.475 358.939 253.614 362.64 254.12V254.116Z" fill="#C9FF9E"/>
<path d="M271.19 251.495C270.9 246.48 270.74 240.786 272.797 236.321C273.444 234.917 275.105 234.301 276.506 234.934C276.521 234.942 276.537 234.947 276.552 234.955C277.801 235.518 278.45 236.91 278.077 238.236C276.976 242.152 276.55 245.938 277.278 250.073C281.028 250.022 285.134 253.124 285.581 256.869C286.028 260.615 284.843 263.919 281.858 266.258C280.83 267.063 279.034 268.186 276.215 268.558C272.096 269.1 268.804 266.5 266.965 262.448C265.071 258.28 266.427 253.781 271.19 251.495Z" fill="#009039"/>
<path d="M354.645 236.643C354.645 236.643 366.267 244.155 380.433 236.528" stroke="black" stroke-width="6.62867" stroke-miterlimit="10" stroke-linecap="round"/>
<path d="M347.702 213.258L347.632 213.259C346.786 213.279 346.142 213.439 345.58 213.743C345.016 214.048 344.516 214.51 343.972 215.161C343.56 215.655 343.331 216.281 343.12 216.942L347.702 213.258ZM347.702 213.258C348.237 213.268 348.91 213.523 349.539 213.898C350.194 214.287 350.75 214.774 351.01 215.158C353.051 218.173 353.382 222.222 351.859 225.514C351.481 226.331 350.994 227.094 350.304 227.627L350.304 227.628C348.826 228.771 346.528 228.642 344.959 227.546C343.392 226.451 342.508 224.569 342.308 222.659C342.109 220.749 342.524 218.813 343.12 216.942L347.702 213.258Z" fill="black" stroke="black" stroke-width="0.514458"/>
<path d="M386.879 213.258L386.949 213.259C387.795 213.279 388.439 213.438 389 213.742C389.565 214.048 390.065 214.509 390.609 215.161C391.021 215.655 391.25 216.281 391.461 216.942L386.879 213.258ZM386.879 213.258C386.343 213.268 385.671 213.523 385.041 213.897C384.387 214.287 383.831 214.774 383.57 215.158C381.53 218.173 381.199 222.222 382.722 225.514C383.1 226.331 383.587 227.094 384.277 227.627L384.277 227.627C385.754 228.77 388.052 228.642 389.622 227.545C391.189 226.451 392.073 224.568 392.273 222.659C392.472 220.749 392.057 218.813 391.461 216.942L386.879 213.258Z" fill="black" stroke="black" stroke-width="0.514458"/>
<path d="M272.51 306.24H272.67L272.51 306.34V306.24Z" fill="#AEADAE"/>
<path d="M485.59 320.3V315.56L496.99 314.22L485.59 320.3Z" fill="#DABE69"/>
<path d="M485.59 320.3H471.23V314.22L485.59 312.99V320.3Z" fill="#DABE69"/>
<path d="M396.13 376.66L408.54 367.54C408.54 367.54 406.38 346.42 407.27 317.13L396.13 317.87C396.13 317.87 388.86 358.59 396.13 376.66Z" fill="#DABE69"/>
<path d="M380.59 299.01C380.59 299.01 380.07 337.56 381.99 376.65C381.99 376.65 390.34 377.83 396.13 376.65C396.13 376.65 393.13 345.06 396.13 317.86C396.13 317.86 473 312.26 500.25 317.02C500.25 317.02 503.66 369.55 501.61 377.17H515.91L513.85 299C513.85 299 439.73 291.89 380.58 299L380.59 299.01Z" fill="#C4A853"/>
<path d="M515.92 377.18L528.05 367.68C528.05 367.68 526.52 318.57 529.18 307.17C529.18 307.17 581.05 266.43 588.22 263.42C588.22 263.42 586.22 306.71 588.84 320.3L603.46 308.4C603.46 308.4 606.96 283.95 603 230.77C603 230.77 535.28 269.89 513.87 299.01L515.93 377.18H515.92Z" fill="#DABE69"/>
<path d="M485.52 230.78C484.06 230.88 419.49 273.33 380.6 299.02C380.6 299.02 472.96 300.22 515.09 299.02C515.09 299.02 580.31 249.65 603 230.78C603 230.78 526.84 227.97 485.52 230.78Z" fill="#CCB05B"/>
<path d="M588.84 320.3H577.41C577.41 320.3 577.16 290.19 578.79 269.51L590.94 258.94L588.84 320.3Z" fill="#C4A853"/>
</svg>
