<svg width="52" height="52" viewBox="0 0 52 52" fill="none" xmlns="http://www.w3.org/2000/svg">
<rect width="52" height="52" rx="7" fill="#FBF3E8"/>
<path d="M20.0938 31.918C19.125 31.918 18.3867 31.6562 17.8789 31.1328C17.3789 30.6094 17.1289 29.8398 17.1289 28.8242V24.2891C17.1289 23.8125 17.1836 23.3945 17.293 23.0352C17.4102 22.668 17.5781 22.3672 17.7969 22.1328L20.0117 24.3359V28.7539C20.0117 28.9023 20.0508 29.0195 20.1289 29.1055C20.2148 29.1836 20.3359 29.2227 20.4922 29.2227H24.043C24.207 29.2227 24.3477 29.2422 24.4648 29.2812C24.582 29.3203 24.7031 29.3984 24.8281 29.5156L29.1523 33.4883L32.0234 36.3477C31.875 36.6367 31.6602 36.8633 31.3789 37.0273C31.0977 37.1992 30.7812 37.2852 30.4297 37.2852C30.0703 37.2852 29.7422 37.2109 29.4453 37.0625C29.1562 36.9219 28.8398 36.6953 28.4961 36.3828L23.5859 32C23.5234 31.9453 23.4492 31.918 23.3633 31.918H20.0938ZM32.2461 29.0938L29.3633 26.1992V19.8594C29.3633 19.7422 29.3086 19.6836 29.1992 19.6836C29.168 19.6836 29.1367 19.6914 29.1055 19.707C29.0742 19.7148 29.0469 19.7344 29.0234 19.7656L25.8359 22.6602L23.9492 20.7734L28.4727 16.7539C28.8477 16.4258 29.1797 16.1875 29.4688 16.0391C29.7578 15.8828 30.0742 15.8047 30.418 15.8047C30.9414 15.8047 31.3789 15.9883 31.7305 16.3555C32.082 16.7148 32.2578 17.1562 32.2578 17.6797L32.2461 29.0938ZM36.3125 38.2578L15.043 17.0234C14.8555 16.8359 14.7617 16.6055 14.7617 16.332C14.7617 16.0508 14.8555 15.8164 15.043 15.6289C15.2383 15.4336 15.4727 15.3359 15.7461 15.3359C16.0195 15.3359 16.2539 15.4336 16.4492 15.6289L37.6953 36.8633C37.8906 37.0586 37.9883 37.2891 37.9883 37.5547C37.9883 37.8281 37.8906 38.0625 37.6953 38.2578C37.5156 38.4531 37.2852 38.5469 37.0039 38.5391C36.7305 38.5391 36.5 38.4453 36.3125 38.2578Z" fill="#09276A"/>
</svg>
