<svg width="209" height="224" viewBox="0 0 209 224" fill="none" xmlns="http://www.w3.org/2000/svg">
<path d="M92.8401 199.53C93.3501 199.99 93.8901 200.49 94.0001 201.11C94.1101 201.72 93.7901 202.32 93.4801 202.88C90.8701 207.52 88.3201 212.44 88.7101 217.57C88.9201 220.37 90.6401 223.56 93.9101 223.94C95.7601 224.15 97.5601 223.38 99.1401 222.54C103.99 219.97 108.25 216.48 110.85 212.16C113.45 207.84 114.26 202.66 112.44 198.07C111.82 196.5 110.82 194.94 109.13 194.13C107.44 193.32 104.93 193.56 103.97 195C97.95 190.26 93.7901 184 91.2001 177.39C88.6101 170.78 87.5101 163.82 86.9801 156.87C82.9401 156.79 78.8901 156.71 74.8401 156.63C70.4701 156.55 76.7201 176.12 77.8901 178.82C81.2001 186.47 86.2701 193.58 92.8401 199.54V199.53Z" fill="#85A3E6"/>
<path d="M148.48 197.93C148.99 198.39 149.53 198.89 149.64 199.51C149.75 200.12 149.43 200.72 149.12 201.28C146.51 205.92 143.96 210.84 144.35 215.97C144.56 218.77 146.28 221.96 149.55 222.34C151.4 222.55 153.2 221.78 154.78 220.94C159.63 218.37 163.89 214.88 166.49 210.56C169.09 206.24 169.9 201.06 168.08 196.47C167.46 194.9 166.46 193.34 164.77 192.53C163.08 191.72 160.57 191.96 159.61 193.4C153.59 188.66 149.43 182.4 146.84 175.79C144.25 169.18 143.15 162.22 142.62 155.27C138.58 155.19 134.53 155.11 130.48 155.03C126.11 154.95 132.36 174.52 133.53 177.22C136.84 184.87 141.91 191.98 148.48 197.94V197.93Z" fill="#85A3E6"/>
<path d="M103.84 1.12989C84.49 -1.13011 65.59 6.74989 49.07 15.5599C42.57 19.0299 36.13 22.7299 30.97 27.5499C24.86 33.2499 20.79 40.2699 16.79 47.1899C12.14 55.2399 7.46999 63.3399 4.46999 71.9299C-2.37001 91.4699 0.110007 113.54 12.86 130.82C18.36 138.27 25.58 144.71 33.17 150.7C38.65 155.03 44.38 159.18 50.86 162.36C69.07 171.32 91.18 171.83 112.24 172.12C122.34 172.26 132.68 172.36 142.21 169.54C147.01 168.12 151.48 165.98 155.74 163.62C189.67 144.81 210.42 110.13 208.25 75.8399C207.84 69.3299 206.64 62.7999 203.86 56.7199C198.61 45.2399 188.12 36.1399 177.9 27.3799C168.39 19.2299 158.41 10.8199 145.66 6.98989C141.75 5.81989 137.67 5.09989 133.61 4.39989C124.52 2.81989 115.16 2.44989 103.85 1.12989H103.84Z" fill="#9DBBFE"/>
<path d="M97.55 11.4899C66.32 12.8699 36.7101 29.7299 23.4401 53.6999C17.7801 63.9199 14.96 75.1799 14.48 86.4599C14.15 94.4199 14.9801 102.46 17.5201 110.13C21.6701 122.63 30.45 134 42.31 142.23C60.14 154.61 83.99 159.46 107.04 159.18C116.1 159.07 130.62 156.15 138.56 152.73C144.13 150.34 149.12 146.91 154.36 144.02C158.72 141.61 162.36 138.4 165.95 135.22C171.03 130.7 176.17 126.08 179.45 120.5C182.32 115.63 183.65 110.22 184.88 104.88C186.87 96.1799 188.66 87.3599 188.23 78.5099C187 53.6299 167.5 30.8799 141.76 18.8099C130.6 13.5799 117.94 10.5899 97.55 11.4899Z" fill="#BDD1FF"/>
<path d="M81.1501 66.2002C81.5101 67.1202 80.56 68.1102 79.48 68.9902C79.06 69.3402 78.6001 69.6802 78.0001 69.9802C77.2901 70.3302 76.4001 70.5902 75.5301 70.8502C74.5101 71.1502 73.4901 71.4502 72.3901 71.6702C69.9001 72.1802 67.0601 72.2602 64.8001 71.8002C63.8201 71.6002 62.9701 71.3102 62.1801 71.0002C61.6101 70.7702 61.0501 70.5302 60.6201 70.2502C59.4101 69.4502 59.26 68.3802 59.16 67.3602C59.11 66.8702 59.0601 66.3702 59.3901 65.8802C59.5601 65.6302 59.82 65.4002 60.1 65.1702C62.4 63.3502 66.7801 62.0302 71.2001 61.8202C72.0401 61.7802 72.8801 61.7802 73.6701 61.8602C75.1601 62.0102 76.3701 62.4402 77.5301 62.8502C78.6101 63.2402 79.7201 63.6402 80.2601 64.2302C80.4201 64.4102 80.5301 64.6002 80.6301 64.7902C80.8601 65.2202 80.9401 65.6702 81.1501 66.2002Z" fill="#708ED1"/>
<path d="M106.98 66.98C106.62 67.9 107.57 68.89 108.65 69.77C109.07 70.12 109.53 70.46 110.13 70.76C110.84 71.11 111.73 71.37 112.6 71.63C113.62 71.93 114.64 72.23 115.74 72.45C118.23 72.96 121.07 73.04 123.33 72.58C124.31 72.38 125.16 72.09 125.95 71.78C126.52 71.55 127.08 71.31 127.51 71.03C128.72 70.23 128.87 69.16 128.97 68.14C129.02 67.65 129.07 67.15 128.74 66.66C128.57 66.41 128.31 66.18 128.03 65.95C125.73 64.13 121.35 62.81 116.93 62.6C116.09 62.56 115.25 62.56 114.46 62.64C112.97 62.79 111.76 63.22 110.6 63.63C109.52 64.02 108.41 64.42 107.87 65.01C107.71 65.19 107.6 65.38 107.5 65.57C107.27 66 107.19 66.45 106.98 66.98Z" fill="#708ED1"/>
<path d="M78 90.1655C78 90.1655 91.5199 107.738 108 89.8965" stroke="#708ED1" stroke-width="6" stroke-miterlimit="10" stroke-linecap="round"/>
</svg>
