<svg width="194" height="231" viewBox="0 0 194 231" fill="none" xmlns="http://www.w3.org/2000/svg">
<path d="M114.506 206.3C113.996 206.76 113.456 207.26 113.346 207.88C113.236 208.49 113.556 209.09 113.866 209.65C116.476 214.29 119.026 219.21 118.636 224.34C118.426 227.14 116.706 230.33 113.436 230.71C111.586 230.92 109.786 230.15 108.206 229.31C103.356 226.74 99.096 223.25 96.496 218.93C93.896 214.61 93.086 209.43 94.906 204.84C95.526 203.27 96.526 201.71 98.216 200.9C99.906 200.09 102.416 200.33 103.376 201.77C109.396 197.03 113.556 190.77 116.146 184.16C118.736 177.55 119.836 170.59 120.366 163.64C124.406 163.56 128.456 163.48 132.506 163.4C136.876 163.32 130.626 182.89 129.456 185.59C126.146 193.24 121.076 200.35 114.506 206.31V206.3Z" fill="#85A3E6"/>
<path d="M58.8659 206.3C58.3559 206.76 57.8159 207.26 57.7059 207.88C57.5959 208.49 57.9159 209.09 58.2259 209.65C60.8359 214.29 63.3859 219.21 62.9959 224.34C62.7859 227.14 61.0659 230.33 57.7959 230.71C55.9459 230.92 54.1459 230.15 52.5659 229.31C47.7159 226.74 43.4559 223.25 40.8559 218.93C38.2559 214.61 37.4458 209.43 39.2658 204.84C39.8858 203.27 40.8859 201.71 42.5759 200.9C44.2659 200.09 46.7758 200.33 47.7358 201.77C53.7558 197.03 57.9159 190.77 60.5059 184.16C63.0959 177.55 64.1959 170.59 64.7259 163.64C68.7659 163.56 72.8159 163.48 76.8659 163.4C81.2359 163.32 74.9858 182.89 73.8158 185.59C70.5058 193.24 65.4359 200.35 58.8659 206.31V206.3Z" fill="#85A3E6"/>
<path d="M189.886 149.49C91.5759 223.74 17.9859 161.82 2.59588 146.86C0.655878 144.98 -0.264121 142.3 0.0658789 139.62C0.965879 132.21 2.38589 125.05 4.24589 118.15C21.1659 54.9097 73.8959 13.4197 90.6159 1.57969C93.6559 -0.580313 97.7559 -0.520313 100.736 1.72969C147.116 36.6297 172.246 84.7297 184.496 115.58C188.776 126.35 191.486 135.01 192.986 140.29C193.956 143.7 192.716 147.36 189.886 149.49Z" fill="#9DBBFE"/>
<path d="M175.556 141.19C92.3558 204.02 30.0858 151.62 17.0558 138.96C15.4158 137.37 14.6358 135.1 14.9158 132.83C15.6758 126.56 16.8758 120.5 18.4558 114.66C32.7758 61.1397 77.3958 26.0297 91.5458 16.0097C94.1158 14.1797 97.5858 14.2297 100.106 16.1397C139.356 45.6697 160.626 86.3797 170.986 112.49C174.606 121.6 176.906 128.93 178.166 133.4C178.986 136.29 177.936 139.38 175.546 141.19H175.556Z" fill="#BDD1FF"/>
<path d="M65.186 80.1098C64.516 80.1598 64.056 80.8698 63.706 81.5998C63.566 81.8898 63.436 82.1998 63.366 82.5598C63.286 82.9898 63.296 83.4898 63.306 83.9798C63.316 84.5498 63.336 85.1198 63.416 85.7098C63.596 87.0398 64.126 88.4498 64.896 89.4298C65.226 89.8598 65.596 90.1998 65.966 90.5098C66.236 90.7298 66.506 90.9398 66.776 91.0798C67.546 91.4698 68.276 91.2798 68.966 91.0798C69.296 90.9898 69.636 90.8898 69.886 90.6098C70.016 90.4698 70.116 90.2798 70.206 90.0898C70.926 88.5298 70.886 86.0698 70.116 83.8798C69.966 83.4598 69.796 83.0498 69.586 82.6898C69.176 81.9998 68.656 81.5198 68.146 81.0598C67.666 80.6298 67.176 80.1898 66.686 80.0698C66.536 80.0298 66.386 80.0298 66.246 80.0298C65.916 80.0298 65.606 80.0898 65.216 80.1198L65.186 80.1098Z" fill="#708ED1"/>
<path d="M133.966 76.5498C134.646 76.5298 135.166 77.1698 135.606 77.8698C135.776 78.1398 135.946 78.4298 136.056 78.7898C136.186 79.2098 136.226 79.6998 136.276 80.1898C136.326 80.7598 136.376 81.3298 136.366 81.9198C136.336 83.2598 135.966 84.7198 135.316 85.7798C135.036 86.2398 134.706 86.6198 134.376 86.9698C134.136 87.2198 133.896 87.4598 133.636 87.6298C132.916 88.1098 132.166 87.9998 131.456 87.8798C131.116 87.8198 130.766 87.7598 130.486 87.5098C130.346 87.3798 130.226 87.2098 130.116 87.0298C129.226 85.5598 128.986 83.1098 129.506 80.8398C129.606 80.4098 129.726 79.9798 129.906 79.5998C130.236 78.8698 130.696 78.3298 131.156 77.8198C131.576 77.3398 132.026 76.8498 132.496 76.6698C132.646 76.6198 132.786 76.5998 132.936 76.5798C133.256 76.5298 133.576 76.5798 133.976 76.5598L133.966 76.5498Z" fill="#708ED1"/>
<path d="M83 103.031C83 103.031 101.026 111.817 123 102.896" stroke="#708ED1" stroke-width="6" stroke-miterlimit="10" stroke-linecap="round"/>
</svg>
