<svg width="532" height="32" viewBox="0 0 532 32" fill="none" xmlns="http://www.w3.org/2000/svg">
<path d="M8.208 28.784C8.208 28.976 7.104 29.072 4.896 29.072C2.712 29.072 1.62 28.988 1.62 28.82V11.144C1.62 10.976 2.712 10.892 4.896 10.892C7.104 10.892 8.208 10.964 8.208 11.108V28.784ZM8.208 8.984C8.208 9.152 7.104 9.236 4.896 9.236C2.712 9.236 1.62 9.164 1.62 9.02V3.836C1.62 3.596 2.712 3.476 4.896 3.476C7.104 3.476 8.208 3.548 8.208 3.692V8.984Z" fill="#09276A"/>
<path d="M140.812 29.072C138.724 29.072 137.596 28.736 137.428 28.064L136.24 23.42H130.516L129.472 27.884C129.328 28.628 128.176 29 126.016 29C124.864 29 124.012 28.94 123.46 28.82C122.908 28.676 122.632 28.568 122.632 28.496L129.004 4.124C129.004 3.932 130.648 3.836 133.936 3.836C137.224 3.836 138.868 3.932 138.868 4.124L145.096 28.532C145.096 28.7 144.544 28.832 143.44 28.928C142.336 29.024 141.46 29.072 140.812 29.072ZM131.416 18.848H135.196L133.576 11.396H133.36L131.416 18.848ZM165.158 10.316C165.158 12.812 164.078 14.708 161.918 16.004C163.094 16.436 164.078 17.18 164.87 18.236C165.662 19.292 166.058 20.792 166.058 22.736C166.058 24.656 165.338 26.18 163.898 27.308C162.482 28.436 160.442 29 157.778 29H149.282C148.874 29 148.538 28.868 148.274 28.604C148.01 28.316 147.878 27.944 147.878 27.488V4.448C147.878 4.184 147.914 4.016 147.986 3.944C148.082 3.848 148.262 3.8 148.526 3.8H156.734C162.35 3.8 165.158 5.972 165.158 10.316ZM154.79 9.632V14.348H154.97C157.274 14.348 158.426 13.58 158.426 12.044C158.426 11.204 158.198 10.592 157.742 10.208C157.31 9.824 156.578 9.632 155.546 9.632H154.79ZM154.79 18.596V23.276H155.438C156.47 23.276 157.226 23.084 157.706 22.7C158.186 22.316 158.426 21.704 158.426 20.864C158.426 20.024 158.198 19.436 157.742 19.1C157.31 18.764 156.578 18.596 155.546 18.596H154.79ZM179.549 29.36C176.189 29.36 173.441 28.256 171.305 26.048C169.193 23.84 168.137 20.624 168.137 16.4C168.137 12.152 169.205 8.936 171.341 6.752C173.501 4.568 176.273 3.476 179.657 3.476C183.065 3.476 185.813 4.556 187.901 6.716C189.989 8.852 191.033 12.104 191.033 16.472C191.033 20.816 189.965 24.056 187.829 26.192C185.693 28.304 182.933 29.36 179.549 29.36ZM179.585 10.388C178.433 10.388 177.461 10.916 176.669 11.972C175.901 13.028 175.517 14.516 175.517 16.436C175.517 18.332 175.889 19.796 176.633 20.828C177.377 21.836 178.349 22.34 179.549 22.34C180.773 22.34 181.757 21.824 182.501 20.792C183.269 19.76 183.653 18.284 183.653 16.364C183.653 14.444 183.257 12.968 182.465 11.936C181.697 10.904 180.737 10.388 179.585 10.388ZM205.695 4.52C205.695 4.04 206.991 3.8 209.583 3.8C212.199 3.8 213.507 4.04 213.507 4.52V21.044C213.507 23.492 212.631 25.496 210.879 27.056C209.127 28.592 206.703 29.36 203.607 29.36C200.535 29.36 198.027 28.568 196.083 26.984C194.163 25.376 193.203 23.216 193.203 20.504V4.556C193.203 4.076 194.499 3.836 197.091 3.836C199.707 3.836 201.015 4.076 201.015 4.556V20.792C201.015 21.272 201.267 21.656 201.771 21.944C202.299 22.232 202.851 22.376 203.427 22.376C204.003 22.376 204.519 22.244 204.975 21.98C205.455 21.716 205.695 21.32 205.695 20.792V4.52ZM227.365 28.424C227.365 28.904 226.177 29.144 223.801 29.144C221.425 29.144 220.237 28.904 220.237 28.424V10.352H215.917C215.509 10.352 215.221 9.8 215.053 8.696C214.981 8.168 214.945 7.628 214.945 7.076C214.945 6.524 214.981 5.984 215.053 5.456C215.221 4.352 215.509 3.8 215.917 3.8H231.577C231.985 3.8 232.273 4.352 232.441 5.456C232.513 5.984 232.549 6.524 232.549 7.076C232.549 7.628 232.513 8.168 232.441 8.696C232.273 9.8 231.985 10.352 231.577 10.352H227.365V28.424ZM252.22 28.424C252.22 28.904 251.032 29.144 248.656 29.144C246.28 29.144 245.092 28.904 245.092 28.424V10.352H240.772C240.364 10.352 240.076 9.8 239.908 8.696C239.836 8.168 239.8 7.628 239.8 7.076C239.8 6.524 239.836 5.984 239.908 5.456C240.076 4.352 240.364 3.8 240.772 3.8H256.432C256.84 3.8 257.128 4.352 257.296 5.456C257.368 5.984 257.404 6.524 257.404 7.076C257.404 7.628 257.368 8.168 257.296 8.696C257.128 9.8 256.84 10.352 256.432 10.352H252.22V28.424ZM279.038 28.388C279.038 28.796 277.826 29 275.402 29C272.978 29 271.766 28.796 271.766 28.388V20.108H266.726V28.388C266.726 28.796 265.514 29 263.09 29C260.666 29 259.454 28.796 259.454 28.388V4.52C259.454 4.016 260.666 3.764 263.09 3.764C265.514 3.764 266.726 4.016 266.726 4.52V12.98H271.766V4.592C271.766 4.256 272.366 4.016 273.566 3.872C274.19 3.824 274.802 3.8 275.402 3.8L277.238 3.872C278.438 4.016 279.038 4.256 279.038 4.592V28.388ZM294.322 13.808C294.778 13.808 295.006 14.648 295.006 16.328C295.006 16.832 294.946 17.432 294.826 18.128C294.73 18.8 294.538 19.136 294.25 19.136H289.678V22.736H296.302C296.71 22.736 296.986 23.264 297.13 24.32C297.202 24.776 297.238 25.268 297.238 25.796C297.238 26.3 297.166 26.96 297.022 27.776C296.878 28.592 296.638 29 296.302 29H283.99C283.078 29 282.622 28.628 282.622 27.884V4.736C282.622 4.112 282.898 3.8 283.45 3.8H296.338C296.842 3.8 297.094 4.868 297.094 7.004C297.094 9.116 296.842 10.172 296.338 10.172H289.678V13.808H294.322ZM308.097 20.216C308.553 20.576 309.333 21.068 310.437 21.692C311.565 22.316 312.633 22.628 313.641 22.628C314.673 22.628 315.189 22.232 315.189 21.44C315.189 21.08 315.045 20.768 314.757 20.504C314.469 20.216 313.941 19.892 313.173 19.532C312.405 19.172 311.829 18.896 311.445 18.704C311.061 18.488 310.545 18.152 309.897 17.696C309.273 17.216 308.793 16.724 308.457 16.22C307.497 14.852 307.017 13.112 307.017 11C307.017 8.888 307.797 7.112 309.357 5.672C310.941 4.208 313.005 3.476 315.549 3.476C317.277 3.476 318.873 3.668 320.337 4.052C321.801 4.412 322.557 4.892 322.605 5.492C322.605 5.564 322.605 5.636 322.605 5.708C322.605 6.548 322.341 7.616 321.813 8.912C321.285 10.184 320.913 10.892 320.697 11.036C319.161 10.244 317.781 9.848 316.557 9.848C315.357 9.848 314.757 10.28 314.757 11.144C314.757 11.672 315.201 12.14 316.089 12.548C316.281 12.644 316.557 12.776 316.917 12.944C317.277 13.112 317.685 13.316 318.141 13.556C318.621 13.772 319.125 14.06 319.653 14.42C320.205 14.756 320.793 15.212 321.417 15.788C322.689 16.988 323.325 18.572 323.325 20.54C323.325 23.108 322.617 25.208 321.201 26.84C319.785 28.472 317.601 29.312 314.649 29.36C313.209 29.36 311.901 29.24 310.725 29C309.573 28.76 308.565 28.292 307.701 27.596C306.837 26.9 306.405 26.06 306.405 25.076C306.405 24.092 306.585 23.12 306.945 22.16C307.305 21.176 307.689 20.528 308.097 20.216ZM329.418 29.072C327.234 29.072 326.142 28.832 326.142 28.352V5.024C326.142 4.208 326.514 3.8 327.258 3.8H333.594C337.146 3.8 339.702 4.532 341.262 5.996C342.846 7.46 343.638 9.584 343.638 12.368C343.638 14.672 342.894 16.784 341.406 18.704C340.662 19.664 339.57 20.432 338.13 21.008C336.69 21.584 335.01 21.872 333.09 21.872V28.316C333.09 28.604 332.634 28.808 331.722 28.928C330.834 29.024 330.066 29.072 329.418 29.072ZM333.09 10.064V15.752H333.558C334.398 15.752 335.106 15.488 335.682 14.96C336.258 14.432 336.546 13.688 336.546 12.728C336.546 11.768 336.342 11.084 335.934 10.676C335.55 10.268 334.854 10.064 333.846 10.064H333.09ZM358.518 13.808C358.974 13.808 359.202 14.648 359.202 16.328C359.202 16.832 359.142 17.432 359.022 18.128C358.926 18.8 358.734 19.136 358.446 19.136H353.874V22.736H360.498C360.906 22.736 361.182 23.264 361.326 24.32C361.398 24.776 361.434 25.268 361.434 25.796C361.434 26.3 361.362 26.96 361.218 27.776C361.074 28.592 360.834 29 360.498 29H348.186C347.274 29 346.818 28.628 346.818 27.884V4.736C346.818 4.112 347.094 3.8 347.646 3.8H360.534C361.038 3.8 361.29 4.868 361.29 7.004C361.29 9.116 361.038 10.172 360.534 10.172H353.874V13.808H358.518ZM374.867 3.476C376.619 3.476 378.155 3.728 379.475 4.232C380.819 4.712 381.491 5.372 381.491 6.212C381.491 7.052 381.167 8.096 380.519 9.344C379.895 10.568 379.367 11.18 378.935 11.18C378.815 11.18 378.671 11.12 378.503 11C378.359 10.856 377.999 10.712 377.423 10.568C376.871 10.4 376.391 10.316 375.983 10.316C374.591 10.316 373.463 10.808 372.599 11.792C371.759 12.776 371.339 14.288 371.339 16.328C371.339 18.344 371.771 19.844 372.635 20.828C373.523 21.812 374.639 22.304 375.983 22.304C376.535 22.304 377.147 22.232 377.819 22.088C378.515 21.92 379.007 21.692 379.295 21.404C379.343 21.356 379.439 21.332 379.583 21.332C379.727 21.332 379.991 21.608 380.375 22.16C380.783 22.688 381.155 23.396 381.491 24.284C381.827 25.148 381.995 25.82 381.995 26.3C381.995 27.236 381.275 27.98 379.835 28.532C378.395 29.084 376.691 29.36 374.723 29.36C371.555 29.36 368.951 28.244 366.911 26.012C364.871 23.78 363.851 20.636 363.851 16.58C363.851 12.5 364.895 9.296 366.983 6.968C369.095 4.64 371.723 3.476 374.867 3.476ZM387.127 22.808V9.992H384.571C384.163 9.992 383.875 9.476 383.707 8.444C383.635 7.94 383.599 7.424 383.599 6.896C383.599 6.368 383.635 5.852 383.707 5.348C383.875 4.316 384.163 3.8 384.571 3.8H396.667C397.075 3.8 397.351 4.316 397.495 5.348C397.591 5.852 397.639 6.368 397.639 6.896C397.639 7.424 397.591 7.94 397.495 8.444C397.351 9.476 397.075 9.992 396.667 9.992H394.255V22.808H396.775C397.183 22.808 397.471 23.324 397.639 24.356C397.735 24.86 397.783 25.376 397.783 25.904C397.783 26.432 397.735 26.948 397.639 27.452C397.471 28.484 397.183 29 396.775 29H384.643C384.235 29 383.959 28.484 383.815 27.452C383.719 26.948 383.671 26.432 383.671 25.904C383.671 25.376 383.719 24.86 383.815 24.356C383.959 23.324 384.235 22.808 384.643 22.808H387.127ZM417.105 29.072C415.017 29.072 413.889 28.736 413.721 28.064L412.533 23.42H406.809L405.765 27.884C405.621 28.628 404.469 29 402.309 29C401.157 29 400.305 28.94 399.753 28.82C399.201 28.676 398.925 28.568 398.925 28.496L405.297 4.124C405.297 3.932 406.941 3.836 410.229 3.836C413.517 3.836 415.161 3.932 415.161 4.124L421.389 28.532C421.389 28.7 420.837 28.832 419.733 28.928C418.629 29.024 417.753 29.072 417.105 29.072ZM407.709 18.848H411.489L409.869 11.396H409.653L407.709 18.848ZM423.415 26.876V4.484C423.415 3.98 424.627 3.728 427.051 3.728C429.499 3.728 430.723 3.98 430.723 4.484V22.124H436.267C436.699 22.124 436.999 22.688 437.167 23.816C437.239 24.368 437.275 24.932 437.275 25.508C437.275 26.084 437.239 26.672 437.167 27.272C436.975 28.424 436.663 29 436.231 29H425.143C424.615 29 424.195 28.784 423.883 28.352C423.571 27.92 423.415 27.428 423.415 26.876ZM453.404 28.496C453.404 28.856 452.276 29.036 450.02 29.036L448.004 28.928C446.804 28.832 446.204 28.664 446.204 28.424V4.268C446.204 3.86 447.404 3.656 449.804 3.656C452.204 3.656 453.404 3.86 453.404 4.268V13.484L457.796 4.268C457.964 3.932 458.924 3.764 460.676 3.764C463.868 3.764 465.548 4.04 465.716 4.592C465.716 4.64 465.704 4.688 465.68 4.736L459.416 16.04L466.688 26.084C466.688 26.132 466.46 26.336 466.004 26.696C464.9 27.656 463.604 28.412 462.116 28.964C461.66 29.132 461.204 29.216 460.748 29.216L459.884 29.144C459.116 28.952 458.516 28.46 458.084 27.668L453.98 19.82H453.404V28.496ZM470.905 22.808V9.992H468.349C467.941 9.992 467.653 9.476 467.485 8.444C467.413 7.94 467.377 7.424 467.377 6.896C467.377 6.368 467.413 5.852 467.485 5.348C467.653 4.316 467.941 3.8 468.349 3.8H480.445C480.853 3.8 481.129 4.316 481.273 5.348C481.369 5.852 481.417 6.368 481.417 6.896C481.417 7.424 481.369 7.94 481.273 8.444C481.129 9.476 480.853 9.992 480.445 9.992H478.033V22.808H480.553C480.961 22.808 481.249 23.324 481.417 24.356C481.513 24.86 481.561 25.376 481.561 25.904C481.561 26.432 481.513 26.948 481.417 27.452C481.249 28.484 480.961 29 480.553 29H468.421C468.013 29 467.737 28.484 467.593 27.452C467.497 26.948 467.449 26.432 467.449 25.904C467.449 25.376 467.497 24.86 467.593 24.356C467.737 23.324 468.013 22.808 468.421 22.808H470.905ZM482.918 4.16C482.846 3.896 484.058 3.764 486.554 3.764C489.314 3.764 490.73 3.992 490.802 4.448L492.566 19.604L496.382 4.268C496.502 3.908 497.438 3.728 499.19 3.728C500.942 3.728 501.878 3.896 501.998 4.232L505.742 19.676L507.83 4.376C507.878 4.112 508.43 3.932 509.486 3.836C510.542 3.74 511.394 3.692 512.042 3.692C514.562 3.692 515.786 3.86 515.714 4.196L511.358 28.064C511.262 28.424 510.578 28.688 509.306 28.856C508.034 29.024 507.002 29.108 506.21 29.108C503.234 29.108 501.674 28.772 501.53 28.1L499.082 18.2L496.418 28.064C496.322 28.496 495.482 28.808 493.898 29C493.082 29.072 492.266 29.108 491.45 29.108L489.146 29C487.562 28.832 486.722 28.532 486.626 28.1L482.918 4.16ZM520.651 22.808V9.992H518.095C517.687 9.992 517.399 9.476 517.231 8.444C517.159 7.94 517.123 7.424 517.123 6.896C517.123 6.368 517.159 5.852 517.231 5.348C517.399 4.316 517.687 3.8 518.095 3.8H530.191C530.599 3.8 530.875 4.316 531.019 5.348C531.115 5.852 531.163 6.368 531.163 6.896C531.163 7.424 531.115 7.94 531.019 8.444C530.875 9.476 530.599 9.992 530.191 9.992H527.779V22.808H530.299C530.707 22.808 530.995 23.324 531.163 24.356C531.259 24.86 531.307 25.376 531.307 25.904C531.307 26.432 531.259 26.948 531.163 27.452C530.995 28.484 530.707 29 530.299 29H518.167C517.759 29 517.483 28.484 517.339 27.452C517.243 26.948 517.195 26.432 517.195 25.904C517.195 25.376 517.243 24.86 517.339 24.356C517.483 23.324 517.759 22.808 518.167 22.808H520.651Z" fill="#09276A"/>
</svg>
