<svg width="176" height="223" viewBox="0 0 176 223" fill="none" xmlns="http://www.w3.org/2000/svg">
<path d="M46.14 197.87C43.02 194.21 39.03 191.3 34.6 189.45C32.97 188.77 31.17 188.22 29.45 188.62C27.43 189.09 25.87 190.83 25.2 192.8C24.53 194.77 24.65 196.92 25.06 198.95C25.76 202.43 27.29 205.7 29.1 208.76C31.05 212.06 33.35 215.2 36.27 217.68C39.19 220.16 42.78 221.96 46.6 222.34C47.54 222.43 48.55 222.42 49.36 221.93C50.29 221.36 50.75 220.27 51.12 219.25C52.63 215.05 53.58 210.68 54.52 206.32C54.76 205.22 54.99 204.13 55.23 203.03C55.36 202.41 55.5 201.78 55.63 201.16C57.72 191.47 59.81 181.77 61.9 172.08C62.25 170.44 62.61 168.73 62.23 167.09C61.18 162.58 54.3 158.86 52.89 164.95C51.32 171.72 51.05 178.81 49.49 185.62C49 187.76 48.47 189.88 47.89 192C47.68 192.75 45.8 197.48 46.15 197.89L46.14 197.87Z" fill="#85A3E6"/>
<path d="M117.21 197.87C120.33 194.21 124.32 191.3 128.75 189.45C130.38 188.77 132.18 188.22 133.9 188.62C135.92 189.09 137.48 190.83 138.15 192.8C138.82 194.77 138.7 196.92 138.29 198.95C137.59 202.43 136.06 205.7 134.25 208.76C132.3 212.06 130 215.2 127.08 217.68C124.16 220.16 120.57 221.96 116.75 222.34C115.81 222.43 114.8 222.42 113.99 221.93C113.06 221.36 112.6 220.27 112.23 219.25C110.72 215.05 109.77 210.68 108.83 206.32C108.59 205.22 108.36 204.13 108.12 203.03C107.99 202.41 107.85 201.78 107.72 201.16C105.63 191.47 103.54 181.77 101.45 172.08C101.1 170.44 100.74 168.73 101.12 167.09C102.17 162.58 109.05 158.86 110.46 164.95C112.03 171.72 112.3 178.81 113.86 185.62C114.35 187.76 114.88 189.88 115.46 192C115.67 192.75 117.55 197.48 117.2 197.89L117.21 197.87Z" fill="#85A3E6"/>
<path d="M94.3 9.22988C94.3 9.22988 61.85 -12.4101 27.59 13.2899C-6.66995 38.9899 -6.21996 103.88 13.62 144C33.46 184.12 83.88 172.73 83.88 172.73C83.88 172.73 111.88 182.31 127.21 170.14C142.54 157.97 169.58 134.1 174.54 86.9899C179.5 39.8799 154.71 -8.80012 94.31 9.22988H94.3Z" fill="#9DBBFE"/>
<path d="M93.49 18.7601C93.49 18.7601 64.94 -0.27989 34.8 22.3301C4.65998 44.9301 5.05998 102.04 22.51 137.34C39.96 172.64 84.33 162.62 84.33 162.62C84.33 162.62 108.97 171.05 122.45 160.34C135.93 149.63 159.73 128.63 164.09 87.1801C168.45 45.7301 146.64 2.9001 93.5 18.7601H93.49Z" fill="#BDD1FF"/>
<path d="M83.97 61.49C83.46 61.8 82.79 61.16 82.17 60.42C81.93 60.13 81.68 59.82 81.45 59.39C81.18 58.89 80.94 58.25 80.71 57.63C80.44 56.9 80.17 56.17 79.94 55.38C79.41 53.59 79.11 51.51 79.17 49.83C79.2 49.1 79.29 48.47 79.41 47.87C79.49 47.44 79.58 47.02 79.71 46.69C80.07 45.76 80.69 45.6 81.28 45.46C81.56 45.4 81.86 45.33 82.17 45.55C82.33 45.66 82.49 45.83 82.65 46.03C83.93 47.61 85.11 50.75 85.64 53.97C85.74 54.58 85.82 55.2 85.84 55.78C85.89 56.88 85.74 57.79 85.6 58.66C85.47 59.47 85.33 60.31 85.03 60.73C84.94 60.86 84.84 60.95 84.73 61.03C84.5 61.23 84.24 61.31 83.94 61.49H83.97Z" fill="#708ED1"/>
<path d="M115.75 61.49C115.24 61.8 114.57 61.16 113.95 60.42C113.71 60.13 113.46 59.82 113.23 59.39C112.96 58.89 112.72 58.25 112.49 57.63C112.22 56.9 111.95 56.17 111.72 55.38C111.19 53.59 110.89 51.51 110.95 49.83C110.98 49.1 111.07 48.47 111.19 47.87C111.27 47.44 111.36 47.02 111.49 46.69C111.85 45.76 112.47 45.6 113.06 45.46C113.34 45.4 113.64 45.33 113.95 45.55C114.11 45.66 114.27 45.83 114.43 46.03C115.71 47.61 116.89 50.75 117.42 53.97C117.52 54.58 117.6 55.2 117.62 55.78C117.67 56.88 117.52 57.79 117.38 58.66C117.25 59.47 117.11 60.31 116.81 60.73C116.72 60.86 116.62 60.95 116.51 61.03C116.28 61.23 116.02 61.31 115.72 61.49H115.75Z" fill="#708ED1"/>
<path d="M86 80.1345C86 80.1345 99.5199 88.9209 116 80" stroke="#708ED1" stroke-width="6" stroke-miterlimit="10" stroke-linecap="round"/>
</svg>
