<svg width="56" height="361" viewBox="0 0 56 361" fill="none" xmlns="http://www.w3.org/2000/svg">
<mask id="path-1-outside-1_203_538" maskUnits="userSpaceOnUse" x="0" y="0" width="56" height="361" fill="black">
<rect fill="white" width="56" height="361"/>
<path fill-rule="evenodd" clip-rule="evenodd" d="M7 28C7 16.402 16.402 7 28 7C39.598 7 49 16.402 49 28V82V115L49 246L49 287V333C49 344.598 39.598 354 28 354C16.402 354 7 344.598 7 333V287V115V82V28Z"/>
</mask>
<path fill-rule="evenodd" clip-rule="evenodd" d="M7 28C7 16.402 16.402 7 28 7C39.598 7 49 16.402 49 28V82V115L49 246L49 287V333C49 344.598 39.598 354 28 354C16.402 354 7 344.598 7 333V287V115V82V28Z" fill="#E27100"/>
<path d="M49 115L42 115L42 115L49 115ZM49 246L56 246L56 246L49 246ZM49 287L42 287V287H49ZM28 0C12.536 0 0 12.536 0 28H14C14 20.268 20.268 14 28 14V0ZM56 28C56 12.536 43.464 0 28 0V14C35.732 14 42 20.268 42 28H56ZM56 82V28H42V82H56ZM56 115V82H42V115H56ZM56 246L56 115L42 115L42 246L56 246ZM42 246L42 287L56 287L56 246L42 246ZM42 287V333H56V287H42ZM42 333C42 340.732 35.732 347 28 347V361C43.464 361 56 348.464 56 333H42ZM28 347C20.268 347 14 340.732 14 333H0C0 348.464 12.536 361 28 361V347ZM14 333V287H0V333H14ZM0 115V287H14V115H0ZM0 82V115H14V82H0ZM0 28V82H14V28H0Z" fill="white" mask="url(#path-1-outside-1_203_538)"/>
<rect x="7" y="61" width="42" height="226" fill="#00CB39"/>
<path d="M7 28C7 16.402 16.402 7 28 7V7C39.598 7 49 16.402 49 28V128H7V28Z" fill="#FC2B2B"/>
<path d="M49 333C49 344.598 39.598 354 28 354V354C16.402 354 6.99999 344.598 6.99999 333L7 233L49 233L49 333Z" fill="#E27100"/>
</svg>
