<svg width="309" height="270" viewBox="0 0 309 270" fill="none" xmlns="http://www.w3.org/2000/svg">
<path d="M274.701 163.742C274.484 163.937 274.254 164.15 274.207 164.414C274.161 164.673 274.297 164.928 274.429 165.166C275.539 167.14 276.623 169.232 276.457 171.414C276.368 172.605 275.637 173.962 274.246 174.123C273.459 174.213 272.693 173.885 272.021 173.528C269.959 172.435 268.147 170.951 267.041 169.113C265.935 167.276 265.591 165.073 266.365 163.121C266.628 162.453 267.054 161.789 267.772 161.445C268.491 161.1 269.559 161.202 269.967 161.815C272.527 159.799 274.297 157.136 275.398 154.325C276.5 151.514 276.968 148.554 277.193 145.598C278.911 145.564 280.634 145.53 282.356 145.496C284.215 145.462 281.557 153.785 281.059 154.933C279.651 158.187 277.495 161.211 274.701 163.746V163.742Z" fill="#FACF38"/>
<path d="M251.036 163.742C250.819 163.937 250.59 164.15 250.543 164.414C250.496 164.673 250.632 164.928 250.764 165.166C251.874 167.14 252.959 169.232 252.793 171.414C252.703 172.605 251.972 173.962 250.581 174.123C249.794 174.213 249.029 173.885 248.357 173.528C246.294 172.435 244.482 170.951 243.376 169.113C242.271 167.276 241.926 165.073 242.7 163.121C242.964 162.453 243.389 161.789 244.108 161.445C244.827 161.1 245.894 161.202 246.303 161.815C248.863 159.799 250.632 157.136 251.734 154.325C252.835 151.514 253.303 148.554 253.529 145.598C255.247 145.564 256.969 145.53 258.692 145.496C260.55 145.462 257.892 153.785 257.395 154.933C255.987 158.187 253.831 161.211 251.036 163.746V163.742Z" fill="#FACF38"/>
<path d="M306.761 139.58C264.948 171.159 233.65 144.824 227.104 138.461C226.279 137.662 225.888 136.522 226.028 135.382C226.411 132.23 227.015 129.185 227.806 126.25C235.002 99.3537 257.429 81.7075 264.54 76.6719C265.833 75.7532 267.577 75.7787 268.844 76.7357C288.57 91.579 299.258 112.037 304.468 125.157C306.289 129.738 307.441 133.421 308.079 135.667C308.492 137.117 307.964 138.674 306.761 139.58Z" fill="#FACF38"/>
<path d="M300.666 136.049C265.28 162.772 238.796 140.485 233.254 135.101C232.556 134.425 232.225 133.459 232.344 132.494C232.667 129.827 233.177 127.25 233.849 124.766C239.94 102.003 258.917 87.0706 264.935 82.8089C266.028 82.0306 267.504 82.0519 268.576 82.8642C285.269 95.4237 294.316 112.738 298.722 123.843C300.262 127.718 301.24 130.835 301.776 132.736C302.124 133.965 301.678 135.28 300.661 136.049H300.666Z" fill="#FFE074"/>
<path d="M268.831 115.588C266.998 115.558 265.237 116.098 263.706 116.673C263.102 116.898 262.507 117.14 262.035 117.438C261.473 117.787 261.112 118.204 260.755 118.612C260.342 119.088 259.925 119.565 259.666 120.062C259.079 121.189 259.381 122.414 260.636 123.32C261.176 123.712 261.877 124.035 262.613 124.332C263.145 124.545 263.698 124.749 264.319 124.898C266.063 125.306 268.151 125.226 270.141 125.132C271.094 125.09 272.072 125.043 272.961 124.834C273.412 124.732 273.824 124.588 274.22 124.435C277.367 123.21 279.222 121.16 278.911 119.25C278.852 118.889 278.72 118.527 278.439 118.2C277.907 117.583 276.891 117.128 275.9 116.685C274.977 116.277 274.012 115.856 272.795 115.707C272.421 115.66 272.034 115.643 271.651 115.622C270.788 115.58 269.903 115.605 268.831 115.588Z" fill="#FFF6D3"/>
<path d="M253.725 110.072C253.44 110.093 253.244 110.395 253.095 110.705C253.036 110.829 252.98 110.961 252.951 111.114C252.917 111.297 252.921 111.509 252.925 111.718C252.929 111.96 252.938 112.202 252.972 112.453C253.049 113.019 253.274 113.619 253.601 114.036C253.742 114.218 253.899 114.363 254.057 114.495C254.171 114.588 254.286 114.678 254.401 114.737C254.729 114.903 255.039 114.822 255.332 114.737C255.473 114.699 255.617 114.656 255.724 114.537C255.779 114.478 255.822 114.397 255.86 114.316C256.166 113.653 256.149 112.606 255.822 111.675C255.758 111.496 255.685 111.322 255.596 111.169C255.422 110.875 255.201 110.671 254.984 110.476C254.78 110.293 254.571 110.106 254.363 110.055C254.299 110.038 254.235 110.038 254.176 110.038C254.035 110.038 253.903 110.063 253.738 110.076L253.725 110.072Z" fill="#D2AA1A"/>
<path d="M282.977 108.557C283.266 108.549 283.488 108.821 283.675 109.119C283.747 109.234 283.819 109.357 283.866 109.51C283.921 109.689 283.938 109.897 283.96 110.105C283.981 110.348 284.002 110.59 283.998 110.841C283.985 111.411 283.828 112.032 283.551 112.483C283.432 112.679 283.292 112.84 283.152 112.989C283.049 113.095 282.947 113.197 282.837 113.27C282.531 113.474 282.212 113.427 281.91 113.376C281.765 113.351 281.616 113.325 281.497 113.219C281.438 113.163 281.387 113.091 281.34 113.015C280.961 112.389 280.859 111.347 281.08 110.382C281.123 110.199 281.174 110.016 281.25 109.855C281.391 109.544 281.586 109.314 281.782 109.097C281.961 108.893 282.152 108.685 282.352 108.608C282.416 108.587 282.475 108.579 282.539 108.57C282.675 108.549 282.811 108.57 282.981 108.562L282.977 108.557Z" fill="#D2AA1A"/>
<path d="M37.4471 101.548C37.5528 101.801 37.6625 102.074 37.5965 102.317C37.5321 102.556 37.314 102.718 37.1064 102.867C35.3713 104.098 33.61 105.441 32.8752 107.361C32.4731 108.408 32.55 109.855 33.6666 110.55C34.2992 110.942 35.081 110.971 35.7953 110.937C37.9864 110.836 40.1214 110.303 41.7983 109.186C43.4752 108.069 44.6521 106.335 44.7781 104.366C44.8221 103.693 44.7271 102.959 44.2547 102.377C43.7824 101.796 42.8345 101.455 42.2418 101.811C40.8758 99.0707 40.4414 96.0987 40.634 93.2682C40.8266 90.4378 41.6173 87.7352 42.6122 85.1336C41.1661 84.415 39.7165 83.6947 38.2668 82.9745C36.7015 82.1996 35.6189 90.3375 35.5808 91.5128C35.4708 94.8419 36.0889 98.2764 37.4453 101.551L37.4471 101.548Z" fill="#FACF38"/>
<path d="M57.8235 110.468C57.9293 110.721 58.039 110.994 57.9729 111.237C57.9085 111.476 57.6905 111.638 57.4829 111.787C55.7478 113.018 53.9865 114.361 53.2517 116.281C52.8496 117.328 52.9265 118.775 54.0431 119.47C54.6757 119.862 55.4575 119.891 56.1718 119.857C58.3629 119.756 60.4979 119.223 62.1748 118.106C63.8517 116.989 65.0286 115.255 65.1546 113.286C65.1986 112.613 65.1036 111.879 64.6312 111.297C64.1589 110.716 63.211 110.374 62.6183 110.731C61.2523 107.991 60.8179 105.019 61.0105 102.188C61.2031 99.3577 61.9937 96.6551 62.9887 94.0535C61.5426 93.3349 60.0929 92.6147 58.6432 91.8944C57.0779 91.1195 55.9954 99.2574 55.9572 100.433C55.8473 103.762 56.4654 107.196 57.8218 110.471L57.8235 110.468Z" fill="#FACF38"/>
<path d="M75.29 31.7398C68.6843 27.62 60.5102 27.2408 53.0373 27.6039C50.0964 27.748 47.1378 27.9855 44.4506 28.8462C41.2699 29.8627 38.601 31.7044 35.9744 33.5218C32.9201 35.6366 29.85 37.7661 27.2996 40.3577C21.4925 46.2502 18.621 54.6478 20.278 63.0679C20.9934 66.6986 22.5028 70.258 24.2226 73.718C25.4635 76.218 26.8254 78.6956 28.6238 80.9508C33.6739 87.2969 41.5755 91.2555 49.1354 94.9555C52.7608 96.7302 56.4797 98.5315 60.4045 99.1394C62.3812 99.4458 64.3616 99.4356 66.3037 99.3101C81.7743 98.3059 95.1918 89.3177 100.261 76.5577C101.225 74.1355 101.906 71.5712 101.939 68.8999C102.002 63.8557 99.7653 58.777 97.568 53.8672C95.5232 49.299 93.3529 44.5566 89.3999 40.9962C88.1869 39.906 86.8356 38.9494 85.4882 38.0034C82.4735 35.8807 79.1547 34.1492 75.2936 31.7415L75.29 31.7398Z" fill="#FACF38"/>
<path d="M71.2492 34.4097C59.7297 29.577 46.1529 30.6141 37.2664 37.0096C33.4766 39.736 30.5355 43.3231 28.4365 47.3168C26.9584 50.1365 25.8858 53.1832 25.4942 56.3881C24.8598 61.613 26.0912 67.22 28.9715 72.2183C33.3004 79.7352 41.0898 85.559 49.466 89.3927C52.7583 90.8995 58.5031 92.3232 61.9558 92.4429C64.3763 92.5302 66.7648 92.1428 69.1515 91.9931C71.1383 91.8666 73.0014 91.3282 74.8414 90.792C77.4485 90.0261 80.0944 89.2342 82.2321 87.778C84.1004 86.5083 85.5045 84.7806 86.8605 83.0612C89.0647 80.2574 91.2171 77.3762 92.5725 74.1051C96.3754 64.9056 93.2133 53.3568 85.9735 44.6016C82.834 40.8068 78.7701 37.5653 71.2492 34.4097Z" fill="#FFE074"/>
<path d="M51.019 73.4197C56.4018 76.0866 61.0223 70.4512 63.2213 67.013C64.0349 65.74 63.9978 64.1534 63.1287 63.5793C60.5616 61.8847 55.0319 58.724 49.8259 58.9383C48.8972 58.9769 47.9121 59.9302 47.5495 61.1466C46.5729 64.411 45.5531 70.7135 51.0173 73.4233" fill="#FFF6D3"/>
<path d="M55.9841 51.3776C55.9571 51.7714 55.4449 51.967 54.9044 52.1005C54.6929 52.1553 54.4687 52.1996 54.2007 52.2056C53.8844 52.2109 53.5185 52.1529 53.1597 52.0983C52.74 52.0326 52.3202 51.9668 51.8852 51.8585C50.8985 51.6177 49.8587 51.1618 49.1206 50.6098C48.8007 50.3703 48.543 50.1204 48.3105 49.8735C48.1438 49.6931 47.9825 49.5108 47.8749 49.3362C47.5743 48.8406 47.7027 48.4284 47.8407 48.0428C47.9063 47.8572 47.9736 47.668 48.1765 47.5473C48.2806 47.486 48.4138 47.4473 48.5542 47.412C49.6959 47.147 51.5039 47.4178 53.1367 48.0964C53.4471 48.2254 53.7506 48.3688 54.0223 48.5325C54.5351 48.8411 54.8989 49.203 55.248 49.5492C55.5717 49.8745 55.9045 50.2085 55.9988 50.5138C56.0259 50.6062 56.0332 50.6936 56.0369 50.7793C56.0466 50.974 55.9987 51.1502 55.9841 51.3776Z" fill="#D2AA1A"/>
<path d="M65.1836 56.0687C64.8964 56.3396 65.0707 56.8595 65.3107 57.3619C65.4027 57.56 65.5109 57.7614 65.6764 57.9722C65.8732 58.2199 66.1504 58.4657 66.4204 58.7082C66.7377 58.9907 67.055 59.2732 67.4149 59.5405C68.2275 60.1498 69.24 60.6636 70.1351 60.8832C70.5234 60.9782 70.88 61.0185 71.2183 61.0414C71.4636 61.0556 71.7069 61.0645 71.91 61.0367C72.4838 60.9542 72.7206 60.5932 72.9309 60.2417C73.0326 60.0732 73.136 59.9011 73.1004 59.6677C73.0817 59.5484 73.027 59.4209 72.9651 59.29C72.4448 58.2397 71.0875 57.0151 69.5264 56.1847C69.2297 56.0268 68.9262 55.8834 68.6271 55.7775C68.0631 55.5773 67.5525 55.5261 67.0634 55.4762C66.6066 55.4328 66.1373 55.3878 65.8414 55.5088C65.7529 55.5465 65.6807 55.5964 65.6121 55.648C65.4556 55.7641 65.3499 55.913 65.1836 56.0687Z" fill="#D2AA1A"/>
<path d="M66.721 212.853C65.5252 211.032 63.899 209.497 62.0101 208.414C61.3171 208.016 60.538 207.667 59.7453 207.748C58.8076 207.844 58.0104 208.541 57.5982 209.388C57.186 210.235 57.118 211.209 57.186 212.147C57.3038 213.75 57.8066 215.304 58.4453 216.781C59.1338 218.375 59.9899 219.915 61.1631 221.197C62.3363 222.479 63.8447 223.489 65.5388 223.874C65.9555 223.969 66.4085 224.024 66.8026 223.847C67.2555 223.643 67.5228 223.181 67.7447 222.742C68.6643 220.939 69.3347 219.027 70.0051 217.12C70.1727 216.64 70.3403 216.165 70.5079 215.684C70.603 215.413 70.6981 215.141 70.7932 214.869C72.2835 210.629 73.7693 206.394 75.2595 202.154C75.5132 201.434 75.7669 200.687 75.6899 199.93C75.4724 197.842 72.5915 195.781 71.6131 198.44C70.526 201.393 70.0005 204.564 68.9134 207.54C68.5737 208.473 68.2113 209.397 67.8308 210.317C67.6949 210.643 66.5806 212.663 66.7165 212.862L66.721 212.853Z" fill="#FACF38"/>
<path d="M98.6646 216.88C100.273 215.413 102.229 214.33 104.331 213.75C105.101 213.537 105.939 213.392 106.691 213.669C107.575 213.995 108.177 214.869 108.367 215.789C108.557 216.708 108.381 217.673 108.082 218.561C107.57 220.087 106.696 221.464 105.713 222.737C104.653 224.11 103.439 225.392 101.985 226.338C100.531 227.285 98.8186 227.892 97.0792 227.847C96.6489 227.833 96.1959 227.774 95.8653 227.507C95.4802 227.199 95.3353 226.683 95.2266 226.202C94.7826 224.232 94.606 222.212 94.4339 220.196C94.3886 219.689 94.3478 219.186 94.3025 218.679C94.2753 218.389 94.2527 218.103 94.2255 217.813C93.8359 213.338 93.4464 208.863 93.0568 204.387C92.9889 203.631 92.93 202.843 93.1927 202.127C93.922 200.157 97.2242 198.875 97.5095 201.692C97.8312 204.822 97.5503 208.025 97.8628 211.177C97.9625 212.165 98.0803 213.152 98.2207 214.135C98.2705 214.484 98.8458 216.717 98.6691 216.88H98.6646Z" fill="#FACF38"/>
<path d="M121.114 175.959C121.114 196.148 104.748 212.514 84.5593 212.514C64.3704 212.514 48 196.148 48 175.959C48 161.803 56.0448 149.528 67.8084 143.454C67.8084 143.454 67.8447 143.436 67.9171 143.39C68.9952 142.797 77.7647 137.85 82.2038 131.282C86.9419 124.279 101.577 126.2 105.541 134.607C109.246 142.466 108.517 145.542 114.541 155.041C114.954 155.697 115.402 156.39 115.891 157.12C115.896 157.12 115.896 157.124 115.896 157.124C119.207 162.623 121.11 169.065 121.11 175.954L121.114 175.959Z" fill="#FACF38"/>
<path d="M115.221 174.958C115.221 191.89 101.496 205.615 84.5635 205.615C67.6314 205.615 53.9019 191.89 53.9019 174.958C53.9019 163.086 60.6466 152.789 70.5168 147.694C70.5168 147.694 70.5485 147.675 70.6074 147.644C71.5134 147.145 78.8651 142.996 82.5885 137.488C86.5611 131.618 98.8366 133.226 102.161 140.278C105.269 146.869 104.657 149.447 109.708 157.419C110.052 157.971 110.433 158.551 110.84 159.163C113.617 163.774 115.216 169.178 115.216 174.953L115.221 174.958Z" fill="#FFE074"/>
<path d="M84.4189 160.508C80.7091 159.996 77.0853 161.781 73.919 163.778C72.6734 164.562 71.4368 165.404 70.4493 166.496C69.2761 167.787 68.497 169.377 67.7315 170.944C66.8391 172.77 65.9467 174.6 65.3669 176.548C64.0533 180.973 64.5289 185.974 66.975 189.888C68.0304 191.577 69.412 193.031 70.8705 194.39C71.9214 195.369 73.0221 196.311 74.2633 197.031C77.7557 199.06 81.9955 199.178 86.0315 199.241C87.9657 199.273 89.9497 199.296 91.7752 198.657C92.6947 198.335 93.5508 197.851 94.3707 197.316C100.875 193.054 104.852 185.199 104.44 177.435C104.363 175.959 104.132 174.482 103.598 173.105C102.592 170.505 100.581 168.444 98.6195 166.46C96.7941 164.612 94.8825 162.709 92.4365 161.84C91.6891 161.572 90.9055 161.414 90.1263 161.251C88.3824 160.893 86.5886 160.811 84.4189 160.512V160.508Z" fill="#FFF6D3"/>
<path d="M76.7452 150.738C77.1031 150.638 77.479 150.851 77.8142 151.095C77.9456 151.19 78.0769 151.295 78.1857 151.435C78.317 151.598 78.4076 151.807 78.5027 152.015C78.6115 152.255 78.7202 152.495 78.7972 152.753C78.9738 153.342 78.9829 154.022 78.7881 154.57C78.7021 154.805 78.5843 155.014 78.4574 155.208C78.3669 155.349 78.2672 155.485 78.154 155.593C77.8324 155.897 77.4201 155.947 77.0215 155.987C76.8313 156.006 76.6365 156.028 76.4508 155.956C76.3557 155.919 76.2651 155.861 76.179 155.797C75.4905 155.272 75.0149 154.244 74.9696 153.193C74.9605 152.993 74.9696 152.789 75.0058 152.599C75.0738 152.241 75.2504 151.947 75.4225 151.662C75.5811 151.399 75.7487 151.123 75.9797 150.987C76.0522 150.946 76.1246 150.919 76.2016 150.887C76.3692 150.824 76.5459 150.801 76.7543 150.742L76.7452 150.738Z" fill="#D2AA1A"/>
<path d="M99.7705 153.406C100.142 153.401 100.454 153.7 100.717 154.017C100.821 154.144 100.921 154.275 100.994 154.438C101.08 154.629 101.116 154.855 101.157 155.077C101.202 155.335 101.247 155.598 101.256 155.865C101.283 156.477 101.12 157.138 100.794 157.623C100.654 157.831 100.486 158.003 100.314 158.162C100.192 158.275 100.06 158.384 99.9245 158.456C99.5395 158.669 99.1228 158.615 98.7287 158.556C98.5384 158.529 98.3482 158.497 98.1851 158.384C98.1036 158.325 98.0311 158.248 97.9632 158.162C97.4287 157.482 97.2203 156.368 97.4422 155.335C97.483 155.14 97.5419 154.946 97.6234 154.769C97.782 154.438 98.022 154.198 98.2576 153.963C98.475 153.745 98.706 153.523 98.9642 153.446C99.0412 153.424 99.1228 153.415 99.2043 153.406C99.381 153.387 99.5576 153.406 99.775 153.406H99.7705Z" fill="#D2AA1A"/>
<path d="M134.011 112.056C133.129 109.516 131.642 107.19 129.71 105.327C128.999 104.642 128.174 103.99 127.197 103.849C126.049 103.684 124.883 104.273 124.134 105.163C123.385 106.053 123.011 107.197 122.812 108.338C122.47 110.292 122.603 112.306 122.924 114.267C123.27 116.382 123.83 118.484 124.847 120.369C125.865 122.254 127.369 123.92 129.281 124.894C129.752 125.132 130.281 125.332 130.802 125.241C131.402 125.133 131.863 124.659 132.263 124.202C133.902 122.322 135.284 120.239 136.659 118.159C137.008 117.634 137.349 117.113 137.697 116.589C137.891 116.293 138.092 115.993 138.285 115.697C141.342 111.074 144.4 106.447 147.456 101.824C147.972 101.041 148.506 100.224 148.642 99.2923C149.011 96.7301 146.183 93.3955 144.212 96.281C142.019 99.4882 140.439 103.126 138.243 106.356C137.553 107.371 136.847 108.368 136.114 109.354C135.853 109.702 133.913 111.784 134.012 112.068L134.011 112.056Z" fill="#FACF38"/>
<path d="M171.025 126.488C173.393 125.216 176.062 124.51 178.745 124.447C179.732 124.423 180.782 124.502 181.596 125.06C182.553 125.715 183.012 126.938 182.961 128.1C182.91 129.262 182.411 130.358 181.785 131.332C180.714 133.002 179.253 134.394 177.689 135.621C176.003 136.943 174.167 138.112 172.143 138.81C170.118 139.509 167.883 139.717 165.816 139.14C165.308 138.996 164.784 138.785 164.462 138.366C164.093 137.88 164.075 137.219 164.09 136.612C164.156 134.118 164.549 131.649 164.945 129.188C165.043 128.566 165.145 127.952 165.243 127.33C165.301 126.981 165.356 126.624 165.414 126.275C166.294 120.804 167.175 115.327 168.054 109.856C168.205 108.931 168.365 107.967 168.896 107.19C170.358 105.054 174.697 104.514 174.195 107.972C173.638 111.817 172.338 115.564 171.768 119.428C171.589 120.642 171.434 121.854 171.306 123.076C171.263 123.509 171.281 126.354 171.016 126.497L171.025 126.488Z" fill="#FACF38"/>
<path d="M197.402 23.5874C197.402 23.5874 184.895 5.72694 161.833 12.1549C138.77 18.5828 125.827 52.4706 128.013 77.3952C130.199 102.32 158.772 106.627 158.772 106.627C158.772 106.627 171.41 117.302 181.865 114.077C192.321 110.851 211.252 103.91 223.402 80.3815C235.552 56.8526 232.526 26.4646 197.407 23.5894L197.402 23.5874Z" fill="#FACF38"/>
<path d="M195.044 28.3865C195.044 28.3865 184.041 12.6722 163.752 18.3274C143.465 23.9775 132.075 53.8031 133.995 75.7319C135.915 97.6607 161.059 101.452 161.059 101.452C161.059 101.452 172.18 110.847 181.376 108.006C190.572 105.166 207.232 99.0613 217.92 78.3585C228.608 57.6556 225.947 30.9196 195.049 28.3885L195.044 28.3865Z" fill="#FFE074"/>
<path d="M178.323 55.605C182.63 56.8225 191.467 59.734 196.885 64.4267C197.854 65.2664 198.049 66.7046 197.334 67.7697C195.422 70.6121 190.79 75.352 182.442 72.2172C174.094 69.0823 174.353 61.6472 175.102 57.6191C175.376 56.1301 176.864 55.1921 178.323 55.605Z" fill="#FFF6D3"/>
<path d="M181.408 48.708C181.08 48.7659 180.861 48.2965 180.688 47.7852C180.622 47.5854 180.555 47.3732 180.522 47.1025C180.483 46.7873 180.488 46.4052 180.494 46.0356C180.502 45.6006 180.51 45.1655 180.55 44.7074C180.638 43.6675 180.904 42.5232 181.276 41.6604C181.44 41.2863 181.615 40.9765 181.799 40.6883C181.928 40.4806 182.06 40.2802 182.195 40.1347C182.571 39.7234 182.927 39.766 183.263 39.8129C183.421 39.8385 183.591 39.863 183.708 40.0405C183.769 40.1303 183.818 40.2513 183.86 40.388C184.206 41.4708 184.183 43.3459 183.805 45.1305C183.733 45.4686 183.649 45.8077 183.542 46.1138C183.344 46.6969 183.082 47.1404 182.832 47.5651C182.6 47.9606 182.356 48.3696 182.115 48.5275C182.041 48.5769 181.971 48.6035 181.898 48.6228C181.737 48.6802 181.585 48.6691 181.393 48.7019L181.408 48.708Z" fill="#D2AA1A"/>
<path d="M197.961 55.1616C197.632 55.2195 197.413 54.7501 197.24 54.2388C197.174 54.039 197.107 53.8268 197.075 53.5562C197.035 53.2409 197.04 52.8588 197.047 52.4892C197.054 52.0542 197.062 51.6192 197.102 51.161C197.19 50.1211 197.456 48.9768 197.828 48.114C197.992 47.7399 198.167 47.4301 198.351 47.142C198.48 46.9343 198.613 46.7338 198.747 46.5883C199.124 46.177 199.479 46.2196 199.815 46.2665C199.973 46.2921 200.143 46.3166 200.26 46.4941C200.321 46.5839 200.37 46.7049 200.413 46.8416C200.758 47.9244 200.735 49.7995 200.357 51.5842C200.286 51.9222 200.201 52.2613 200.094 52.5675C199.897 53.1505 199.634 53.594 199.384 54.0187C199.152 54.4142 198.909 54.8232 198.667 54.9811C198.594 55.0305 198.523 55.0571 198.45 55.0764C198.289 55.1339 198.138 55.1227 197.945 55.1555L197.961 55.1616Z" fill="#D2AA1A"/>
<path d="M213.454 229.091C216.483 231.473 218.923 234.217 220.929 237.619C222.457 236.916 224.364 236.59 226.021 236.841C227.679 237.092 229.214 238.769 228.656 240.351C228.479 240.853 228.125 241.271 227.761 241.662C226.199 243.34 224.33 244.736 222.276 245.758C220.806 246.489 219.085 247.032 217.55 246.473C216.427 246.064 215.547 245.056 215.294 243.89C215.041 242.724 215.42 241.436 216.27 240.586C214.549 237.734 212.498 235.082 210.173 232.694C209.258 231.756 209.276 230.245 210.213 229.315C210.226 229.302 210.238 229.29 210.251 229.277C211.122 228.418 212.498 228.337 213.454 229.088L213.454 229.091Z" fill="#FACF38"/>
<path d="M192.227 238.218C195.099 240.787 197.36 243.68 199.146 247.202C200.715 246.598 202.639 246.393 204.277 246.749C205.917 247.104 207.341 248.875 206.685 250.419C206.476 250.909 206.096 251.303 205.709 251.67C204.043 253.246 202.09 254.521 199.974 255.41C198.462 256.047 196.71 256.48 195.213 255.824C194.118 255.345 193.303 254.283 193.125 253.104C192.946 251.924 193.407 250.663 194.309 249.869C192.772 246.913 190.893 244.136 188.724 241.606C187.871 240.611 187.984 239.105 188.978 238.236C188.992 238.224 189.005 238.212 189.019 238.2C189.942 237.398 191.321 237.405 192.227 238.215L192.227 238.218Z" fill="#FACF38"/>
<path d="M227.962 201.443C227.006 198.819 225.835 195.876 223.803 194.049C223.164 193.474 222.18 193.526 221.605 194.157C221.599 194.164 221.592 194.17 221.586 194.178C221.072 194.74 221.047 195.594 221.529 196.188C222.952 197.945 224.002 199.784 224.541 202.056C222.615 202.855 221.201 205.341 221.796 207.352C222.392 209.362 223.724 210.789 225.762 211.326C226.464 211.511 227.628 211.689 229.15 211.259C231.372 210.63 232.481 208.579 232.529 206.106C232.579 203.561 230.897 201.562 227.963 201.443L227.962 201.443Z" fill="#FACF38"/>
<path d="M172.158 158.215C163.969 158.986 157.104 164.585 151.32 170.409C149.044 172.701 146.821 175.099 145.245 177.913C143.381 181.241 142.5 185.007 141.64 188.717C140.641 193.034 139.636 197.376 139.369 201.796C138.762 211.847 142.26 222.224 149.436 229.31C152.529 232.367 156.215 234.768 160.001 236.923C162.733 238.478 165.552 239.924 168.566 240.834C177.041 243.394 186.167 241.521 194.835 239.638C198.991 238.735 203.244 237.791 206.835 235.52C208.644 234.374 210.237 232.919 211.716 231.376C223.515 219.073 228.122 200.407 223.375 184.126C222.475 181.034 221.25 178.008 219.426 175.352C215.98 170.336 210.656 166.965 205.479 163.735C200.661 160.728 195.626 157.642 189.962 157.022C188.227 156.833 186.475 156.882 184.729 156.931C180.824 157.042 176.944 157.766 172.158 158.216L172.158 158.215Z" fill="#FACF38"/>
<path d="M174.078 163.602C161.425 167.263 151.181 178.21 148.433 191.01C147.261 196.466 147.371 202.154 148.446 207.623C149.206 211.484 150.45 215.269 152.357 218.715C155.464 224.329 160.343 228.953 166.134 231.774C174.838 236.015 185.163 236.061 194.587 233.715C198.292 232.793 203.915 229.994 206.786 227.592C208.802 225.905 210.462 223.779 212.284 221.888C213.801 220.313 214.934 218.42 216.047 216.541C217.624 213.881 219.21 211.166 219.929 208.166C220.557 205.546 220.496 202.821 220.397 200.132C220.236 195.758 219.978 191.346 218.804 187.13C215.502 175.282 204.945 166.212 193.032 162.881C187.867 161.437 182.339 161.213 174.08 163.602L174.078 163.602Z" fill="#FFE074"/>
<path d="M182.005 170.713C181.334 171.127 180.964 171.926 180.937 172.709C180.91 173.493 181.189 174.259 181.581 174.938C182.001 175.666 182.591 176.341 183.381 176.636C184.17 176.932 185.183 176.749 185.658 176.052C185.895 175.704 185.977 175.276 186.021 174.859C186.136 173.753 186.002 172.586 185.413 171.644C184.823 170.701 183.568 169.75 182.005 170.712L182.005 170.713Z" fill="#FACF38"/>
<path d="M167.706 184.098C167.064 184.746 167.102 185.869 167.639 186.603C168.176 187.336 169.097 187.714 170.007 187.805C170.39 187.843 170.797 187.832 171.132 187.641C171.637 187.352 171.851 186.705 171.757 186.136C171.663 185.567 171.316 185.07 170.917 184.651C170.012 183.701 168.651 183.146 167.707 184.099L167.706 184.098Z" fill="#FACF38"/>
<path d="M178.276 218.326C176.874 218.628 175.777 219.985 175.785 221.409C175.789 222.066 176.075 222.792 176.692 223.027C177.382 223.291 178.133 222.84 178.695 222.36C179.387 221.768 180.032 221.056 180.261 220.179C180.49 219.302 180.142 217.925 178.275 218.327L178.276 218.326Z" fill="#FACF38"/>
<path d="M189.647 221.681C188.555 222.43 188.32 224.199 189.174 225.24C189.32 225.419 189.499 225.58 189.71 225.665C190.107 225.824 190.572 225.686 190.888 225.4C191.204 225.114 191.388 224.704 191.497 224.285C191.67 223.611 191.664 222.887 191.479 222.212C191.398 221.915 191.273 221.614 191.039 221.42C190.803 221.226 190.416 221.152 189.646 221.68L189.647 221.681Z" fill="#FACF38"/>
<path d="M202.957 217.123C202.738 218.736 204.073 220.387 205.705 220.519C205.964 220.54 206.245 220.52 206.451 220.363C206.706 220.168 206.776 219.818 206.784 219.499C206.822 217.699 205.173 216.042 202.957 217.123Z" fill="#FACF38"/>
<path d="M197.241 173.125C196.626 173.706 195.982 174.335 195.798 175.156C195.614 175.976 196.14 177.003 196.986 177.009C197.297 177.011 197.597 176.877 197.854 176.702C198.67 176.147 199.143 175.129 199.037 174.154C198.994 173.764 198.852 173.362 198.542 173.119C198.232 172.876 197.646 172.743 197.241 173.125Z" fill="#FACF38"/>
<path d="M212.732 206.492C212.326 206.64 211.877 206.656 211.483 206.837C211.089 207.018 210.757 207.467 210.925 207.862C210.977 207.985 211.072 208.086 211.17 208.178C212.25 209.196 213.978 209.462 215.323 208.819C215.498 208.736 215.673 208.631 215.781 208.47C215.998 208.141 215.861 207.692 215.631 207.371C215.106 206.639 214.114 206.272 212.731 206.493L212.732 206.492Z" fill="#FACF38"/>
<path d="M207.486 180.406C206.406 180.679 205.605 181.792 205.7 182.895C205.726 183.201 205.824 183.519 206.06 183.717C206.264 183.887 206.541 183.946 206.807 183.953C207.664 183.976 208.483 183.532 209.091 182.929C209.613 182.412 210.028 181.678 209.849 180.969C209.67 180.259 208.751 180.089 207.486 180.406Z" fill="#FACF38"/>
<path d="M212.748 195.299C212.103 195.422 211.502 195.774 211.08 196.273C211.238 196.748 211.7 197.071 212.187 197.202C212.673 197.332 213.187 197.298 213.69 197.261C214.271 197.218 214.974 197.083 215.171 196.537C215.323 196.117 215.06 195.636 214.674 195.409C214.288 195.183 213.805 195.096 212.749 195.298L212.748 195.299Z" fill="#FACF38"/>
<path d="M164.385 196.907C163.782 196.924 163.181 197.003 162.595 197.144C162.419 197.585 162.244 198.094 162.467 198.512C162.796 199.128 163.686 199.079 164.376 198.943C164.688 198.882 164.998 198.821 165.31 198.759C165.467 198.728 165.629 198.695 165.759 198.601C166.08 198.371 166.054 197.854 165.805 197.549C165.557 197.245 165.186 196.886 164.385 196.907Z" fill="#FACF38"/>
<path d="M168.976 209.853C168.394 209.975 167.796 210.178 167.399 210.618C167.002 211.057 166.885 211.792 167.281 212.231C167.711 212.707 168.481 212.629 169.094 212.428C169.57 212.273 170.042 212.058 170.386 211.696C170.731 211.334 170.925 210.801 170.775 210.327C170.625 209.853 170.066 209.514 168.976 209.853Z" fill="#FACF38"/>
<path d="M193.692 215.847C197.231 215.514 200.198 213.094 202.698 210.577C203.683 209.587 204.642 208.551 205.324 207.335C206.129 205.897 206.51 204.269 206.881 202.665C207.314 200.8 207.748 198.923 207.864 197.013C208.126 192.669 206.614 188.185 203.513 185.122C202.176 183.802 200.584 182.763 198.947 181.832C197.766 181.16 196.548 180.536 195.245 180.142C191.582 179.036 187.638 179.845 183.893 180.659C182.097 181.049 180.258 181.458 178.707 182.439C177.924 182.934 177.237 183.563 176.597 184.23C171.497 189.547 169.506 197.614 171.558 204.651C171.947 205.987 172.477 207.294 173.265 208.443C174.754 210.611 177.056 212.067 179.292 213.464C181.375 214.764 183.551 216.097 185.998 216.365C186.748 216.447 187.506 216.426 188.26 216.405C189.947 216.357 191.625 216.044 193.693 215.849L193.692 215.847Z" fill="#FFF6D3"/>
<path d="M143.858 226.009C143.066 223.331 142.258 220.269 142.806 217.591C142.978 216.749 143.8 216.206 144.638 216.371C144.647 216.373 144.656 216.374 144.666 216.376C145.413 216.523 145.941 217.195 145.907 217.959C145.807 220.219 146.055 222.322 146.973 224.468C148.996 223.965 151.612 225.124 152.328 227.095C153.044 229.066 152.821 231.005 151.502 232.649C151.047 233.215 150.217 234.05 148.738 234.609C146.578 235.423 144.466 234.433 142.958 232.473C141.405 230.456 141.569 227.849 143.858 226.009Z" fill="#FACF38"/>
<path d="M187.151 207.401C187.151 207.401 194.393 209.996 201.096 204.073" stroke="#D2AA1A" stroke-width="3.16973" stroke-miterlimit="10" stroke-linecap="round"/>
<path d="M180.427 195.603L180.389 195.613C179.931 195.731 179.6 195.9 179.332 196.138C179.062 196.378 178.849 196.693 178.636 197.116C178.474 197.439 178.429 197.811 178.398 198.195L180.427 195.603ZM180.427 195.603C180.724 195.539 181.124 195.593 181.514 195.717C181.919 195.845 182.285 196.04 182.477 196.217C183.968 197.596 184.663 199.753 184.254 201.734C184.152 202.226 183.984 202.704 183.676 203.084L183.676 203.084C183.014 203.898 181.744 204.119 180.749 203.722C179.755 203.326 179.035 202.413 178.684 201.401C178.333 200.388 178.313 199.285 178.398 198.195L180.427 195.603Z" fill="#D2AA1A" stroke="#D2AA1A" stroke-width="0.246006"/>
<path d="M201.634 190.641L201.672 190.633C202.135 190.536 202.507 190.541 202.853 190.635C203.201 190.73 203.532 190.918 203.91 191.203C204.199 191.421 204.404 191.734 204.602 192.064L201.634 190.641ZM201.634 190.641C201.34 190.716 201.005 190.942 200.711 191.225C200.404 191.52 200.163 191.857 200.069 192.101C199.344 193.998 199.679 196.239 200.924 197.834C201.233 198.229 201.596 198.583 202.041 198.787L202.041 198.787C202.995 199.223 204.232 198.858 204.947 198.061C205.662 197.265 205.902 196.127 205.768 195.064C205.634 194.001 205.162 193.003 204.602 192.064L201.634 190.641Z" fill="#D2AA1A" stroke="#D2AA1A" stroke-width="0.246006"/>
</svg>
