<svg width="852" height="393" viewBox="0 0 852 393" fill="none" xmlns="http://www.w3.org/2000/svg">
<g clip-path="url(#clip0_203_572)">
<rect width="852" height="393" fill="white"/>
<path d="M424.971 57.7789C392.365 53.2782 360.513 68.9762 332.667 86.5532C321.708 93.4717 310.861 100.852 302.158 110.465C291.859 121.834 284.996 135.83 278.264 149.626C270.433 165.677 262.562 181.823 257.493 198.952C245.964 237.905 250.137 281.92 271.636 316.377C280.904 331.237 293.075 344.069 305.861 356.022C315.089 364.648 324.755 372.925 335.669 379.273C366.359 397.131 403.622 398.163 439.114 398.729C456.127 399 473.561 399.204 489.62 393.576C497.713 390.737 505.245 386.481 512.416 381.777C569.604 344.259 604.566 275.115 600.913 206.744C600.221 193.763 598.21 180.741 593.521 168.62C584.669 145.732 566.995 127.584 549.77 110.125C533.737 93.8702 516.932 77.1082 495.43 69.4652C488.842 67.1243 481.97 65.7071 475.125 64.2944C459.807 61.1385 444.028 60.4141 424.971 57.7834V57.7789Z" fill="#E27100"/>
<path d="M418.642 80.721C366.006 83.4784 316.115 117.093 293.74 164.884C284.2 185.255 279.444 207.717 278.648 230.207C278.087 246.086 279.484 262.11 283.775 277.41C290.765 302.335 305.558 325.002 325.551 341.42C355.598 366.096 395.787 375.772 434.642 375.215C449.919 374.998 474.379 369.166 487.757 362.365C497.148 357.589 505.552 350.756 514.378 344.997C521.725 340.202 527.864 333.799 533.914 327.438C542.481 318.432 551.135 309.218 556.673 298.084C561.507 288.363 563.754 277.591 565.82 266.932C569.179 249.586 572.195 232.005 571.462 214.351C569.396 164.735 536.532 119.37 493.151 95.3187C474.343 84.8911 453.007 78.9279 418.651 80.7255L418.642 80.721Z" fill="#00CB39"/>
<path d="M422.331 113.267C419.338 114.277 417.168 117.075 416.349 120.132C415.531 123.188 415.92 126.457 416.829 129.486C417.801 132.733 419.482 135.929 422.29 137.817C425.098 139.705 429.212 139.918 431.699 137.614C432.937 136.463 433.647 134.856 434.199 133.258C435.655 129.015 436.197 124.306 434.76 120.059C433.322 115.812 429.298 110.917 422.331 113.263V113.267Z" fill="#E27100"/>
<path d="M354.418 152.736C351.326 154.692 350.448 159.142 351.873 162.52C353.297 165.898 356.538 168.23 360.002 169.425C361.462 169.928 363.058 170.258 364.536 169.815C366.765 169.144 368.19 166.794 368.343 164.472C368.497 162.149 367.597 159.876 366.422 157.861C363.763 153.297 358.966 149.86 354.418 152.74V152.736Z" fill="#E27100"/>
<path d="M364.401 297.015C358.663 296.911 353.152 301.239 351.886 306.845C351.303 309.43 351.755 312.545 353.943 314.04C356.394 315.71 359.73 314.628 362.357 313.256C365.594 311.567 368.755 309.362 370.446 306.125C372.137 302.888 372.037 297.155 364.396 297.015H364.401Z" fill="#E27100"/>
<path d="M405.648 320.664C400.711 322.602 398.183 329.344 400.561 334.22C400.968 335.058 401.515 335.855 402.261 336.384C403.663 337.371 405.602 337.258 407.094 336.425C408.586 335.592 409.676 334.148 410.481 332.599C411.769 330.109 412.407 327.261 412.303 324.435C412.258 323.195 412.045 321.895 411.308 320.917C410.567 319.939 409.124 319.292 405.643 320.659L405.648 320.664Z" fill="#E27100"/>
<path d="M461.661 314.986C459.337 321.126 463.035 328.842 469.274 330.861C470.264 331.182 471.377 331.364 472.321 330.933C473.492 330.404 474.085 329.091 474.406 327.845C476.196 320.805 471.282 312.772 461.661 314.986Z" fill="#E27100"/>
<path d="M479.497 136.762C476.571 138.478 473.488 140.361 472.023 143.418C470.558 146.474 471.67 150.993 474.962 151.794C476.173 152.088 477.462 151.839 478.624 151.387C482.309 149.956 485.08 146.388 485.555 142.458C485.745 140.886 485.555 139.175 484.569 137.934C483.584 136.694 481.423 135.63 479.497 136.762Z" fill="#E27100"/>
<path d="M509.44 282.182C507.722 282.39 505.959 282.041 504.259 282.39C502.559 282.739 500.855 284.197 501.149 285.904C501.239 286.438 501.519 286.922 501.818 287.375C505.096 292.369 511.588 295.005 517.411 293.714C518.171 293.547 518.948 293.298 519.514 292.763C520.662 291.668 520.535 289.775 519.934 288.303C518.555 284.944 515.024 282.589 509.436 282.186L509.44 282.182Z" fill="#E27100"/>
<path d="M512.777 174.809C508.319 174.886 504.187 178.526 503.549 182.95C503.373 184.177 503.463 185.517 504.205 186.513C504.842 187.369 505.869 187.853 506.9 188.125C510.218 189.003 513.812 188.012 516.733 186.201C519.238 184.648 521.521 182.144 521.471 179.192C521.422 176.239 517.995 174.723 512.777 174.809Z" fill="#E27100"/>
<path d="M519.704 238.194C517.077 238.086 514.418 238.914 512.316 240.49C512.501 242.5 514.007 244.198 515.784 245.158C517.56 246.118 519.59 246.458 521.584 246.774C523.89 247.141 526.752 247.254 528.018 245.289C528.99 243.777 528.407 241.644 527.109 240.399C525.812 239.154 524.008 238.366 519.708 238.19L519.704 238.194Z" fill="#E27100"/>
<path d="M329.8 200.038C327.436 199.549 325.021 199.309 322.612 199.323C321.522 200.894 320.378 202.737 320.866 204.584C321.585 207.305 325.098 207.935 327.91 208.034C329.181 208.079 330.447 208.125 331.717 208.17C332.359 208.193 333.019 208.211 333.612 207.962C335.072 207.35 335.443 205.295 334.751 203.869C334.059 202.442 332.943 200.69 329.8 200.038Z" fill="#E27100"/>
<path d="M335.886 255.151C333.508 255.096 330.994 255.345 329.045 256.708C327.097 258.071 325.971 260.851 327.115 262.943C328.358 265.207 331.428 265.61 334.001 265.384C335.994 265.212 338.029 264.8 339.702 263.695C341.375 262.59 342.618 260.67 342.464 258.669C342.31 256.668 340.443 254.82 335.886 255.151Z" fill="#E27100"/>
<path opacity="0.5" d="M426.726 301.448C440.818 303.395 454.585 296.608 466.621 289.015C471.359 286.026 476.043 282.834 479.804 278.682C484.253 273.769 487.224 267.72 490.131 261.757C493.517 254.82 496.917 247.843 499.11 240.44C504.092 223.606 502.288 204.584 492.997 189.692C488.991 183.272 483.733 177.725 478.204 172.559C474.216 168.832 470.039 165.255 465.323 162.512C452.058 154.792 435.953 154.348 420.618 154.103C413.266 153.986 405.729 153.9 398.789 156.331C395.29 157.558 392.039 159.396 388.938 161.429C364.22 177.644 349.111 207.527 350.689 237.076C350.987 242.686 351.86 248.314 353.885 253.553C357.71 263.446 365.351 271.288 372.793 278.836C379.724 285.863 386.985 293.103 396.276 296.408C399.124 297.418 402.094 298.034 405.051 298.645C411.67 300.008 418.493 300.321 426.726 301.457V301.448Z" fill="#C9FF9E"/>
<rect y="302" width="852" height="110" fill="#B3F2BB"/>
<path d="M398.25 240.753C398.25 240.753 424.213 257.537 455.861 240.496" stroke="black" stroke-width="14.8088" stroke-miterlimit="10" stroke-linecap="round"/>
<path d="M382.739 188.51L382.581 188.514C380.691 188.557 379.253 188.914 377.998 189.593C376.737 190.276 375.62 191.307 374.405 192.762C373.485 193.866 372.973 195.265 372.502 196.74C371.17 200.921 370.242 205.246 370.687 209.514L382.739 188.51ZM382.739 188.51C383.935 188.532 385.437 189.103 386.843 189.94C388.306 190.81 389.548 191.898 390.13 192.756C394.688 199.492 395.427 208.537 392.025 215.892C391.18 217.717 390.092 219.421 388.552 220.613L388.552 220.613C385.251 223.166 380.117 222.879 376.61 220.43C373.109 217.985 371.135 213.779 370.687 209.514L382.739 188.51Z" fill="black" stroke="black" stroke-width="1.14933"/>
<path d="M470.261 188.51L470.419 188.513C472.309 188.557 473.747 188.914 475.002 189.593C476.263 190.276 477.38 191.306 478.595 192.762C479.515 193.866 480.027 195.265 480.498 196.74C481.83 200.921 482.758 205.246 482.313 209.514L470.261 188.51ZM470.261 188.51C469.065 188.532 467.563 189.103 466.157 189.939C464.694 190.81 463.452 191.898 462.87 192.756C458.312 199.492 457.573 208.537 460.975 215.892C461.82 217.717 462.908 219.421 464.448 220.613L464.448 220.613C467.749 223.166 472.883 222.879 476.39 220.429C479.891 217.985 481.865 213.779 482.313 209.514L470.261 188.51Z" fill="black" stroke="black" stroke-width="1.14933"/>
<path d="M619.273 282.196C612.279 273.403 604.06 263.673 594.009 259.321C590.849 257.954 587.187 259.426 585.817 262.586C585.803 262.622 585.785 262.654 585.772 262.69C584.546 265.506 585.55 268.803 588.141 270.451C595.795 275.323 602.138 280.992 607.098 288.979C600.827 294.53 598.666 305.872 603.508 312.786C608.35 319.7 615.232 323.426 623.645 322.838C626.544 322.634 631.182 321.805 636.395 318.188C644.009 312.899 645.573 303.617 642.576 294.1C639.492 284.306 630.549 278.845 619.278 282.196H619.273Z" fill="#009039"/>
<path d="M232.726 282.196C239.721 273.403 247.94 263.673 257.991 259.321C261.151 257.954 264.813 259.426 266.183 262.586C266.197 262.622 266.215 262.654 266.228 262.69C267.453 265.506 266.45 268.803 263.859 270.451C256.205 275.323 249.862 280.992 244.902 288.979C251.173 294.53 253.334 305.872 248.492 312.786C243.649 319.7 236.768 323.426 228.354 322.838C225.456 322.634 220.817 321.805 215.605 318.188C207.995 312.899 206.431 303.617 209.429 294.1C212.512 284.306 221.455 278.845 232.726 282.196Z" fill="#009039"/>
</g>
<defs>
<clipPath id="clip0_203_572">
<rect width="852" height="393" fill="white"/>
</clipPath>
</defs>
</svg>
