<svg width="852" height="393" viewBox="0 0 852 393" fill="none" xmlns="http://www.w3.org/2000/svg">
<g clip-path="url(#clip0_203_76)">
<rect width="852" height="393" fill="white"/>
<g clip-path="url(#clip1_203_76)">
<path d="M-43.9329 -69H414.939C421.043 -69 426.006 -64.0386 426.006 -57.9227V539.929C426.006 546.039 421.049 551.006 414.939 551.006H-43.9329C-50.0373 551.006 -55 546.044 -55 539.929V-57.9227C-55 -64.0386 -50.0431 -69 -43.9329 -69Z" fill="#9B9B9B"/>
<path d="M397.26 -23.111H-26.1498V103.869H397.26V-23.111Z" fill="#6F6F6F"/>
<path d="M397.26 115.436H-26.1498V242.417H397.26V115.436Z" fill="#6F6F6F"/>
<path d="M397.26 253.984H-26.1498V380.964H397.26V253.984Z" fill="#6F6F6F"/>
<path d="M165.224 367.922V380.97H236.38V367.922H165.224Z" fill="#D0D0D0"/>
<path d="M175.062 356.308V367.916H238.704V356.308H175.062Z" fill="#DFDFDF"/>
<path d="M165.241 344.706V356.308H228.883V344.706H165.241Z" fill="#8D8D8D"/>
<path d="M298.92 301.441H284.44V380.964H298.92V301.441Z" fill="#D0D0D0"/>
<path d="M313.779 314.909H302.345V380.97H313.779V314.909Z" fill="#8D8D8D"/>
<path d="M265.445 301.441H250.965V380.964H265.445V301.441Z" fill="#9B9B9B"/>
<path d="M280.304 314.909H268.876V380.97H280.304V314.909Z" fill="#8D8D8D"/>
<path d="M39.6588 317.451H14.3792V380.97H39.6588V317.451Z" fill="#9B9B9B"/>
<path d="M10.063 323.671H2.9509V380.964H10.063V323.671Z" fill="#DFDFDF"/>
<path d="M0.667577 314.53H-10.6384V380.97H0.667577V314.53Z" fill="#8D8D8D"/>
<path d="M152.963 314.53H141.657V380.97H152.963V314.53Z" fill="#8D8D8D"/>
<path d="M83.2282 323.671H60.2378V380.964H83.2282V323.671Z" fill="#DFDFDF"/>
<path d="M100.12 301.441H85.6397V380.964H100.12V301.441Z" fill="#D0D0D0"/>
<path d="M114.985 314.909H103.551V380.97H114.985V314.909Z" fill="#8D8D8D"/>
<path d="M55.9216 310.21H42.5828V380.97H55.9216V310.21Z" fill="#8D8D8D"/>
<path d="M138.226 321.386H117.268V380.964H138.226V321.386Z" fill="#DFDFDF"/>
<path d="M194.703 40.3501H175.423C173.766 40.3501 172.423 41.6932 172.423 43.3501V100.869C172.423 102.526 173.766 103.869 175.423 103.869H194.703C196.36 103.869 197.703 102.526 197.703 100.869V43.3501C197.703 41.6932 196.36 40.3501 194.703 40.3501Z" fill="#9B9B9B"/>
<path d="M165.101 46.5767H163.989C162.332 46.5767 160.989 47.9198 160.989 49.5767V100.869C160.989 102.526 162.332 103.869 163.989 103.869H165.101C166.758 103.869 168.101 102.526 168.101 100.869V49.5767C168.101 47.9198 166.758 46.5767 165.101 46.5767Z" fill="#DFDFDF"/>
<path d="M155.706 37.4292H150.4C148.743 37.4292 147.4 38.7723 147.4 40.4292V100.869C147.4 102.526 148.743 103.869 150.4 103.869H155.706C157.363 103.869 158.706 102.526 158.706 100.869V40.4292C158.706 38.7723 157.363 37.4292 155.706 37.4292Z" fill="#D0D0D0"/>
<path d="M100.452 24.3463H91.9715C90.3146 24.3463 88.9715 25.6895 88.9715 27.3463V100.869C88.9715 102.526 90.3146 103.869 91.9715 103.869H100.452C102.109 103.869 103.452 102.526 103.452 100.869V27.3463C103.452 25.6895 102.109 24.3463 100.452 24.3463Z" fill="#9B9B9B"/>
<path d="M5.58371 93.8215L5.58371 100.869C5.58371 102.526 6.92685 103.869 8.58371 103.869H73.7394C75.3963 103.869 76.7394 102.526 76.7394 100.869V93.8215C76.7394 92.1647 75.3963 90.8215 73.7394 90.8215H8.58371C6.92686 90.8215 5.58371 92.1647 5.58371 93.8215Z" fill="#9B9B9B"/>
<path d="M15.416 82.2196V87.8215C15.416 89.4784 16.7591 90.8215 18.416 90.8215H76.0577C77.7145 90.8215 79.0577 89.4784 79.0577 87.8215V82.2196C79.0577 80.5627 77.7145 79.2196 76.0577 79.2196H18.416C16.7591 79.2196 15.416 80.5627 15.416 82.2196Z" fill="#DFDFDF"/>
<path d="M5.60117 70.6176L5.60117 76.2196C5.60117 77.8765 6.94431 79.2196 8.60116 79.2196H66.2429C67.8997 79.2196 69.2429 77.8765 69.2429 76.2196V70.6176C69.2429 68.9608 67.8997 67.6176 66.2429 67.6176H8.60117C6.94431 67.6176 5.60117 68.9608 5.60117 70.6176Z" fill="#8D8D8D"/>
<path d="M115.317 37.814H109.883C108.226 37.814 106.883 39.1571 106.883 40.814V100.875C106.883 102.532 108.226 103.875 109.883 103.875H115.317C116.974 103.875 118.317 102.532 118.317 100.875V40.814C118.317 39.1571 116.974 37.814 115.317 37.814Z" fill="#8D8D8D"/>
<path d="M140.969 44.2913H126.012C124.355 44.2913 123.012 45.6344 123.012 47.2913V100.869C123.012 102.526 124.355 103.869 126.012 103.869H140.969C142.626 103.869 143.969 102.526 143.969 100.869V47.2913C143.969 45.6344 142.626 44.2913 140.969 44.2913Z" fill="#DFDFDF"/>
<path d="M345.367 24.3463H336.887C335.23 24.3463 333.887 25.6895 333.887 27.3463V100.869C333.887 102.526 335.23 103.869 336.887 103.869H345.367C347.024 103.869 348.367 102.526 348.367 100.869V27.3463C348.367 25.6895 347.024 24.3463 345.367 24.3463Z" fill="#D2D2D2"/>
<path d="M360.232 37.814H354.798C353.141 37.814 351.798 39.1571 351.798 40.814V100.875C351.798 102.532 353.141 103.875 354.798 103.875H360.232C361.889 103.875 363.232 102.532 363.232 100.875V40.814C363.232 39.1571 361.889 37.814 360.232 37.814Z" fill="#8D8D8D"/>
<path d="M385.884 44.2913H370.927C369.27 44.2913 367.927 45.6344 367.927 47.2913V100.869C367.927 102.526 369.27 103.869 370.927 103.869H385.884C387.541 103.869 388.884 102.526 388.884 100.869V47.2913C388.884 45.6344 387.541 44.2913 385.884 44.2913Z" fill="#DFDFDF"/>
<path d="M251.436 40.3501H232.157C230.5 40.3501 229.157 41.6932 229.157 43.3501V100.869C229.157 102.526 230.5 103.869 232.157 103.869H251.436C253.093 103.869 254.436 102.526 254.436 100.869V43.3501C254.436 41.6932 253.093 40.3501 251.436 40.3501Z" fill="#9B9B9B"/>
<path d="M221.841 46.5767H220.729C219.072 46.5767 217.729 47.9198 217.729 49.5767V100.869C217.729 102.526 219.072 103.869 220.729 103.869H221.841C223.498 103.869 224.841 102.526 224.841 100.869V49.5767C224.841 47.9198 223.498 46.5767 221.841 46.5767Z" fill="#DFDFDF"/>
<path d="M212.439 37.4292H207.134C205.477 37.4292 204.134 38.7723 204.134 40.4292V100.869C204.134 102.526 205.477 103.869 207.134 103.869H212.439C214.096 103.869 215.439 102.526 215.439 100.869V40.4292C215.439 38.7723 214.096 37.4292 212.439 37.4292Z" fill="#8D8D8D"/>
<path d="M295.006 46.5767H278.015C276.359 46.5767 275.015 47.9198 275.015 49.5767V100.869C275.015 102.526 276.359 103.869 278.015 103.869H295.006C296.663 103.869 298.006 102.526 298.006 100.869V49.5767C298.006 47.9198 296.663 46.5767 295.006 46.5767Z" fill="#DFDFDF"/>
<path d="M311.898 24.3463H303.417C301.761 24.3463 300.417 25.6895 300.417 27.3463V100.869C300.417 102.526 301.761 103.869 303.417 103.869H311.898C313.555 103.869 314.898 102.526 314.898 100.869V27.3463C314.898 25.6895 313.555 24.3463 311.898 24.3463Z" fill="#9B9B9B"/>
<path d="M326.763 37.814H321.329C319.672 37.814 318.329 39.1571 318.329 40.814V100.875C318.329 102.532 319.672 103.875 321.329 103.875H326.763C328.42 103.875 329.763 102.532 329.763 100.875V40.814C329.763 39.1571 328.42 37.814 326.763 37.814Z" fill="#8D8D8D"/>
<path d="M267.693 33.109H260.355C258.698 33.109 257.355 34.4522 257.355 36.109V100.869C257.355 102.526 258.698 103.869 260.355 103.869H267.693C269.35 103.869 270.693 102.526 270.693 100.869V36.109C270.693 34.4522 269.35 33.109 267.693 33.109Z" fill="#8D8D8D"/>
<path d="M301.343 178.903H282.064C280.407 178.903 279.064 180.246 279.064 181.903V239.423C279.064 241.079 280.407 242.423 282.064 242.423H301.343C303 242.423 304.343 241.079 304.343 239.423V181.903C304.343 180.246 303 178.903 301.343 178.903Z" fill="#9B9B9B"/>
<path d="M271.748 185.124H270.635C268.979 185.124 267.635 186.467 267.635 188.124V239.417C267.635 241.074 268.979 242.417 270.635 242.417H271.748C273.404 242.417 274.748 241.074 274.748 239.417V188.124C274.748 186.467 273.404 185.124 271.748 185.124Z" fill="#DFDFDF"/>
<path d="M262.346 175.977H257.04C255.384 175.977 254.04 177.32 254.04 178.977V239.417C254.04 241.074 255.384 242.417 257.04 242.417H262.346C264.003 242.417 265.346 241.074 265.346 239.417V178.977C265.346 177.32 264.003 175.977 262.346 175.977Z" fill="#8D8D8D"/>
<path d="M358.077 178.903H338.803C337.146 178.903 335.803 180.246 335.803 181.903V239.423C335.803 241.079 337.146 242.423 338.803 242.423H358.077C359.734 242.423 361.077 241.079 361.077 239.423V181.903C361.077 180.246 359.734 178.903 358.077 178.903Z" fill="#D2D2D2"/>
<path d="M328.481 185.124H327.369C325.712 185.124 324.369 186.467 324.369 188.124V239.417C324.369 241.074 325.712 242.417 327.369 242.417H328.481C330.138 242.417 331.481 241.074 331.481 239.417V188.124C331.481 186.467 330.138 185.124 328.481 185.124Z" fill="#DFDFDF"/>
<path d="M319.086 175.977H313.78C312.123 175.977 310.78 177.32 310.78 178.977V239.417C310.78 241.074 312.123 242.417 313.78 242.417H319.086C320.742 242.417 322.086 241.074 322.086 239.417V178.977C322.086 177.32 320.742 175.977 319.086 175.977Z" fill="#8D8D8D"/>
<path d="M374.34 171.662H367.001C365.344 171.662 364.001 173.005 364.001 174.662V239.423C364.001 241.079 365.344 242.423 367.001 242.423H374.34C375.996 242.423 377.34 241.079 377.34 239.423V174.662C377.34 173.005 375.996 171.662 374.34 171.662Z" fill="#AFAFAF"/>
<path d="M36.6588 178.903H17.3792C15.7223 178.903 14.3792 180.246 14.3792 181.903V239.423C14.3792 241.079 15.7223 242.423 17.3792 242.423H36.6588C38.3156 242.423 39.6588 241.079 39.6588 239.423V181.903C39.6588 180.246 38.3156 178.903 36.6588 178.903Z" fill="#9B9B9B"/>
<path d="M7.06297 185.124H5.9509C4.29404 185.124 2.9509 186.467 2.9509 188.124V239.417C2.9509 241.074 4.29404 242.417 5.9509 242.417H7.06297C8.71983 242.417 10.063 241.074 10.063 239.417V188.124C10.063 186.467 8.71983 185.124 7.06297 185.124Z" fill="#DFDFDF"/>
<path d="M-2.33242 175.977H-7.63835C-9.29521 175.977 -10.6384 177.32 -10.6384 178.977V239.417C-10.6384 241.074 -9.29521 242.417 -7.63835 242.417H-2.33242C-0.675569 242.417 0.667577 241.074 0.667577 239.417V178.977C0.667577 177.32 -0.675567 175.977 -2.33242 175.977Z" fill="#8D8D8D"/>
<path d="M191.371 178.903H172.092C170.435 178.903 169.092 180.246 169.092 181.903V239.423C169.092 241.079 170.435 242.423 172.092 242.423H191.371C193.028 242.423 194.371 241.079 194.371 239.423V181.903C194.371 180.246 193.028 178.903 191.371 178.903Z" fill="#9B9B9B"/>
<path d="M161.77 185.124H160.657C159.001 185.124 157.657 186.467 157.657 188.124V239.417C157.657 241.074 159.001 242.417 160.657 242.417H161.77C163.426 242.417 164.77 241.074 164.77 239.417V188.124C164.77 186.467 163.426 185.124 161.77 185.124Z" fill="#DFDFDF"/>
<path d="M152.374 175.977H147.068C145.411 175.977 144.068 177.32 144.068 178.977V239.417C144.068 241.074 145.411 242.417 147.068 242.417H152.374C154.031 242.417 155.374 241.074 155.374 239.417V178.977C155.374 177.32 154.031 175.977 152.374 175.977Z" fill="#8D8D8D"/>
<path d="M80.2282 185.124H63.2378C61.5809 185.124 60.2378 186.467 60.2378 188.124V239.417C60.2378 241.074 61.5809 242.417 63.2378 242.417H80.2282C81.8851 242.417 83.2282 241.074 83.2282 239.417V188.124C83.2282 186.467 81.8851 185.124 80.2282 185.124Z" fill="#DFDFDF"/>
<path d="M97.1201 162.894H88.6397C86.9828 162.894 85.6397 164.237 85.6397 165.894V239.417C85.6397 241.074 86.9828 242.417 88.6397 242.417H97.1201C98.777 242.417 100.12 241.074 100.12 239.417V165.894C100.12 164.237 98.777 162.894 97.1201 162.894Z" fill="#D0D0D0"/>
<path d="M111.985 176.361H106.551C104.894 176.361 103.551 177.704 103.551 179.361V239.423C103.551 241.079 104.894 242.423 106.551 242.423H111.985C113.642 242.423 114.985 241.079 114.985 239.423V179.361C114.985 177.704 113.642 176.361 111.985 176.361Z" fill="#8D8D8D"/>
<path d="M52.9216 171.662H45.5828C43.9259 171.662 42.5828 173.005 42.5828 174.662V239.423C42.5828 241.079 43.9259 242.423 45.5828 242.423H52.9216C54.5784 242.423 55.9216 241.079 55.9216 239.423V174.662C55.9216 173.005 54.5784 171.662 52.9216 171.662Z" fill="#8D8D8D"/>
<path d="M137.637 182.839H122.68C121.023 182.839 119.68 184.182 119.68 185.839V239.417C119.68 241.074 121.023 242.417 122.68 242.417H137.637C139.294 242.417 140.637 241.074 140.637 239.417V185.839C140.637 184.182 139.294 182.839 137.637 182.839Z" fill="#DFDFDF"/>
<path d="M210.316 169.98L196.228 175.012C194.668 175.57 193.854 177.287 194.41 178.847L216.159 239.845C216.715 241.406 218.431 242.219 219.991 241.662L234.079 236.629C235.64 236.072 236.453 234.355 235.897 232.794L214.149 171.797C213.592 170.236 211.876 169.423 210.316 169.98Z" fill="#DFDFDF"/>
<path d="M222.618 173.234L218.399 174.741C216.839 175.298 216.025 177.015 216.581 178.576L238.33 239.573C238.886 241.134 240.602 241.947 242.162 241.39L246.381 239.883C247.942 239.326 248.755 237.609 248.199 236.048L226.451 175.051C225.894 173.49 224.178 172.677 222.618 173.234Z" fill="#8D8D8D"/>
</g>
<g clip-path="url(#clip2_203_76)">
<path d="M437.067 -69H895.939C902.043 -69 907.006 -64.0386 907.006 -57.9227V539.929C907.006 546.039 902.049 551.006 895.939 551.006H437.067C430.963 551.006 426 546.044 426 539.929V-57.9227C426 -64.0386 430.957 -69 437.067 -69Z" fill="#9B9B9B"/>
<path d="M878.26 -23.111H454.85V103.869H878.26V-23.111Z" fill="#6F6F6F"/>
<path d="M878.26 115.436H454.85V242.417H878.26V115.436Z" fill="#6F6F6F"/>
<path d="M878.26 253.984H454.85V380.964H878.26V253.984Z" fill="#6F6F6F"/>
<path d="M646.224 367.922V380.97H717.38V367.922H646.224Z" fill="#D0D0D0"/>
<path d="M656.062 356.308V367.916H719.704V356.308H656.062Z" fill="#DFDFDF"/>
<path d="M646.241 344.706V356.308H709.883V344.706H646.241Z" fill="#8D8D8D"/>
<path d="M779.92 301.441H765.44V380.964H779.92V301.441Z" fill="#D0D0D0"/>
<path d="M794.779 314.909H783.345V380.97H794.779V314.909Z" fill="#8D8D8D"/>
<path d="M746.445 301.441H731.965V380.964H746.445V301.441Z" fill="#9B9B9B"/>
<path d="M761.304 314.909H749.876V380.97H761.304V314.909Z" fill="#8D8D8D"/>
<path d="M520.659 317.451H495.379V380.97H520.659V317.451Z" fill="#9B9B9B"/>
<path d="M491.063 323.671H483.951V380.964H491.063V323.671Z" fill="#DFDFDF"/>
<path d="M481.668 314.53H470.362V380.97H481.668V314.53Z" fill="#8D8D8D"/>
<path d="M633.963 314.53H622.657V380.97H633.963V314.53Z" fill="#8D8D8D"/>
<path d="M564.228 323.671H541.238V380.964H564.228V323.671Z" fill="#DFDFDF"/>
<path d="M581.12 301.441H566.64V380.964H581.12V301.441Z" fill="#D0D0D0"/>
<path d="M595.985 314.909H584.551V380.97H595.985V314.909Z" fill="#8D8D8D"/>
<path d="M536.922 310.21H523.583V380.97H536.922V310.21Z" fill="#8D8D8D"/>
<path d="M619.226 321.386H598.268V380.964H619.226V321.386Z" fill="#DFDFDF"/>
<path d="M479.704 46.5767H478.592C476.935 46.5767 475.592 47.9198 475.592 49.5767V100.869C475.592 102.526 476.935 103.869 478.592 103.869H479.704C481.361 103.869 482.704 102.526 482.704 100.869V49.5767C482.704 47.9198 481.361 46.5767 479.704 46.5767Z" fill="#DFDFDF"/>
<path d="M470.309 37.4292H465.003C463.346 37.4292 462.003 38.7723 462.003 40.4292V100.869C462.003 102.526 463.346 103.869 465.003 103.869H470.309C471.966 103.869 473.309 102.526 473.309 100.869V40.4292C473.309 38.7723 471.966 37.4292 470.309 37.4292Z" fill="#8D8D8D"/>
<path d="M675.703 40.3501H656.423C654.766 40.3501 653.423 41.6932 653.423 43.3501V100.869C653.423 102.526 654.766 103.869 656.423 103.869H675.703C677.36 103.869 678.703 102.526 678.703 100.869V43.3501C678.703 41.6932 677.36 40.3501 675.703 40.3501Z" fill="#9B9B9B"/>
<path d="M646.101 46.5767H644.989C643.332 46.5767 641.989 47.9198 641.989 49.5767V100.869C641.989 102.526 643.332 103.869 644.989 103.869H646.101C647.758 103.869 649.101 102.526 649.101 100.869V49.5767C649.101 47.9198 647.758 46.5767 646.101 46.5767Z" fill="#DFDFDF"/>
<path d="M636.706 37.4292H631.4C629.743 37.4292 628.4 38.7723 628.4 40.4292V100.869C628.4 102.526 629.743 103.869 631.4 103.869H636.706C638.363 103.869 639.706 102.526 639.706 100.869V40.4292C639.706 38.7723 638.363 37.4292 636.706 37.4292Z" fill="#D0D0D0"/>
<path d="M581.452 24.3463H572.971C571.315 24.3463 569.971 25.6895 569.971 27.3463V100.869C569.971 102.526 571.315 103.869 572.971 103.869H581.452C583.109 103.869 584.452 102.526 584.452 100.869V27.3463C584.452 25.6895 583.109 24.3463 581.452 24.3463Z" fill="#9B9B9B"/>
<path d="M486.584 93.8215V100.869C486.584 102.526 487.927 103.869 489.584 103.869H554.739C556.396 103.869 557.739 102.526 557.739 100.869V93.8215C557.739 92.1647 556.396 90.8215 554.739 90.8215H489.584C487.927 90.8215 486.584 92.1647 486.584 93.8215Z" fill="#9B9B9B"/>
<path d="M496.416 82.2196V87.8215C496.416 89.4784 497.759 90.8215 499.416 90.8215H557.058C558.715 90.8215 560.058 89.4784 560.058 87.8215V82.2196C560.058 80.5627 558.715 79.2196 557.058 79.2196H499.416C497.759 79.2196 496.416 80.5627 496.416 82.2196Z" fill="#DFDFDF"/>
<path d="M486.601 70.6176V76.2196C486.601 77.8765 487.944 79.2196 489.601 79.2196H547.243C548.9 79.2196 550.243 77.8765 550.243 76.2196V70.6176C550.243 68.9608 548.9 67.6176 547.243 67.6176H489.601C487.944 67.6176 486.601 68.9608 486.601 70.6176Z" fill="#8D8D8D"/>
<path d="M596.317 37.814H590.883C589.226 37.814 587.883 39.1571 587.883 40.814V100.875C587.883 102.532 589.226 103.875 590.883 103.875H596.317C597.974 103.875 599.317 102.532 599.317 100.875V40.814C599.317 39.1571 597.974 37.814 596.317 37.814Z" fill="#8D8D8D"/>
<path d="M621.969 44.2913H607.012C605.355 44.2913 604.012 45.6344 604.012 47.2913V100.869C604.012 102.526 605.355 103.869 607.012 103.869H621.969C623.626 103.869 624.969 102.526 624.969 100.869V47.2913C624.969 45.6344 623.626 44.2913 621.969 44.2913Z" fill="#DFDFDF"/>
<path d="M826.367 24.3463H817.887C816.23 24.3463 814.887 25.6895 814.887 27.3463V100.869C814.887 102.526 816.23 103.869 817.887 103.869H826.367C828.024 103.869 829.367 102.526 829.367 100.869V27.3463C829.367 25.6895 828.024 24.3463 826.367 24.3463Z" fill="#D2D2D2"/>
<path d="M841.232 37.814H835.798C834.141 37.814 832.798 39.1571 832.798 40.814V100.875C832.798 102.532 834.141 103.875 835.798 103.875H841.232C842.889 103.875 844.232 102.532 844.232 100.875V40.814C844.232 39.1571 842.889 37.814 841.232 37.814Z" fill="#8D8D8D"/>
<path d="M866.884 44.2913H851.927C850.27 44.2913 848.927 45.6344 848.927 47.2913V100.869C848.927 102.526 850.27 103.869 851.927 103.869H866.884C868.541 103.869 869.884 102.526 869.884 100.869V47.2913C869.884 45.6344 868.541 44.2913 866.884 44.2913Z" fill="#DFDFDF"/>
<path d="M732.436 40.3501H713.157C711.5 40.3501 710.157 41.6932 710.157 43.3501V100.869C710.157 102.526 711.5 103.869 713.157 103.869H732.436C734.093 103.869 735.436 102.526 735.436 100.869V43.3501C735.436 41.6932 734.093 40.3501 732.436 40.3501Z" fill="#9B9B9B"/>
<path d="M702.841 46.5767H701.729C700.072 46.5767 698.729 47.9198 698.729 49.5767V100.869C698.729 102.526 700.072 103.869 701.729 103.869H702.841C704.498 103.869 705.841 102.526 705.841 100.869V49.5767C705.841 47.9198 704.498 46.5767 702.841 46.5767Z" fill="#DFDFDF"/>
<path d="M693.439 37.4292H688.134C686.477 37.4292 685.134 38.7723 685.134 40.4292V100.869C685.134 102.526 686.477 103.869 688.134 103.869H693.439C695.096 103.869 696.439 102.526 696.439 100.869V40.4292C696.439 38.7723 695.096 37.4292 693.439 37.4292Z" fill="#8D8D8D"/>
<path d="M776.006 46.5767H759.015C757.359 46.5767 756.015 47.9198 756.015 49.5767V100.869C756.015 102.526 757.359 103.869 759.015 103.869H776.006C777.663 103.869 779.006 102.526 779.006 100.869V49.5767C779.006 47.9198 777.663 46.5767 776.006 46.5767Z" fill="#DFDFDF"/>
<path d="M792.898 24.3463H784.417C782.761 24.3463 781.417 25.6895 781.417 27.3463V100.869C781.417 102.526 782.761 103.869 784.417 103.869H792.898C794.555 103.869 795.898 102.526 795.898 100.869V27.3463C795.898 25.6895 794.555 24.3463 792.898 24.3463Z" fill="#9B9B9B"/>
<path d="M807.763 37.814H802.329C800.672 37.814 799.329 39.1571 799.329 40.814V100.875C799.329 102.532 800.672 103.875 802.329 103.875H807.763C809.42 103.875 810.763 102.532 810.763 100.875V40.814C810.763 39.1571 809.42 37.814 807.763 37.814Z" fill="#8D8D8D"/>
<path d="M748.693 33.109H741.355C739.698 33.109 738.355 34.4522 738.355 36.109V100.869C738.355 102.526 739.698 103.869 741.355 103.869H748.693C750.35 103.869 751.693 102.526 751.693 100.869V36.109C751.693 34.4522 750.35 33.109 748.693 33.109Z" fill="#8D8D8D"/>
<path d="M782.343 178.903H763.064C761.407 178.903 760.064 180.246 760.064 181.903V239.423C760.064 241.079 761.407 242.423 763.064 242.423H782.343C784 242.423 785.343 241.079 785.343 239.423V181.903C785.343 180.246 784 178.903 782.343 178.903Z" fill="#9B9B9B"/>
<path d="M752.748 185.124H751.635C749.979 185.124 748.635 186.467 748.635 188.124V239.417C748.635 241.074 749.979 242.417 751.635 242.417H752.748C754.404 242.417 755.748 241.074 755.748 239.417V188.124C755.748 186.467 754.404 185.124 752.748 185.124Z" fill="#DFDFDF"/>
<path d="M743.346 175.977H738.04C736.384 175.977 735.04 177.32 735.04 178.977V239.417C735.04 241.074 736.384 242.417 738.04 242.417H743.346C745.003 242.417 746.346 241.074 746.346 239.417V178.977C746.346 177.32 745.003 175.977 743.346 175.977Z" fill="#8D8D8D"/>
<path d="M839.077 178.903H819.803C818.146 178.903 816.803 180.246 816.803 181.903V239.423C816.803 241.079 818.146 242.423 819.803 242.423H839.077C840.734 242.423 842.077 241.079 842.077 239.423V181.903C842.077 180.246 840.734 178.903 839.077 178.903Z" fill="#D2D2D2"/>
<path d="M809.481 185.124H808.369C806.712 185.124 805.369 186.467 805.369 188.124V239.417C805.369 241.074 806.712 242.417 808.369 242.417H809.481C811.138 242.417 812.481 241.074 812.481 239.417V188.124C812.481 186.467 811.138 185.124 809.481 185.124Z" fill="#DFDFDF"/>
<path d="M800.086 175.977H794.78C793.123 175.977 791.78 177.32 791.78 178.977V239.417C791.78 241.074 793.123 242.417 794.78 242.417H800.086C801.742 242.417 803.086 241.074 803.086 239.417V178.977C803.086 177.32 801.742 175.977 800.086 175.977Z" fill="#8D8D8D"/>
<path d="M855.34 171.662H848.001C846.344 171.662 845.001 173.005 845.001 174.662V239.423C845.001 241.079 846.344 242.423 848.001 242.423H855.34C856.996 242.423 858.34 241.079 858.34 239.423V174.662C858.34 173.005 856.996 171.662 855.34 171.662Z" fill="#AFAFAF"/>
<path d="M517.659 178.903H498.379C496.722 178.903 495.379 180.246 495.379 181.903V239.423C495.379 241.079 496.722 242.423 498.379 242.423H517.659C519.316 242.423 520.659 241.079 520.659 239.423V181.903C520.659 180.246 519.316 178.903 517.659 178.903Z" fill="#9B9B9B"/>
<path d="M488.063 185.124H486.951C485.294 185.124 483.951 186.467 483.951 188.124V239.417C483.951 241.074 485.294 242.417 486.951 242.417H488.063C489.72 242.417 491.063 241.074 491.063 239.417V188.124C491.063 186.467 489.72 185.124 488.063 185.124Z" fill="#DFDFDF"/>
<path d="M478.668 175.977H473.362C471.705 175.977 470.362 177.32 470.362 178.977V239.417C470.362 241.074 471.705 242.417 473.362 242.417H478.668C480.324 242.417 481.668 241.074 481.668 239.417V178.977C481.668 177.32 480.324 175.977 478.668 175.977Z" fill="#8D8D8D"/>
<path d="M672.371 178.903H653.092C651.435 178.903 650.092 180.246 650.092 181.903V239.423C650.092 241.079 651.435 242.423 653.092 242.423H672.371C674.028 242.423 675.371 241.079 675.371 239.423V181.903C675.371 180.246 674.028 178.903 672.371 178.903Z" fill="#9B9B9B"/>
<path d="M642.77 185.124H641.657C640.001 185.124 638.657 186.467 638.657 188.124V239.417C638.657 241.074 640.001 242.417 641.657 242.417H642.77C644.426 242.417 645.77 241.074 645.77 239.417V188.124C645.77 186.467 644.426 185.124 642.77 185.124Z" fill="#DFDFDF"/>
<path d="M633.374 175.977H628.068C626.411 175.977 625.068 177.32 625.068 178.977V239.417C625.068 241.074 626.411 242.417 628.068 242.417H633.374C635.031 242.417 636.374 241.074 636.374 239.417V178.977C636.374 177.32 635.031 175.977 633.374 175.977Z" fill="#8D8D8D"/>
<path d="M561.228 185.124H544.238C542.581 185.124 541.238 186.467 541.238 188.124V239.417C541.238 241.074 542.581 242.417 544.238 242.417H561.228C562.885 242.417 564.228 241.074 564.228 239.417V188.124C564.228 186.467 562.885 185.124 561.228 185.124Z" fill="#DFDFDF"/>
<path d="M578.12 162.894H569.64C567.983 162.894 566.64 164.237 566.64 165.894V239.417C566.64 241.074 567.983 242.417 569.64 242.417H578.12C579.777 242.417 581.12 241.074 581.12 239.417V165.894C581.12 164.237 579.777 162.894 578.12 162.894Z" fill="#D0D0D0"/>
<path d="M592.985 176.361H587.551C585.894 176.361 584.551 177.704 584.551 179.361V239.423C584.551 241.079 585.894 242.423 587.551 242.423H592.985C594.642 242.423 595.985 241.079 595.985 239.423V179.361C595.985 177.704 594.642 176.361 592.985 176.361Z" fill="#8D8D8D"/>
<path d="M533.922 171.662H526.583C524.926 171.662 523.583 173.005 523.583 174.662V239.423C523.583 241.079 524.926 242.423 526.583 242.423H533.922C535.578 242.423 536.922 241.079 536.922 239.423V174.662C536.922 173.005 535.578 171.662 533.922 171.662Z" fill="#8D8D8D"/>
<path d="M618.637 182.839H603.68C602.023 182.839 600.68 184.182 600.68 185.839V239.417C600.68 241.074 602.023 242.417 603.68 242.417H618.637C620.294 242.417 621.637 241.074 621.637 239.417V185.839C621.637 184.182 620.294 182.839 618.637 182.839Z" fill="#DFDFDF"/>
<path d="M691.316 169.98L677.228 175.012C675.668 175.57 674.854 177.287 675.41 178.847L697.159 239.845C697.715 241.406 699.431 242.219 700.991 241.662L715.079 236.629C716.64 236.072 717.453 234.355 716.897 232.794L695.149 171.797C694.592 170.236 692.876 169.423 691.316 169.98Z" fill="#DFDFDF"/>
<path d="M703.618 173.234L699.399 174.741C697.839 175.298 697.025 177.015 697.581 178.576L719.33 239.573C719.886 241.134 721.602 241.947 723.162 241.39L727.381 239.883C728.942 239.326 729.755 237.609 729.199 236.048L707.451 175.051C706.894 173.49 705.178 172.677 703.618 173.234Z" fill="#8D8D8D"/>
</g>
<rect width="853" height="391" fill="black" fill-opacity="0.12"/>
<rect width="853" height="391" fill="url(#paint0_linear_203_76)" fill-opacity="0.32"/>
<path d="M800.606 411.736C794.364 405.891 786.743 401.531 778.538 399.143C775.526 398.261 772.232 397.648 769.282 398.691C765.792 399.918 763.394 403.315 762.602 406.927C761.811 410.539 762.45 414.318 763.574 417.833C765.502 423.842 768.853 429.307 772.652 434.352C776.749 439.801 781.436 444.887 787.095 448.697C792.753 452.506 799.44 454.969 806.259 454.876C807.937 454.854 809.715 454.644 811.056 453.606C812.596 452.411 813.19 450.402 813.631 448.521C815.477 440.794 816.272 432.882 817.072 424.988C817.268 423.001 817.469 421.032 817.666 419.045C817.778 417.921 817.89 416.796 818.003 415.671C819.779 398.12 821.542 380.59 823.318 363.038C823.622 360.056 823.9 356.971 822.909 354.156C820.154 346.389 807.261 341.182 805.98 352.229C804.555 364.5 805.475 377.083 804.071 389.441C803.636 393.314 803.105 397.174 802.501 401.034C802.284 402.403 799.895 411.139 800.597 411.774L800.606 411.736Z" fill="#6F6F6F"/>
<path d="M974.118 220.803C992.736 297.834 945.385 375.37 868.354 393.989C791.323 412.607 713.769 365.26 695.15 288.229C682.096 234.22 701.47 179.963 740.753 145.938C740.753 145.938 740.874 145.835 741.109 145.596C744.675 142.337 773.574 115.377 784.454 86.2225C796.074 55.1333 853.687 48.9643 876.563 77.3866C897.948 103.956 898.002 116.364 929.749 147.05C931.927 149.176 934.277 151.407 936.816 153.739C936.834 153.734 936.838 153.752 936.838 153.752C954.543 171.68 967.742 194.502 974.096 220.79L974.118 220.803Z" fill="#9C9C9C"/>
<path d="M950.709 222.418C966.324 287.022 926.613 352.048 862.009 367.663C797.405 383.278 732.362 343.571 716.747 278.967C705.798 233.668 722.038 188.163 754.998 159.617C754.998 159.617 755.103 159.519 755.298 159.343C758.295 156.607 782.519 133.996 791.646 109.546C801.39 83.4831 849.71 78.298 868.9 102.142C886.834 124.423 886.878 134.821 913.501 160.582C915.324 162.373 917.31 164.234 919.43 166.191C934.277 181.225 945.361 200.369 950.688 222.405L950.709 222.418Z" fill="#ADADAD"/>
<path d="M46.7853 445.189C52.3428 438.67 59.45 433.486 67.3409 430.191C70.2443 428.98 73.4506 428 76.5143 428.712C80.1124 429.55 82.8912 432.649 84.0846 436.158C85.2781 439.667 85.0643 443.497 84.334 447.113C83.0871 453.311 80.3618 459.136 77.1378 464.587C73.6643 470.465 69.5675 476.058 64.3662 480.475C59.165 484.893 52.7703 488.099 45.966 488.776C44.2916 488.936 42.4925 488.918 41.0497 488.046C39.3932 487.03 38.5738 485.089 37.9147 483.272C35.225 475.791 33.5329 468.007 31.8585 460.24C31.431 458.281 31.0213 456.34 30.5938 454.38C30.3622 453.276 30.1129 452.154 29.8813 451.049C26.1585 433.789 22.4357 416.511 18.7129 399.251C18.0894 396.329 17.4482 393.283 18.1251 390.362C19.9954 382.329 32.2504 375.702 34.7619 386.55C37.5585 398.609 38.0394 411.238 40.8182 423.369C41.691 427.18 42.635 430.957 43.6681 434.733C44.0422 436.069 47.3909 444.494 46.7675 445.225L46.7853 445.189Z" fill="#6F6F6F"/>
<path d="M5.97707 109.174C5.97707 109.174 -51.8244 70.6281 -112.85 116.406C-173.875 162.184 -173.074 277.769 -137.734 349.233C-102.394 420.697 -12.5835 400.408 -12.5835 400.408C-12.5835 400.408 37.2914 417.473 64.5979 395.795C91.9044 374.117 140.069 331.599 148.904 247.684C157.739 163.77 113.582 77.0585 5.99487 109.174H5.97707Z" fill="#9C9C9C"/>
<path d="M4.53412 126.15C4.53412 126.15 -46.3205 92.2351 -100.007 132.509C-153.694 172.765 -152.982 274.492 -121.899 337.37C-90.816 400.248 -11.7821 382.4 -11.7821 382.4C-11.7821 382.4 32.1078 397.416 56.119 378.339C80.1302 359.262 122.524 321.856 130.29 248.023C138.056 174.19 99.2074 97.8994 4.55193 126.15H4.53412Z" fill="#ADADAD"/>
<rect width="852" height="393" fill="white" fill-opacity="0.3"/>
<rect width="852" height="394" fill="#C0FFC8" style="mix-blend-mode:color"/>
</g>
<defs>
<linearGradient id="paint0_linear_203_76" x1="426" y1="303.5" x2="426" y2="45.5" gradientUnits="userSpaceOnUse">
<stop stop-color="white"/>
<stop offset="1" stop-color="white" stop-opacity="0"/>
</linearGradient>
<clipPath id="clip0_203_76">
<rect width="852" height="393" fill="white"/>
</clipPath>
<clipPath id="clip1_203_76">
<rect width="481" height="620" fill="white" transform="translate(-55 -69)"/>
</clipPath>
<clipPath id="clip2_203_76">
<rect width="481" height="620" fill="white" transform="translate(426 -69)"/>
</clipPath>
</defs>
</svg>
