<svg width="56" height="50" viewBox="0 0 56 50" fill="none" xmlns="http://www.w3.org/2000/svg">
<rect x="1" y="1" width="54" height="48" rx="8" fill="#FBF3E8"/>
<rect x="1" y="1" width="54" height="48" rx="8" stroke="#09276A" stroke-width="2"/>
<path d="M30.3809 16.108C30.4769 15.916 31.0769 15.82 32.1809 15.82C35.7809 15.82 37.5329 15.952 37.4369 16.216L33.0449 25.324C35.9969 30.844 37.4729 33.604 37.4729 33.604C37.4729 33.748 36.7529 33.868 35.3129 33.964C33.8729 34.06 32.8529 34.108 32.2529 34.108C30.7409 34.108 29.9369 33.952 29.8409 33.64L27.8969 27.628L25.6649 33.892C25.6169 34.06 24.9329 34.144 23.6129 34.144C22.2929 34.144 21.1169 34.096 20.0849 34C19.0529 33.904 18.5849 33.784 18.6809 33.64L22.7489 25.36C19.9169 19.432 18.5009 16.456 18.5009 16.432C18.5009 16.288 18.8609 16.156 19.5809 16.036C20.3249 15.916 21.1529 15.856 22.0649 15.856C23.0009 15.856 23.8889 15.904 24.7289 16C25.5689 16.072 26.0369 16.18 26.1329 16.324L28.0409 22.156L30.3809 16.108Z" fill="#09276A"/>
</svg>
