<svg width="852" height="393" viewBox="0 0 852 393" fill="none" xmlns="http://www.w3.org/2000/svg">
<g clip-path="url(#clip0_194_389)">
<rect y="293" width="852" height="100" fill="#F3D782"/>
<path d="M324.25 322.83V318.51C324.25 318.51 316.42 316.04 311.99 317.42V322.83H324.25Z" fill="#CCB05B"/>
<path d="M324.25 322.83L329.18 319.31C329.18 319.31 327.64 317.41 324.25 318.51" fill="#E3C772"/>
<path d="M357.17 316.25C356.66 336.12 357.45 368.5 357.45 368.5L350.08 377.18L347.03 312.99L392.9 282.3V295.85L357.17 316.25Z" fill="#E3C772"/>
<path d="M273.11 306.34H258.91C263.23 306.18 267.81 306.15 272.51 306.24H272.67C272.81 306.24 272.96 306.25 273.1 306.25C273.11 306.28 273.11 306.31 273.11 306.34Z" fill="#C4A853"/>
<path d="M350.08 377.18H335.99L333.17 320.3C322.12 316.82 295.49 316.74 282.18 316.95C277.39 317.01 274.32 317.12 274.32 317.12C273.79 333.8 274.15 364.95 274.27 374.4L274.32 377.18H260.86C261.93 359.72 260.77 332.9 258.91 306.34H273.11C273.11 306.34 273.11 306.28 273.1 306.25C306.93 306.89 347.03 312.99 347.03 312.99L350.08 377.18Z" fill="#C4A853"/>
<path d="M282.18 316.95V369.85L274.32 377.18L274.27 374.4C274.15 364.95 273.79 333.8 274.32 317.12C274.32 317.12 277.39 317.01 282.18 316.95Z" fill="#DABE69"/>
<path d="M273.11 306.34H258.91C263.23 306.18 267.81 306.15 272.51 306.24H272.67C272.81 306.24 272.96 306.25 273.1 306.25C273.11 306.28 273.11 306.31 273.11 306.34Z" fill="#C4A853"/>
<path d="M272.51 297.47V306.24C267.81 306.15 263.23 306.18 258.91 306.34C255.88 262.98 251 220.32 251 220.32H264.71C264.71 220.32 270.06 264.49 272.51 297.47Z" fill="#C4A853"/>
<path d="M392.9 282.3L347.03 312.99C347.03 312.99 306.93 306.89 273.1 306.25C272.96 306.25 272.81 306.24 272.67 306.24L324.25 275.26C341.62 277.14 392.9 282.3 392.9 282.3Z" fill="#CCB05B"/>
<path d="M324.25 275.26L272.67 306.24H272.51V297.47C270.06 264.49 264.71 220.32 264.71 220.32H251C276.36 209.05 318.15 179 318.15 179L323.98 271.09L324.16 273.89L324.25 275.26Z" fill="#DABE69"/>
<path d="M251 220.32H264.71L321.95 187.74L318.15 179L251 220.32Z" fill="#CCB05B"/>
<path d="M-29.83 316.25C-30.34 336.12 -29.55 368.5 -29.55 368.5L-36.92 377.18L-39.97 312.99L5.90002 282.3V295.85L-29.83 316.25Z" fill="#E3C772"/>
<path d="M5.89998 282.3L-39.97 312.99C-39.97 312.99 -80.07 306.89 -113.9 306.25C-114.04 306.25 -114.19 306.24 -114.33 306.24L-62.75 275.26C-45.38 277.14 5.89998 282.3 5.89998 282.3Z" fill="#CCB05B"/>
<path d="M-4.9043 315.536C-5.31359 315.905 -5.74693 316.307 -5.83521 316.804C-5.92349 317.294 -5.66667 317.775 -5.41788 318.225C-3.32328 321.948 -1.27687 325.897 -1.58985 330.014C-1.75838 332.261 -3.13869 334.821 -5.76296 335.126C-7.24764 335.294 -8.69223 334.676 -9.96022 334.002C-13.8525 331.94 -17.2712 329.139 -19.3578 325.672C-21.4444 322.205 -22.0944 318.048 -20.6338 314.364C-20.1363 313.104 -19.3337 311.852 -17.9775 311.202C-16.6212 310.552 -14.6068 310.745 -13.8364 311.901C-9.00518 308.097 -5.66669 303.073 -3.58814 297.768C-1.50959 292.463 -0.626785 286.878 -0.201445 281.3C3.04077 281.236 6.29097 281.172 9.54121 281.108C13.0483 281.043 8.03247 296.749 7.09351 298.916C4.43714 305.055 0.368313 310.761 -4.9043 315.544V315.536Z" fill="#B79B46"/>
<path d="M-13.7321 156.314C1.79681 154.501 16.9646 160.824 30.2224 167.895C35.4388 170.68 40.6071 173.649 44.7482 177.517C49.6516 182.091 52.9179 187.725 56.128 193.279C59.8598 199.739 63.6076 206.24 66.0152 213.133C71.5045 228.815 69.5142 246.527 59.282 260.394C54.8681 266.373 49.0738 271.541 42.9826 276.348C38.5848 279.823 33.9863 283.154 28.7859 285.706C14.1718 292.897 -3.57208 293.306 -20.4733 293.539C-28.5789 293.651 -36.877 293.731 -44.5251 291.468C-48.3773 290.329 -51.9645 288.611 -55.3833 286.717C-82.6131 271.622 -99.2656 243.79 -97.5241 216.271C-97.1951 211.047 -96.232 205.806 -94.001 200.927C-89.7877 191.714 -81.3692 184.411 -73.1674 177.381C-65.5353 170.84 -57.5261 164.091 -47.2938 161.017C-44.1559 160.078 -40.8816 159.5 -37.6234 158.939C-30.3284 157.671 -22.8167 157.374 -13.7401 156.314H-13.7321Z" fill="#DEC26D"/>
<path d="M-8.68416 164.628C16.3788 165.736 40.1417 179.267 50.7912 198.503C55.3335 206.705 57.5967 215.741 57.9819 224.794C58.2467 231.182 57.5806 237.634 55.5422 243.79C52.2117 253.821 45.1655 262.946 35.6475 269.551C21.3384 279.486 2.19813 283.379 -16.3002 283.154C-23.5711 283.066 -35.2238 280.722 -41.5959 277.978C-46.066 276.06 -50.0706 273.307 -54.2758 270.988C-57.7748 269.053 -60.6961 266.477 -63.5771 263.925C-67.654 260.298 -71.779 256.59 -74.4113 252.112C-76.7145 248.204 -77.7819 243.862 -78.769 239.577C-80.366 232.595 -81.8025 225.516 -81.4574 218.414C-80.4703 198.447 -64.8211 180.189 -44.164 170.503C-35.2077 166.306 -25.0477 163.906 -8.68416 164.628Z" fill="#F3D782"/>
<path d="M98.59 320.3V315.56L109.99 314.22L98.59 320.3Z" fill="#E3C772"/>
<path d="M98.59 320.3H84.23V314.22L98.59 312.99V320.3Z" fill="#E3C772"/>
<path d="M9.13004 376.66L21.54 367.54C21.54 367.54 19.38 346.42 20.27 317.13L9.13004 317.87C9.13004 317.87 1.86004 358.59 9.13004 376.66Z" fill="#E3C772"/>
<path d="M-6.40999 299.01C-6.40999 299.01 -6.92998 337.56 -5.00998 376.65C-5.00998 376.65 3.34002 377.83 9.13002 376.65C9.13002 376.65 6.13002 345.06 9.13002 317.86C9.13002 317.86 86 312.26 113.25 317.02C113.25 317.02 116.66 369.55 114.61 377.17H128.91L126.85 299C126.85 299 52.73 291.89 -6.41999 299L-6.40999 299.01Z" fill="#C4A853"/>
<path d="M128.92 377.18L141.05 367.68C141.05 367.68 139.52 318.57 142.18 307.17C142.18 307.17 194.05 266.43 201.22 263.42C201.22 263.42 199.22 306.71 201.84 320.3L216.46 308.4C216.46 308.4 219.96 283.95 216 230.77C216 230.77 148.28 269.89 126.87 299.01L128.93 377.18H128.92Z" fill="#DABE69"/>
<path d="M98.52 230.78C97.06 230.88 32.49 273.33 -6.40002 299.02C-6.40002 299.02 85.96 300.22 128.09 299.02C128.09 299.02 193.31 249.65 216 230.78C216 230.78 139.84 227.97 98.52 230.78Z" fill="#CCB05B"/>
<path d="M201.84 320.3H190.41C190.41 320.3 190.16 290.19 191.79 269.51L203.94 258.94L201.84 320.3Z" fill="#C4A853"/>
<path d="M711.25 322.83V318.51C711.25 318.51 703.42 316.04 698.99 317.42V322.83H711.25Z" fill="#CCB05B"/>
<path d="M711.25 322.83L716.18 319.31C716.18 319.31 714.64 317.41 711.25 318.51" fill="#E3C772"/>
<path d="M744.17 316.25C743.66 336.12 744.45 368.5 744.45 368.5L737.08 377.18L734.03 312.99L779.9 282.3V295.85L744.17 316.25Z" fill="#E3C772"/>
<path d="M660.11 306.34H645.91C650.23 306.18 654.81 306.15 659.51 306.24H659.67C659.81 306.24 659.96 306.25 660.1 306.25C660.11 306.28 660.11 306.31 660.11 306.34Z" fill="#C4A853"/>
<path d="M737.08 377.18H722.99L720.17 320.3C709.12 316.82 682.49 316.74 669.18 316.95C664.39 317.01 661.32 317.12 661.32 317.12C660.79 333.8 661.15 364.95 661.27 374.4L661.32 377.18H647.86C648.93 359.72 647.77 332.9 645.91 306.34H660.11C660.11 306.34 660.11 306.28 660.1 306.25C693.93 306.89 734.03 312.99 734.03 312.99L737.08 377.18Z" fill="#C4A853"/>
<path d="M669.18 316.95V369.85L661.32 377.18L661.27 374.4C661.15 364.95 660.79 333.8 661.32 317.12C661.32 317.12 664.39 317.01 669.18 316.95Z" fill="#DABE69"/>
<path d="M660.11 306.34H645.91C650.23 306.18 654.81 306.15 659.51 306.24H659.67C659.81 306.24 659.96 306.25 660.1 306.25C660.11 306.28 660.11 306.31 660.11 306.34Z" fill="#C4A853"/>
<path d="M659.51 297.47V306.24C654.81 306.15 650.23 306.18 645.91 306.34C642.88 262.98 638 220.32 638 220.32H651.71C651.71 220.32 657.06 264.49 659.51 297.47Z" fill="#C4A853"/>
<path d="M779.9 282.3L734.03 312.99C734.03 312.99 693.93 306.89 660.1 306.25C659.96 306.25 659.81 306.24 659.67 306.24L711.25 275.26C728.62 277.14 779.9 282.3 779.9 282.3Z" fill="#CCB05B"/>
<path d="M711.25 275.26L659.67 306.24H659.51V297.47C657.06 264.49 651.71 220.32 651.71 220.32H638C663.36 209.05 706 189 706 189L710.98 271.09L711.16 273.89L711.25 275.26Z" fill="#DABE69"/>
<path d="M638 220.32H651.71L706 189H690.5L638 220.32Z" fill="#CCB05B"/>
<path d="M794.494 291.073C794.437 291.621 794.384 292.209 794.651 292.638C794.913 293.061 795.426 293.247 795.912 293.414C799.96 294.779 804.123 296.344 806.646 299.612C808.024 301.395 808.712 304.221 806.966 306.204C805.976 307.323 804.489 307.83 803.095 308.178C798.823 309.25 794.408 309.457 790.537 308.277C786.667 307.097 783.402 304.443 782.022 300.728C781.549 299.459 781.307 297.992 781.88 296.601C782.453 295.211 784.078 294.006 785.424 294.349C786.469 288.289 785.587 282.322 783.582 276.989C781.576 271.656 778.494 266.915 775.078 262.486C777.444 260.268 779.816 258.046 782.188 255.823C784.751 253.428 791.535 268.455 792.287 270.693C794.422 277.033 795.217 283.996 794.5 291.079L794.494 291.073Z" fill="#B79B46"/>
<path d="M761.314 320.955C761.257 321.503 761.204 322.091 761.471 322.52C761.733 322.943 762.246 323.129 762.732 323.296C766.78 324.662 770.943 326.226 773.466 329.495C774.844 331.277 775.532 334.103 773.786 336.086C772.795 337.205 771.309 337.713 769.915 338.06C765.643 339.132 761.228 339.339 757.357 338.159C753.487 336.979 750.222 334.325 748.842 330.611C748.369 329.342 748.127 327.874 748.7 326.484C749.273 325.093 750.898 323.888 752.244 324.231C753.288 318.171 752.407 312.204 750.402 306.871C748.396 301.539 745.314 296.797 741.898 292.368C744.264 290.151 746.636 287.928 749.008 285.705C751.571 283.31 758.355 298.337 759.107 300.576C761.242 306.915 762.037 313.878 761.32 320.961L761.314 320.955Z" fill="#B79B46"/>
<path d="M836.389 271.97C757.492 331.557 698.434 281.865 686.083 269.859C684.526 268.35 683.788 266.2 684.053 264.049C684.775 258.102 685.915 252.356 687.407 246.818C700.986 196.067 743.304 162.77 756.722 153.268C759.162 151.534 762.452 151.582 764.843 153.388C802.065 181.396 822.232 219.998 832.063 244.756C835.498 253.399 837.673 260.349 838.877 264.586C839.655 267.323 838.66 270.26 836.389 271.97Z" fill="#D2B661"/>
<path d="M824.889 265.309C758.118 315.732 708.145 273.679 697.688 263.519C696.372 262.243 695.746 260.421 695.97 258.6C696.58 253.568 697.543 248.704 698.811 244.018C710.304 201.066 746.112 172.89 757.468 164.848C759.531 163.38 762.315 163.42 764.338 164.953C795.837 188.651 812.907 221.322 821.221 242.276C824.126 249.587 825.972 255.47 826.983 259.057C827.641 261.376 826.799 263.856 824.881 265.309H824.889Z" fill="#F3D782"/>
<path d="M659.51 306.24H659.67L659.51 306.34V306.24Z" fill="#E3C772"/>
<path d="M783.13 376.66L795.54 367.54C795.54 367.54 793.38 346.42 794.27 317.13L783.13 317.87C783.13 317.87 775.86 358.59 783.13 376.66Z" fill="#E3C772"/>
<path d="M767.59 299.01C767.59 299.01 767.07 337.56 768.99 376.65C768.99 376.65 777.34 377.83 783.13 376.65C783.13 376.65 780.13 345.06 783.13 317.86C783.13 317.86 860 312.26 887.25 317.02C887.25 317.02 890.66 369.55 888.61 377.17H902.91L900.85 299C900.85 299 826.73 291.89 767.58 299L767.59 299.01Z" fill="#C4A853"/>
<path d="M872.52 230.78C871.06 230.88 806.49 273.33 767.6 299.02C767.6 299.02 859.96 300.22 902.09 299.02C902.09 299.02 967.31 249.65 990 230.78C990 230.78 913.84 227.97 872.52 230.78Z" fill="#CCB05B"/>
</g>
<defs>
<clipPath id="clip0_194_389">
<rect width="852" height="393" fill="white"/>
</clipPath>
</defs>
</svg>
