<svg width="852" height="393" viewBox="0 0 852 393" fill="none" xmlns="http://www.w3.org/2000/svg">
<g clip-path="url(#clip0_150_1139)">
<rect width="852" height="393" fill="#6987CA"/>
<path d="M424.301 145.975C333.974 139.495 245.534 158.815 168.22 180.616C137.804 189.168 107.602 198.382 83.4475 210.443C54.7502 224.704 35.6259 242.399 16.8346 259.843C-5.06986 280.161 -26.9748 300.529 -41.2765 322.282C-73.6799 371.706 -62.5491 427.942 -3.31842 472.363C22.2384 491.539 55.7617 508.136 91.1695 523.681C116.681 534.873 143.409 545.668 173.578 553.999C258.471 577.471 361.744 579.631 460.057 581.14C507.172 581.879 555.502 582.525 600.029 575.715C622.459 572.286 643.358 567.014 663.38 561.176C822.225 514.608 919.825 427.214 910.491 339.97C908.749 323.377 903.256 306.753 890.361 291.188C866.101 261.799 817.294 238.263 769.695 215.602C725.393 194.493 679.001 172.757 619.493 162.51C601.31 159.362 582.235 157.427 563.27 155.443C520.819 151.08 477.129 149.811 424.301 146.026L424.301 145.975Z" fill="#E1EAFF"/>
</g>
<defs>
<clipPath id="clip0_150_1139">
<rect width="852" height="393" fill="white"/>
</clipPath>
</defs>
</svg>
