<svg width="162" height="223" viewBox="0 0 162 223" fill="none" xmlns="http://www.w3.org/2000/svg">
<path d="M41.3301 189.534C38.6901 185.514 35.1001 182.124 30.9301 179.734C29.4001 178.854 27.6801 178.084 25.9301 178.264C23.8601 178.474 22.1001 180.014 21.1901 181.884C20.2801 183.754 20.1301 185.904 20.2801 187.974C20.5401 191.514 21.6501 194.944 23.0601 198.204C24.5801 201.724 26.4701 205.124 29.0601 207.954C31.6501 210.784 34.9801 213.014 38.7201 213.864C39.6401 214.074 40.64 214.194 41.51 213.804C42.51 213.354 43.1001 212.334 43.5901 211.364C45.6201 207.384 47.1001 203.164 48.5801 198.954C48.9501 197.894 49.3201 196.844 49.6901 195.784C49.9001 195.184 50.1101 194.584 50.3201 193.984C53.6101 184.624 56.8901 175.274 60.1801 165.914C60.7401 164.324 61.3001 162.674 61.1301 161.004C60.6501 156.394 54.2901 151.844 52.1301 157.714C49.7301 164.234 48.5701 171.234 46.1701 177.804C45.4201 179.864 44.6201 181.904 43.7801 183.934C43.4801 184.654 41.0201 189.114 41.3201 189.554L41.3301 189.534Z" fill="#85A3E6"/>
<path d="M111.85 198.424C115.4 195.184 119.72 192.794 124.36 191.514C126.06 191.044 127.91 190.724 129.57 191.334C131.52 192.054 132.85 193.984 133.27 196.014C133.69 198.044 133.3 200.174 132.64 202.134C131.51 205.504 129.58 208.544 127.41 211.354C125.07 214.384 122.39 217.214 119.18 219.304C115.97 221.394 112.19 222.734 108.35 222.634C107.4 222.604 106.4 222.474 105.67 221.884C104.82 221.204 104.5 220.064 104.26 219.004C103.28 214.654 102.89 210.194 102.51 205.744C102.41 204.624 102.32 203.514 102.22 202.394C102.16 201.754 102.11 201.124 102.05 200.484C101.19 190.604 100.33 180.724 99.4699 170.844C99.3199 169.174 99.1899 167.434 99.7699 165.854C101.38 161.504 108.67 158.674 109.3 164.894C110.01 171.804 109.39 178.874 110.08 185.834C110.3 188.014 110.56 190.194 110.87 192.364C110.98 193.134 112.25 198.064 111.86 198.424H111.85Z" fill="#85A3E6"/>
<path d="M161.41 108.084C161.41 152.654 125.28 188.784 80.71 188.784C36.14 188.784 0 152.654 0 108.084C0 76.8338 17.76 49.7338 43.73 36.3238C43.73 36.3238 43.81 36.2838 43.97 36.1838C46.35 34.8738 65.71 23.9538 75.51 9.45378C85.97 -6.00622 118.28 -1.76622 127.03 16.7938C135.21 34.1438 133.6 40.9338 146.9 61.9038C147.81 63.3538 148.8 64.8838 149.88 66.4938C149.89 66.4938 149.89 66.5038 149.89 66.5038C157.2 78.6438 161.4 92.8638 161.4 108.074L161.41 108.084Z" fill="#9DBBFE"/>
<path d="M148.4 105.874C148.4 143.254 118.1 173.554 80.72 173.554C43.34 173.554 13.03 143.254 13.03 105.874C13.03 79.6639 27.92 56.9339 49.71 45.6839C49.71 45.6839 49.78 45.6439 49.91 45.5739C51.91 44.4739 68.14 35.3139 76.36 23.1539C85.13 10.1939 112.23 13.7439 119.57 29.3139C126.43 43.8639 125.08 49.5539 136.23 67.1539C136.99 68.3739 137.83 69.6539 138.73 71.0039C144.86 81.1839 148.39 93.1139 148.39 105.864L148.4 105.874Z" fill="#BDD1FF"/>
<path d="M63.4599 52.4041C64.2499 52.1841 65.0799 52.6541 65.8199 53.1941C66.1099 53.4041 66.3999 53.6341 66.6399 53.9441C66.9299 54.3041 67.1299 54.7641 67.3399 55.2241C67.5799 55.7541 67.8199 56.2841 67.9899 56.8541C68.3799 58.1541 68.3999 59.6541 67.9699 60.8641C67.7799 61.3841 67.5199 61.8441 67.2399 62.2741C67.0399 62.5841 66.8199 62.8841 66.5699 63.1241C65.8599 63.7941 64.9499 63.9041 64.0699 63.9941C63.6499 64.0341 63.2199 64.0841 62.8099 63.9241C62.5999 63.8441 62.3999 63.7141 62.2099 63.5741C60.6899 62.4141 59.6399 60.1441 59.5399 57.8241C59.5199 57.3841 59.5399 56.9341 59.6199 56.5141C59.7699 55.7241 60.1599 55.0741 60.5399 54.4441C60.8899 53.8641 61.2599 53.2541 61.7699 52.9541C61.9299 52.8641 62.0899 52.8041 62.2599 52.7341C62.6299 52.5941 63.0199 52.5441 63.4799 52.4141L63.4599 52.4041Z" fill="#708ED1"/>
<path d="M114.29 58.2941C115.11 58.2841 115.8 58.9441 116.38 59.6441C116.61 59.9241 116.83 60.2141 116.99 60.5741C117.18 60.9941 117.26 61.4941 117.35 61.9841C117.45 62.5541 117.55 63.1341 117.57 63.7241C117.63 65.0741 117.27 66.5341 116.55 67.6041C116.24 68.0641 115.87 68.4441 115.49 68.7941C115.22 69.0441 114.93 69.2841 114.63 69.4441C113.78 69.9141 112.86 69.7941 111.99 69.6641C111.57 69.6041 111.15 69.5341 110.79 69.2841C110.61 69.1541 110.45 68.9841 110.3 68.7941C109.12 67.2941 108.66 64.8341 109.15 62.5541C109.24 62.1241 109.37 61.6941 109.55 61.3041C109.9 60.5741 110.43 60.0441 110.95 59.5241C111.43 59.0441 111.94 58.5541 112.51 58.3841C112.68 58.3341 112.86 58.3141 113.04 58.2941C113.43 58.2541 113.82 58.2941 114.3 58.2941H114.29Z" fill="#708ED1"/>
<path d="M53.4209 92.3097C53.4209 92.3097 70.8676 116.197 100.008 100.103" stroke="#708ED1" stroke-width="6" stroke-miterlimit="10" stroke-linecap="round"/>
</svg>
