<svg width="852" height="393" viewBox="0 0 852 393" fill="none" xmlns="http://www.w3.org/2000/svg">
<g clip-path="url(#clip0_171_93)">
<path d="M496.872 375.513C501.294 389.37 503.127 403.116 502.234 418.005C508.455 419.031 515.066 422.034 519.691 426.321C524.32 430.608 525.573 439.101 520.525 442.88C518.924 444.078 516.946 444.638 514.998 445.095C506.625 447.052 497.893 447.48 489.368 446.341C483.269 445.527 476.781 443.596 473.181 438.601C470.547 434.95 469.924 429.934 471.58 425.749C473.236 421.564 477.116 418.332 481.537 417.463C482.164 404.895 481.346 392.259 479.123 379.872C478.246 375.001 481.465 370.307 486.327 369.371C486.395 369.358 486.458 369.346 486.526 369.333C491.032 368.482 495.479 371.133 496.876 375.505L496.872 375.513Z" fill="#009039"/>
<path d="M355.904 375.513C351.483 389.37 349.649 403.116 350.543 418.005C344.321 419.031 337.71 422.034 333.086 426.321C328.457 430.608 327.203 439.101 332.251 442.88C333.852 444.078 335.83 444.638 337.778 445.095C346.151 447.052 354.883 447.48 363.409 446.341C369.507 445.527 375.995 443.596 379.595 438.601C382.229 434.95 382.852 429.934 381.196 425.749C379.54 421.564 375.661 418.332 371.239 417.463C370.613 404.895 371.43 392.259 373.653 379.872C374.53 375.001 371.311 370.307 366.449 369.371C366.382 369.358 366.318 369.346 366.25 369.333C361.744 368.482 357.297 371.133 355.9 375.505L355.904 375.513Z" fill="#009039"/>
<path d="M425.24 69.7287C394.697 65.518 364.861 80.2045 338.777 96.6489C328.512 103.122 318.352 110.026 310.199 119.02C300.552 129.656 294.123 142.75 287.817 155.657C280.482 170.674 273.109 185.78 268.361 201.805C257.562 238.248 261.471 279.427 281.608 311.663C290.29 325.566 301.691 337.571 313.668 348.754C322.312 356.824 331.366 364.567 341.589 370.506C370.337 387.213 405.242 388.179 438.488 388.709C454.424 388.963 470.755 389.154 485.797 383.888C493.378 381.232 500.434 377.25 507.151 372.849C560.72 337.749 593.47 273.06 590.048 209.095C589.4 196.95 587.515 184.768 583.123 173.428C574.831 152.014 558.276 135.036 542.141 118.702C527.123 103.494 511.381 87.8124 491.239 80.6619C485.069 78.4719 478.632 77.146 472.22 75.8244C457.871 72.8718 443.091 72.194 425.24 69.7329V69.7287Z" fill="#E27100"/>
<path d="M421.245 91.1924C371.94 93.7722 325.206 125.221 304.247 169.932C295.311 188.991 290.856 210.006 290.11 231.046C289.585 245.902 290.894 260.894 294.913 275.207C301.46 298.527 315.317 319.733 334.045 335.093C362.191 358.179 399.836 367.232 436.233 366.711C450.543 366.507 473.454 361.051 485.986 354.689C494.782 350.22 502.655 343.827 510.922 338.439C517.804 333.953 523.555 327.963 529.222 322.012C537.247 313.586 545.353 304.966 550.541 294.549C555.068 285.454 557.173 275.377 559.108 265.405C562.255 249.177 565.08 232.728 564.394 216.212C562.458 169.793 531.674 127.352 491.038 104.85C473.421 95.0939 453.435 89.515 421.253 91.1967L421.245 91.1924Z" fill="#00CB39"/>
<path d="M425.152 121.642C422.348 122.587 420.315 125.205 419.549 128.064C418.782 130.923 419.146 133.982 419.998 136.816C420.908 139.853 422.484 142.844 425.114 144.61C427.744 146.376 431.597 146.576 433.927 144.419C435.087 143.343 435.752 141.84 436.269 140.344C437.632 136.375 438.141 131.97 436.794 127.996C435.447 124.023 431.678 119.443 425.152 121.638V121.642Z" fill="#E27100"/>
<path d="M361.537 158.567C358.64 160.397 357.819 164.561 359.153 167.721C360.487 170.881 363.523 173.063 366.767 174.181C368.135 174.651 369.63 174.961 371.015 174.545C373.103 173.918 374.437 171.72 374.581 169.547C374.725 167.374 373.882 165.247 372.781 163.362C370.291 159.092 365.797 155.877 361.537 158.571V158.567Z" fill="#E27100"/>
<path d="M370.888 293.55C365.514 293.452 360.351 297.502 359.165 302.746C358.619 305.165 359.042 308.079 361.092 309.477C363.388 311.04 366.513 310.028 368.974 308.744C372.006 307.164 374.966 305.101 376.55 302.072C378.134 299.044 378.041 293.681 370.884 293.55H370.888Z" fill="#E27100"/>
<path d="M409.525 315.674C404.9 317.487 402.532 323.795 404.76 328.357C405.141 329.141 405.654 329.886 406.352 330.382C407.665 331.305 409.482 331.2 410.88 330.42C412.277 329.641 413.298 328.289 414.052 326.841C415.259 324.511 415.856 321.846 415.759 319.203C415.716 318.042 415.517 316.827 414.827 315.912C414.132 314.997 412.781 314.391 409.52 315.67L409.525 315.674Z" fill="#E27100"/>
<path d="M461.993 310.363C459.816 316.107 463.28 323.325 469.124 325.214C470.052 325.515 471.094 325.685 471.979 325.282C473.076 324.787 473.63 323.558 473.931 322.393C475.608 315.806 471.005 308.291 461.993 310.363Z" fill="#E27100"/>
<path d="M478.7 143.622C475.96 145.228 473.071 146.99 471.699 149.849C470.327 152.709 471.369 156.936 474.452 157.686C475.587 157.961 476.794 157.728 477.882 157.305C481.334 155.966 483.93 152.628 484.375 148.951C484.553 147.481 484.375 145.88 483.452 144.72C482.528 143.559 480.504 142.563 478.7 143.622Z" fill="#E27100"/>
<path d="M506.749 279.672C505.139 279.867 503.488 279.541 501.895 279.867C500.303 280.193 498.706 281.557 498.982 283.154C499.066 283.654 499.329 284.107 499.608 284.531C502.679 289.203 508.76 291.669 514.215 290.461C514.927 290.305 515.655 290.072 516.184 289.572C517.26 288.547 517.142 286.776 516.578 285.399C515.287 282.256 511.979 280.053 506.744 279.676L506.749 279.672Z" fill="#E27100"/>
<path d="M509.874 179.218C505.698 179.29 501.827 182.695 501.23 186.834C501.065 187.982 501.15 189.236 501.844 190.168C502.442 190.969 503.403 191.422 504.368 191.676C507.477 192.498 510.844 191.57 513.58 189.876C515.926 188.423 518.065 186.08 518.018 183.318C517.971 180.556 514.761 179.137 509.874 179.218Z" fill="#E27100"/>
<path d="M516.362 238.519C513.902 238.417 511.411 239.192 509.442 240.667C509.616 242.547 511.026 244.136 512.69 245.034C514.355 245.932 516.256 246.25 518.124 246.546C520.284 246.889 522.965 246.995 524.15 245.157C525.061 243.742 524.515 241.747 523.299 240.582C522.084 239.417 520.394 238.68 516.366 238.515L516.362 238.519Z" fill="#E27100"/>
<path d="M338.477 202.821C336.262 202.364 334.001 202.139 331.743 202.152C330.723 203.622 329.651 205.346 330.109 207.074C330.782 209.62 334.073 210.209 336.707 210.302C337.897 210.345 339.083 210.387 340.273 210.429C340.874 210.451 341.492 210.467 342.047 210.234C343.415 209.663 343.762 207.739 343.115 206.405C342.467 205.071 341.42 203.431 338.477 202.821Z" fill="#E27100"/>
<path d="M344.178 254.383C341.95 254.332 339.595 254.565 337.77 255.84C335.945 257.115 334.89 259.716 335.962 261.673C337.126 263.791 340.002 264.168 342.412 263.956C344.279 263.795 346.185 263.41 347.752 262.376C349.319 261.343 350.484 259.547 350.34 257.674C350.196 255.802 348.447 254.074 344.178 254.383Z" fill="#E27100"/>
<path opacity="0.5" d="M429.269 297.697C442.469 299.518 455.365 293.168 466.639 286.065C471.077 283.269 475.465 280.282 478.988 276.398C483.156 271.802 485.938 266.142 488.661 260.563C491.833 254.074 495.018 247.546 497.072 240.62C501.739 224.87 500.049 207.075 491.346 193.142C487.594 187.135 482.669 181.946 477.489 177.113C473.754 173.627 469.841 170.28 465.423 167.713C452.998 160.491 437.912 160.075 423.547 159.847C416.661 159.737 409.601 159.656 403.1 161.931C399.822 163.079 396.777 164.799 393.872 166.701C370.719 181.87 356.565 209.828 358.044 237.473C358.323 242.721 359.14 247.987 361.038 252.888C364.621 262.144 371.778 269.48 378.749 276.542C385.241 283.116 392.043 289.89 400.746 292.982C403.414 293.927 406.196 294.503 408.966 295.075C415.166 296.35 421.557 296.642 429.269 297.705V297.697Z" fill="#C9FF9E"/>
<path d="M401.339 247.377C401.339 247.377 424.628 262.431 453.015 247.147" stroke="black" stroke-width="13.2831" stroke-miterlimit="10" stroke-linecap="round"/>
<path d="M387.426 200.516L387.285 200.519C385.59 200.558 384.3 200.878 383.174 201.488C382.043 202.1 381.041 203.025 379.951 204.33C379.126 205.32 378.667 206.575 378.244 207.898L387.426 200.516ZM387.426 200.516C388.499 200.536 389.847 201.048 391.108 201.799C392.42 202.579 393.534 203.555 394.056 204.325L387.426 200.516ZM392.64 229.311L392.64 229.311C394.022 228.243 394.998 226.714 395.756 225.077C398.807 218.48 398.144 210.367 394.056 204.325L392.64 229.311ZM392.64 229.311C389.679 231.602 385.074 231.344 381.929 229.147C378.789 226.954 377.018 223.182 376.616 219.356M392.64 229.311L376.616 219.356M376.616 219.356C376.217 215.528 377.05 211.649 378.244 207.899L376.616 219.356Z" fill="black" stroke="black" stroke-width="1.03091"/>
<path d="M465.932 200.516L466.073 200.519C467.768 200.558 469.058 200.878 470.183 201.488C471.315 202.1 472.316 203.025 473.406 204.33C474.232 205.32 474.691 206.575 475.113 207.898L465.932 200.516ZM465.932 200.516C464.859 200.536 463.511 201.048 462.25 201.798C460.938 202.579 459.824 203.555 459.302 204.325L465.932 200.516ZM460.717 229.311L460.717 229.311C459.335 228.242 458.359 226.714 457.602 225.077C454.55 218.48 455.213 210.367 459.302 204.325L460.717 229.311ZM460.717 229.311C463.678 231.602 468.283 231.344 471.429 229.147C474.569 226.954 476.339 223.182 476.741 219.356M460.717 229.311L476.741 219.356M476.741 219.356C477.14 215.528 476.308 211.649 475.113 207.899L476.741 219.356Z" fill="black" stroke="black" stroke-width="1.03091"/>
<path d="M387.273 200.004C383.757 200.085 381.777 201.339 379.556 204C378.659 205.075 378.176 206.419 377.753 207.742C376.551 211.517 375.694 215.477 376.104 219.41C376.517 223.343 378.341 227.27 381.633 229.57C384.926 231.869 389.782 232.174 392.956 229.719C394.431 228.578 395.45 226.966 396.224 225.293C399.351 218.532 398.672 210.227 394.483 204.036C393.323 202.325 389.749 199.944 387.273 200.001V200.004Z" fill="black"/>
<path d="M466.085 200.004C469.601 200.085 471.58 201.339 473.802 204C474.699 205.075 475.182 206.419 475.604 207.742C476.807 211.517 477.664 215.477 477.254 219.41C476.841 223.343 475.017 227.27 471.724 229.57C468.432 231.869 463.575 232.174 460.402 229.719C458.927 228.578 457.908 226.965 457.134 225.293C454.006 218.532 454.686 210.227 458.875 204.036C460.035 202.324 463.609 199.944 466.085 200.001V200.004Z" fill="black"/>
<path d="M510.07 273.85H341.13C316.979 273.85 297.4 293.429 297.4 317.58V414.33C297.4 438.481 316.979 458.06 341.13 458.06H510.07C534.222 458.06 553.8 438.481 553.8 414.33V317.58C553.8 293.429 534.222 273.85 510.07 273.85Z" fill="#FF8D8D"/>
<path d="M614.14 393.5H237.06L278.25 330.12H572.95L614.14 393.5Z" fill="#FFBABB"/>
<path d="M268.254 312.65C265.35 302.543 262.396 290.992 264.536 280.961C265.21 277.807 268.321 275.81 271.474 276.479C271.509 276.488 271.543 276.491 271.578 276.501C274.39 277.093 276.358 279.647 276.207 282.518C275.765 291.003 276.641 298.919 280.037 307.036C287.674 305.261 297.494 309.763 300.135 317.209C302.776 324.654 301.88 331.927 296.862 338.03C295.133 340.132 291.982 343.223 286.394 345.239C278.23 348.179 270.305 344.338 264.677 336.888C258.886 329.223 259.58 319.436 268.254 312.65Z" fill="#009039"/>
<path d="M573.502 312.65C576.407 302.543 579.361 290.992 577.22 280.961C576.547 277.807 573.436 275.81 570.283 276.479C570.248 276.488 570.214 276.491 570.179 276.501C567.367 277.093 565.399 279.647 565.55 282.518C565.992 291.003 565.115 298.919 561.72 307.036C554.083 305.261 544.263 309.763 541.622 317.209C538.981 324.654 539.877 331.927 544.895 338.03C546.624 340.132 549.775 343.223 555.363 345.239C563.527 348.179 571.452 344.338 577.08 336.888C582.871 329.223 582.177 319.436 573.502 312.65Z" fill="#009039"/>
</g>
<defs>
<clipPath id="clip0_171_93">
<rect width="852" height="393" fill="white"/>
</clipPath>
</defs>
</svg>
