<svg width="852" height="393" viewBox="0 0 852 393" fill="none" xmlns="http://www.w3.org/2000/svg">
<g clip-path="url(#clip0_150_1233)">
<path d="M548.347 349.792C543.92 355.363 538.717 361.529 532.354 364.286C530.354 365.153 528.036 364.22 527.168 362.218C527.16 362.195 527.148 362.175 527.14 362.152C526.364 360.367 527 358.278 528.64 357.234C533.485 354.147 537.5 350.555 540.64 345.494C536.67 341.976 535.302 334.789 538.368 330.408C541.433 326.027 545.789 323.665 551.115 324.038C552.95 324.167 555.886 324.692 559.186 326.985C564.006 330.336 564.996 336.218 563.098 342.249C561.147 348.455 555.485 351.915 548.35 349.792H548.347Z" fill="#009039"/>
<path d="M303.652 349.792C308.08 355.363 313.283 361.529 319.645 364.286C321.646 365.153 323.964 364.22 324.831 362.218C324.84 362.195 324.851 362.175 324.86 362.152C325.636 360.367 325 358.278 323.36 357.234C318.515 354.147 314.499 350.555 311.36 345.494C315.329 341.976 316.697 334.789 313.632 330.408C310.567 326.027 306.211 323.665 300.885 324.038C299.05 324.167 296.114 324.692 292.814 326.985C287.997 330.336 287.007 336.218 288.904 342.249C290.856 348.455 296.517 351.915 303.652 349.792Z" fill="#009039"/>
<path d="M425.349 231.494C404.708 228.642 384.545 238.589 366.918 249.727C359.98 254.111 353.114 258.787 347.605 264.879C341.085 272.083 336.74 280.951 332.479 289.694C327.522 299.865 322.539 310.096 319.331 320.95C312.032 345.633 314.674 373.523 328.283 395.357C334.15 404.774 341.855 412.905 349.949 420.479C355.79 425.945 361.909 431.19 368.818 435.212C388.245 446.528 411.834 447.182 434.301 447.541C445.071 447.713 456.107 447.842 466.273 444.276C471.396 442.477 476.164 439.78 480.703 436.799C516.905 413.026 539.037 369.211 536.725 325.888C536.287 317.662 535.013 309.41 532.045 301.73C526.441 287.226 515.254 275.727 504.349 264.663C494.201 254.363 483.562 243.742 469.951 238.899C465.781 237.415 461.43 236.517 457.097 235.622C447.401 233.622 437.412 233.163 425.349 231.496V231.494Z" fill="#E27100"/>
<path d="M421.342 241.198C388.022 242.946 356.44 264.246 342.275 294.53C336.237 307.438 333.226 321.671 332.722 335.922C332.367 345.984 333.251 356.138 335.968 365.833C340.392 381.627 349.757 395.99 362.413 406.394C381.434 422.03 406.874 428.162 431.471 427.809C441.141 427.671 456.625 423.976 465.094 419.666C471.038 416.639 476.359 412.31 481.945 408.66C486.596 405.622 490.483 401.565 494.312 397.534C499.736 391.827 505.214 385.988 508.72 378.933C511.779 372.773 513.202 365.948 514.51 359.194C516.636 348.202 518.545 337.061 518.081 325.875C516.774 294.435 495.969 265.689 468.508 250.448C456.602 243.841 443.096 240.062 421.348 241.201L421.342 241.198Z" fill="#00CB39"/>
<path d="M423.677 253.389C421.783 254.028 420.409 255.802 419.891 257.738C419.373 259.675 419.619 261.746 420.194 263.666C420.809 265.723 421.874 267.749 423.651 268.945C425.429 270.141 428.033 270.276 429.607 268.816C430.392 268.087 430.841 267.069 431.19 266.056C432.112 263.367 432.455 260.384 431.545 257.692C430.635 255.001 428.088 251.9 423.677 253.386V253.389Z" fill="#E27100"/>
<path d="M380.687 278.398C378.729 279.638 378.174 282.458 379.075 284.598C379.977 286.739 382.029 288.216 384.221 288.974C385.146 289.292 386.156 289.502 387.092 289.221C388.503 288.796 389.404 287.307 389.502 285.835C389.599 284.363 389.03 282.923 388.285 281.646C386.602 278.754 383.566 276.576 380.687 278.401V278.398Z" fill="#E27100"/>
<path d="M387.006 369.823C383.374 369.757 379.885 372.5 379.084 376.052C378.715 377.691 379.001 379.665 380.386 380.611C381.937 381.67 384.05 380.984 385.713 380.115C387.762 379.045 389.762 377.648 390.833 375.596C391.903 373.545 391.84 369.912 387.003 369.823H387.006Z" fill="#E27100"/>
<path d="M413.117 384.808C409.991 386.036 408.391 390.308 409.897 393.398C410.154 393.929 410.501 394.434 410.973 394.769C411.86 395.395 413.088 395.323 414.032 394.795C414.977 394.267 415.667 393.352 416.176 392.371C416.992 390.793 417.395 388.988 417.329 387.198C417.301 386.412 417.166 385.588 416.7 384.969C416.23 384.349 415.317 383.939 413.114 384.805L413.117 384.808Z" fill="#E27100"/>
<path d="M448.574 381.211C447.103 385.101 449.445 389.99 453.394 391.27C454.021 391.474 454.725 391.588 455.323 391.316C456.064 390.98 456.439 390.148 456.643 389.359C457.776 384.898 454.665 379.808 448.574 381.211Z" fill="#E27100"/>
<path d="M459.865 268.276C458.013 269.363 456.062 270.557 455.134 272.494C454.207 274.43 454.911 277.294 456.995 277.802C457.762 277.988 458.577 277.83 459.313 277.543C461.645 276.637 463.4 274.376 463.7 271.885C463.821 270.89 463.7 269.805 463.076 269.019C462.452 268.233 461.084 267.559 459.865 268.276Z" fill="#E27100"/>
<path d="M478.82 360.424C477.732 360.556 476.616 360.335 475.54 360.556C474.464 360.777 473.385 361.701 473.571 362.782C473.628 363.121 473.806 363.428 473.995 363.715C476.07 366.879 480.18 368.549 483.866 367.731C484.347 367.625 484.839 367.468 485.197 367.129C485.924 366.435 485.843 365.235 485.463 364.303C484.59 362.174 482.355 360.682 478.817 360.427L478.82 360.424Z" fill="#E27100"/>
<path d="M480.932 292.385C478.11 292.434 475.494 294.741 475.091 297.544C474.979 298.321 475.037 299.17 475.506 299.802C475.909 300.344 476.559 300.651 477.212 300.823C479.312 301.38 481.588 300.751 483.437 299.604C485.022 298.62 486.468 297.033 486.436 295.162C486.405 293.292 484.235 292.33 480.932 292.385Z" fill="#E27100"/>
<path d="M485.317 332.55C483.654 332.482 481.971 333.007 480.641 334.005C480.758 335.279 481.711 336.355 482.836 336.963C483.961 337.571 485.246 337.787 486.508 337.987C487.967 338.22 489.779 338.292 490.58 337.046C491.196 336.088 490.827 334.737 490.005 333.948C489.184 333.159 488.042 332.659 485.32 332.548L485.317 332.55Z" fill="#E27100"/>
<path d="M365.103 308.372C363.606 308.062 362.078 307.91 360.552 307.918C359.863 308.914 359.139 310.082 359.448 311.252C359.903 312.977 362.127 313.375 363.907 313.439C364.711 313.467 365.512 313.496 366.317 313.525C366.723 313.539 367.141 313.55 367.516 313.393C368.44 313.005 368.675 311.703 368.237 310.799C367.799 309.895 367.092 308.785 365.103 308.372Z" fill="#E27100"/>
<path d="M368.955 343.296C367.45 343.261 365.859 343.419 364.625 344.283C363.392 345.146 362.679 346.908 363.403 348.234C364.19 349.668 366.134 349.924 367.762 349.78C369.024 349.671 370.312 349.41 371.371 348.71C372.43 348.01 373.217 346.793 373.12 345.525C373.022 344.257 371.84 343.086 368.955 343.296Z" fill="#E27100"/>
<path opacity="0.5" d="M426.46 372.632C435.381 373.866 444.095 369.565 451.714 364.753C454.714 362.86 457.679 360.837 460.06 358.206C462.876 355.093 464.756 351.26 466.597 347.481C468.74 343.086 470.893 338.665 472.281 333.973C475.435 323.306 474.293 311.253 468.411 301.816C465.875 297.748 462.547 294.233 459.047 290.96C456.522 288.598 453.878 286.332 450.893 284.593C442.496 279.701 432.301 279.42 422.593 279.265C417.939 279.191 413.168 279.136 408.775 280.677C406.56 281.454 404.502 282.619 402.539 283.907C386.892 294.182 377.327 313.118 378.326 331.842C378.515 335.397 379.067 338.963 380.349 342.282C382.771 348.551 387.607 353.521 392.318 358.304C396.706 362.756 401.302 367.344 407.184 369.439C408.987 370.078 410.867 370.469 412.739 370.856C416.929 371.72 421.248 371.918 426.46 372.638V372.632Z" fill="#C9FF9E"/>
<path d="M398.315 306.007L398.416 306.004C399.197 306.018 400.163 306.393 401.056 306.929C401.986 307.487 402.783 308.19 403.162 308.754C406.056 313.074 406.525 318.874 404.365 323.591C403.829 324.76 403.134 325.863 402.144 326.636L402.144 326.636C400.02 328.296 396.734 328.103 394.494 326.523C392.256 324.945 391.001 322.235 390.716 319.496C390.433 316.756 391.023 313.986 391.864 311.319C392.161 310.379 392.489 309.47 393.084 308.749C393.854 307.817 394.568 307.15 395.38 306.706C396.188 306.264 397.111 306.034 398.315 306.007Z" fill="black" stroke="black" stroke-width="0.514458"/>
<path d="M453.685 306.007L453.584 306.004C452.803 306.018 451.837 306.393 450.944 306.929C450.014 307.487 449.217 308.19 448.839 308.754C445.944 313.074 445.475 318.874 447.635 323.591C448.171 324.76 448.866 325.863 449.856 326.636L449.856 326.636C451.98 328.296 455.266 328.103 457.506 326.523C459.744 324.945 460.999 322.235 461.284 319.496C461.567 316.756 460.977 313.986 460.136 311.319C459.839 310.379 459.511 309.47 458.916 308.749C458.146 307.817 457.432 307.15 456.62 306.706C455.812 306.264 454.889 306.034 453.685 306.007Z" fill="black" stroke="black" stroke-width="0.514458"/>
<path d="M404 341.084C404 341.084 422.976 353.351 446.106 340.896" stroke="black" stroke-width="9" stroke-miterlimit="10" stroke-linecap="round"/>
</g>
<defs>
<clipPath id="clip0_150_1233">
<rect width="852" height="393" fill="white"/>
</clipPath>
</defs>
</svg>
