<svg width="852" height="393" viewBox="0 0 852 393" fill="none" xmlns="http://www.w3.org/2000/svg">
<g clip-path="url(#clip0_194_467)">
<g clip-path="url(#clip1_194_467)">
<path d="M175.456 261.115C164.975 188.692 170.681 0 170.681 0H-5.92647V216.429C-6.20384 223.313 -6.90718 230.177 -8.0464 236.961C-8.45255 239.412 -14.6241 260.435 -13.9505 261.015C-8.90824 264.868 -2.25126 266.499 3.97974 265.388C9.13097 264.477 14.0643 261.796 19.265 262.286C24.971 262.826 30.3204 267.159 35.8976 265.818C37.9878 265.318 39.8204 264.047 41.8017 263.207C54.5014 257.853 68.3404 270.971 81.9218 268.74C90.4015 267.349 97.8609 260.045 106.331 261.486C111.264 262.326 115.514 266.088 120.506 266.148C124.122 266.188 127.451 264.277 130.977 263.497C137.902 261.966 144.935 264.848 151.939 265.998C159.151 267.179 166.66 266.479 173.534 263.987C174.258 263.727 175.05 263.377 175.357 262.656C175.565 262.176 175.526 261.616 175.446 261.095L175.456 261.115Z" fill="#B79B46"/>
<path d="M156.674 223.433C152.91 209.465 152.097 194.886 151.444 180.427C148.888 123.754 148.511 66.9798 150.304 10.2761C150.413 6.86408 150.453 3.23192 149.561 0H129.283C130.036 1.32079 130.631 2.75164 131.076 4.12245C136.802 21.5928 136.376 40.414 136.099 58.805C135.138 122.533 136.773 186.311 140.973 249.899C141.29 254.651 141.785 259.735 143.41 264.157C146.253 264.788 149.096 265.538 151.939 266.008C158.467 267.079 165.243 266.609 171.573 264.657C167.204 250.709 160.478 237.551 156.674 223.423V223.433Z" fill="#AD913C"/>
<path d="M116.078 0H95.8103C96.5335 1.0106 97.1675 2.08124 97.6925 3.1919C100.03 8.09482 100.704 13.6081 101.269 19.0213C108.787 91.3543 102.992 164.368 104.993 237.061C105.221 245.396 105.578 253.821 107.827 261.836C112.136 263.066 116.019 266.108 120.506 266.158C120.823 266.158 121.15 266.158 121.467 266.128C121.864 263.337 121.101 259.915 120.14 257.163C115.207 243.005 112.037 228.196 111.086 213.217C110.075 197.257 111.571 181.258 112.215 165.288C114.355 112.377 107.173 59.0451 114.315 6.57391C114.612 4.42263 115.157 2.05122 116.078 0.010006V0Z" fill="#AD913C"/>
<path d="M44.5556 -3.81373e-06H18.2744C18.3041 0.0900498 18.3239 0.180103 18.3438 0.270157C39.2459 78.1965 24.6342 160.676 24.2479 241.404C24.2082 248.988 24.3073 256.643 25.7635 264.067C28.7156 265.168 31.628 266.298 34.5899 266.028C34.8475 264.687 34.8277 263.277 34.798 261.906C33.1139 175.084 36.274 88.1724 44.2782 1.71101C44.3277 1.16069 44.4169 0.580341 44.5556 -0.0100098V-3.81373e-06Z" fill="#AD913C"/>
<path d="M81.9317 268.75C83.1007 268.56 84.2597 268.25 85.3989 267.869C85.2701 265.748 84.3489 263.677 83.4771 261.706C62.466 214.157 62.1193 160.235 63.2486 108.164C63.6548 89.2331 64.2194 70.3118 64.7742 51.3906C65.0417 42.4352 65.2992 33.4899 65.5667 24.5346C65.7747 17.4704 66.0422 10.1661 69.0834 3.81227C69.7273 2.47147 70.5198 1.19071 71.451 0.0100098H52.8768C52.8966 0.170105 52.9066 0.340206 52.9165 0.500301C58.9592 86.2513 42.8716 173.923 62.3373 257.603C62.9911 260.435 63.7241 263.307 64.8534 265.968C70.5297 267.929 76.2555 269.69 81.9417 268.75H81.9317Z" fill="#AD913C"/>
<path d="M9.69564 0H-5.93636V216.429C-6.21373 223.313 -6.91707 230.177 -8.05629 236.961C-8.46244 239.412 -14.634 260.435 -13.9604 261.015C-11.0579 263.237 -7.62041 264.707 -4.04427 265.358C-0.616721 259.424 -0.656345 250.829 -0.210566 244.505C5.35672 164.788 8.47718 84.9005 9.18052 4.98296C9.19043 3.31197 9.23005 1.57093 9.69564 0Z" fill="#AD913C"/>
<path d="M348.171 261.115C337.69 188.692 343.386 0 343.386 0H166.778V216.429C166.501 223.313 165.798 230.177 164.659 236.961C164.252 239.412 158.081 260.435 158.754 261.015C163.797 264.868 170.454 266.499 176.685 265.388C181.836 264.477 186.769 261.796 191.97 262.286C197.676 262.826 203.025 267.159 208.602 265.818C210.693 265.318 212.525 264.047 214.507 263.207C227.206 257.853 241.045 270.971 254.627 268.74C263.106 267.349 270.566 260.045 279.036 261.486C283.969 262.326 288.219 266.088 293.211 266.148C296.827 266.188 300.156 264.277 303.682 263.497C310.607 261.966 317.64 264.848 324.644 265.998C331.856 267.179 339.364 266.479 346.239 263.987C346.962 263.727 347.755 263.377 348.062 262.656C348.27 262.176 348.23 261.616 348.151 261.095L348.171 261.115Z" fill="#B79B46"/>
<path d="M329.389 223.433C325.625 209.465 324.812 194.886 324.158 180.427C321.603 123.754 321.226 66.9798 323.019 10.2761C323.128 6.86408 323.168 3.23192 322.276 0H301.998C302.751 1.32079 303.345 2.75164 303.791 4.12245C309.517 21.5928 309.091 40.414 308.814 58.805C307.853 122.533 309.487 186.311 313.688 249.899C314.005 254.651 314.5 259.735 316.124 264.157C318.968 264.788 321.811 265.538 324.654 266.008C331.182 267.079 337.958 266.609 344.288 264.657C339.919 250.709 333.193 237.551 329.389 223.423V223.433Z" fill="#AD913C"/>
<path d="M288.793 0H268.525C269.248 1.0106 269.882 2.08124 270.407 3.1919C272.745 8.09482 273.419 13.6081 273.983 19.0213C281.502 91.3543 275.707 164.368 277.708 237.061C277.936 245.396 278.293 253.821 280.541 261.836C284.851 263.066 288.734 266.108 293.221 266.158C293.538 266.158 293.865 266.158 294.182 266.128C294.578 263.337 293.816 259.915 292.855 257.163C287.922 243.005 284.752 228.196 283.801 213.217C282.79 197.257 284.286 181.258 284.93 165.288C287.07 112.377 279.888 59.0451 287.03 6.57391C287.327 4.42263 287.872 2.05122 288.793 0.010006V0Z" fill="#AD913C"/>
<path d="M217.27 -3.81373e-06H190.989C191.019 0.0900498 191.039 0.180103 191.059 0.270157C211.961 78.1965 197.349 160.676 196.963 241.404C196.923 248.988 197.022 256.643 198.478 264.067C201.43 265.168 204.343 266.298 207.305 266.028C207.562 264.687 207.542 263.277 207.513 261.906C205.829 175.084 208.989 88.1724 216.993 1.71101C217.043 1.16069 217.132 0.580341 217.27 -0.0100098V-3.81373e-06Z" fill="#AD913C"/>
<path d="M254.647 268.75C255.815 268.56 256.974 268.25 258.114 267.869C257.985 265.748 257.064 263.677 256.192 261.706C235.181 214.157 234.834 160.235 235.963 108.164C236.37 89.2331 236.934 70.3118 237.489 51.3906C237.756 42.4352 238.014 33.4899 238.281 24.5346C238.49 17.4704 238.757 10.1661 241.798 3.81227C242.442 2.47147 243.235 1.19071 244.166 0.0100098H225.592C225.611 0.170105 225.621 0.340206 225.631 0.500301C231.674 86.2513 215.586 173.923 235.052 257.603C235.706 260.435 236.439 263.307 237.568 265.968C243.244 267.929 248.97 269.69 254.656 268.75H254.647Z" fill="#AD913C"/>
<path d="M182.41 0H166.778V216.429C166.501 223.313 165.798 230.177 164.659 236.961C164.252 239.412 158.081 260.435 158.754 261.015C161.657 263.237 165.094 264.707 168.671 265.358C172.098 259.424 172.058 250.829 172.504 244.505C178.062 164.788 181.182 84.9005 181.885 4.99297C181.895 3.32198 181.935 1.58094 182.401 0.010006L182.41 0Z" fill="#AD913C"/>
<path d="M521.995 261.115C511.515 188.692 517.211 0 517.211 0H340.603V216.429C340.325 223.313 339.622 230.177 338.483 236.961C338.077 239.412 331.905 260.435 332.579 261.015C337.621 264.868 344.278 266.499 350.509 265.388C355.66 264.477 360.593 261.796 365.794 262.286C371.5 262.826 376.85 267.159 382.427 265.818C384.517 265.318 386.35 264.047 388.331 263.207C401.031 257.853 414.87 270.971 428.451 268.74C436.931 267.349 444.39 260.045 452.86 261.486C457.793 262.326 462.043 266.088 467.036 266.148C470.651 266.188 473.98 264.277 477.507 263.497C484.431 261.966 491.464 264.848 498.468 265.998C505.68 267.179 513.189 266.479 520.064 263.987C520.787 263.727 521.579 263.377 521.886 262.656C522.094 262.176 522.055 261.616 521.976 261.095L521.995 261.115Z" fill="#B79B46"/>
<path d="M503.213 223.433C499.449 209.465 498.637 194.886 497.983 180.427C495.427 123.754 495.05 66.9798 496.843 10.2761C496.952 6.86408 496.992 3.23192 496.101 0H475.823C476.575 1.32079 477.17 2.75164 477.616 4.12245C483.341 21.5928 482.915 40.414 482.638 58.805C481.677 122.533 483.312 186.311 487.512 249.899C487.829 254.651 488.324 259.735 489.949 264.157C492.792 264.788 495.635 265.538 498.478 266.008C505.006 267.079 511.782 266.609 518.112 264.657C513.744 250.709 507.017 237.551 503.213 223.423V223.433Z" fill="#AD913C"/>
<path d="M462.618 0H442.349C443.073 1.0106 443.707 2.08124 444.232 3.1919C446.57 8.09482 447.243 13.6081 447.808 19.0213C455.327 91.3543 449.531 164.368 451.533 237.061C451.76 245.396 452.117 253.821 454.366 261.836C458.675 263.066 462.558 266.108 467.046 266.158C467.363 266.158 467.69 266.158 468.007 266.128C468.403 263.337 467.64 259.915 466.679 257.163C461.746 243.005 458.576 228.196 457.625 213.217C456.614 197.257 458.11 181.258 458.754 165.288C460.894 112.377 453.712 59.0451 460.854 6.57391C461.151 4.42263 461.696 2.05122 462.618 0.010006V0Z" fill="#AD913C"/>
<path d="M391.085 -3.81373e-06H364.804C364.833 0.0900498 364.853 0.180103 364.873 0.270157C385.775 78.1965 371.163 160.676 370.777 241.404C370.737 248.988 370.836 256.643 372.293 264.067C375.245 265.168 378.157 266.298 381.119 266.028C381.377 264.687 381.357 263.277 381.327 261.906C379.643 175.084 382.803 88.1724 390.807 1.71101C390.857 1.16069 390.946 0.580341 391.085 -0.0100098V-3.81373e-06Z" fill="#AD913C"/>
<path d="M428.471 268.75C429.64 268.56 430.799 268.25 431.938 267.869C431.809 265.748 430.888 263.677 430.016 261.706C409.005 214.157 408.658 160.235 409.788 108.164C410.194 89.2331 410.759 70.3118 411.313 51.3906C411.581 42.4352 411.838 33.4899 412.106 24.5346C412.314 17.4704 412.581 10.1661 415.622 3.81227C416.266 2.47147 417.059 1.19071 417.99 0.0100098H399.416C399.436 0.170105 399.446 0.340206 399.456 0.500301C405.498 86.2513 389.411 173.923 408.876 257.603C409.53 260.435 410.263 263.307 411.393 265.968C417.069 267.929 422.795 269.69 428.481 268.75H428.471Z" fill="#AD913C"/>
<path d="M356.235 0H340.603V216.429C340.325 223.313 339.622 230.177 338.483 236.961C338.077 239.412 331.905 260.435 332.579 261.015C335.481 263.237 338.919 264.707 342.495 265.358C345.922 259.424 345.883 250.829 346.329 244.505C351.886 164.788 355.006 84.9005 355.71 4.99297C355.72 3.32198 355.759 1.58094 356.225 0.010006L356.235 0Z" fill="#AD913C"/>
<path d="M694.71 261.115C684.229 188.692 689.925 0 689.925 0H513.318V216.429C513.04 223.313 512.337 230.177 511.198 236.961C510.791 239.412 504.62 260.435 505.294 261.015C510.336 264.868 516.993 266.499 523.224 265.388C528.375 264.477 533.308 261.796 538.509 262.286C544.215 262.826 549.564 267.159 555.142 265.818C557.232 265.318 559.064 264.047 561.046 263.207C573.745 257.853 587.584 270.971 601.166 268.74C609.646 267.349 617.105 260.045 625.575 261.486C630.508 262.326 634.758 266.088 639.751 266.148C643.366 266.188 646.695 264.277 650.221 263.497C657.146 261.966 664.179 264.848 671.183 265.998C678.395 267.179 685.904 266.479 692.778 263.987C693.502 263.727 694.294 263.377 694.601 262.656C694.809 262.176 694.77 261.616 694.69 261.095L694.71 261.115Z" fill="#B79B46"/>
<path d="M675.928 223.433C672.164 209.465 671.351 194.886 670.698 180.427C668.142 123.754 667.765 66.9798 669.558 10.2761C669.667 6.86408 669.707 3.23192 668.815 0H648.537C649.29 1.32079 649.885 2.75164 650.33 4.12245C656.056 21.5928 655.63 40.414 655.353 58.805C654.392 122.533 656.026 186.311 660.227 249.899C660.544 254.651 661.039 259.735 662.664 264.157C665.507 264.788 668.35 265.538 671.193 266.008C677.721 267.079 684.497 266.609 690.827 264.657C686.458 250.709 679.732 237.551 675.928 223.423V223.433Z" fill="#AD913C"/>
<path d="M635.332 0H615.064C615.787 1.0106 616.421 2.08124 616.946 3.1919C619.284 8.09482 619.958 13.6081 620.523 19.0213C628.041 91.3543 622.246 164.368 624.247 237.061C624.475 245.396 624.832 253.821 627.08 261.836C631.39 263.066 635.273 266.108 639.76 266.158C640.077 266.158 640.404 266.158 640.721 266.128C641.118 263.337 640.355 259.915 639.394 257.163C634.461 243.005 631.291 228.196 630.34 213.217C629.329 197.257 630.825 181.258 631.469 165.288C633.609 112.377 626.427 59.0451 633.569 6.57391C633.866 4.42263 634.411 2.05122 635.332 0.010006V0Z" fill="#AD913C"/>
<path d="M563.8 -3.81373e-06H537.518C537.548 0.0900498 537.568 0.180103 537.588 0.270157C558.49 78.1965 543.878 160.676 543.492 241.404C543.452 248.988 543.551 256.643 545.008 264.067C547.96 265.168 550.872 266.298 553.834 266.028C554.092 264.687 554.072 263.277 554.042 261.906C552.358 175.084 555.518 88.1724 563.522 1.71101C563.572 1.16069 563.661 0.580341 563.8 -0.0100098V-3.81373e-06Z" fill="#AD913C"/>
<path d="M601.186 268.75C602.355 268.56 603.514 268.25 604.653 267.869C604.524 265.748 603.603 263.677 602.731 261.706C581.72 214.157 581.373 160.235 582.503 108.164C582.909 89.2331 583.473 70.3118 584.028 51.3906C584.296 42.4352 584.553 33.4899 584.821 24.5346C585.029 17.4704 585.296 10.1661 588.337 3.81227C588.981 2.47147 589.774 1.19071 590.705 0.0100098H572.131C572.151 0.170105 572.16 0.340206 572.17 0.500301C578.213 86.2513 562.125 173.923 581.591 257.603C582.245 260.435 582.978 263.307 584.107 265.968C589.784 267.929 595.509 269.69 601.196 268.75H601.186Z" fill="#AD913C"/>
<path d="M528.95 0H513.318V216.429C513.04 223.313 512.337 230.177 511.198 236.961C510.791 239.412 504.62 260.435 505.294 261.015C508.196 263.237 511.633 264.707 515.21 265.358C518.637 259.424 518.598 250.829 519.043 244.505C524.601 164.788 527.721 84.9005 528.424 4.99297C528.434 3.32198 528.474 1.58094 528.94 0.010006L528.95 0Z" fill="#AD913C"/>
<path d="M868.941 261.115C858.46 188.692 864.156 0 864.156 0H687.548V216.429C687.271 223.313 686.567 230.177 685.428 236.961C685.022 239.412 678.85 260.435 679.524 261.015C684.566 264.868 691.223 266.499 697.454 265.388C702.605 264.477 707.539 261.796 712.739 262.286C718.445 262.826 723.795 267.159 729.372 265.818C731.462 265.318 733.295 264.047 735.276 263.207C747.976 257.853 761.815 270.971 775.396 268.74C783.876 267.349 791.335 260.045 799.805 261.486C804.738 262.326 808.988 266.088 813.981 266.148C817.597 266.188 820.925 264.277 824.452 263.497C831.376 261.966 838.41 264.848 845.413 265.998C852.625 267.179 860.134 266.479 867.009 263.987C867.732 263.727 868.525 263.377 868.832 262.656C869.04 262.176 869 261.616 868.921 261.095L868.941 261.115Z" fill="#B79B46"/>
<path d="M850.159 223.433C846.394 209.465 845.582 194.886 844.928 180.427C842.372 123.754 841.996 66.9798 843.789 10.2761C843.898 6.86408 843.937 3.23192 843.046 0H822.768C823.521 1.32079 824.115 2.75164 824.561 4.12245C830.287 21.5928 829.861 40.414 829.583 58.805C828.622 122.533 830.257 186.311 834.457 249.899C834.774 254.651 835.269 259.735 836.894 264.157C839.737 264.788 842.58 265.538 845.423 266.008C851.952 267.079 858.727 266.609 865.057 264.657C860.689 250.709 853.963 237.551 850.159 223.423V223.433Z" fill="#AD913C"/>
<path d="M809.563 0H789.295C790.018 1.0106 790.652 2.08124 791.177 3.1919C793.515 8.09482 794.188 13.6081 794.753 19.0213C802.272 91.3543 796.477 164.368 798.478 237.061C798.706 245.396 799.062 253.821 801.311 261.836C805.62 263.066 809.503 266.108 813.991 266.158C814.308 266.158 814.635 266.158 814.952 266.128C815.348 263.337 814.585 259.915 813.624 257.163C808.691 243.005 805.521 228.196 804.57 213.217C803.56 197.257 805.055 181.258 805.699 165.288C807.839 112.377 800.657 59.0451 807.799 6.57391C808.097 4.42263 808.641 2.05122 809.563 0.010006V0Z" fill="#AD913C"/>
<path d="M738.03 -3.81373e-06H711.749C711.779 0.0900498 711.798 0.180103 711.818 0.270157C732.72 78.1965 718.109 160.676 717.722 241.404C717.683 248.988 717.782 256.643 719.238 264.067C722.19 265.168 725.103 266.298 728.064 266.028C728.322 264.687 728.302 263.277 728.272 261.906C726.588 175.084 729.748 88.1724 737.753 1.71101C737.802 1.16069 737.891 0.580341 738.03 -0.0100098V-3.81373e-06Z" fill="#AD913C"/>
<path d="M775.416 268.75C776.585 268.56 777.744 268.25 778.883 267.869C778.755 265.748 777.833 263.677 776.962 261.706C755.95 214.157 755.604 160.235 756.733 108.164C757.139 89.2331 757.704 70.3118 758.259 51.3906C758.526 42.4352 758.784 33.4899 759.051 24.5346C759.259 17.4704 759.527 10.1661 762.568 3.81227C763.212 2.47147 764.004 1.19071 764.935 0.0100098H746.361C746.381 0.170105 746.391 0.340206 746.401 0.500301C752.444 86.2513 736.356 173.923 755.822 257.603C756.475 260.435 757.209 263.307 758.338 265.968C764.014 267.929 769.74 269.69 775.426 268.75H775.416Z" fill="#AD913C"/>
<path d="M703.18 0H687.548V216.429C687.271 223.313 686.567 230.177 685.428 236.961C685.022 239.412 678.85 260.435 679.524 261.015C682.427 263.237 685.864 264.707 689.44 265.358C692.868 259.424 692.828 250.829 693.274 244.505C698.831 164.788 701.952 84.9005 702.655 4.99297C702.665 3.32198 702.705 1.58094 703.17 0.010006L703.18 0Z" fill="#AD913C"/>
</g>
</g>
<defs>
<clipPath id="clip0_194_467">
<rect width="852" height="393" fill="white"/>
</clipPath>
<clipPath id="clip1_194_467">
<rect width="883" height="269" fill="white" transform="translate(-14)"/>
</clipPath>
</defs>
</svg>
